<svg xmlns="http://www.w3.org/2000/svg" viewBox="0 0 1022.81 289.35"><defs><style>.cls-1{fill:#e30613;}</style></defs><g id="Camada_2" data-name="Camada 2"><g id="Camada_1-2" data-name="Camada 1"><path d="M143.77,146.21H61.39l-9.8,19.34q-4.81,9.67-4.81,16,0,8.35,7.91,12.31,4.64,2.34,22.87,3.51v5.42H0v-5.42q12.56-1.6,20.64-8.86t20-30L124,0h3.27l84.09,162.91q12,23.16,19.78,29.16,5.85,4.55,16.51,5.27v5.42H134.83v-5.42h4.64q13.59,0,19.09-3.22a7.48,7.48,0,0,0,3.78-6.74,15.5,15.5,0,0,0-1-5.42q-.34-1.32-5.16-11Zm-5.85-10.84L103.18,67,67.41,135.37Z"/><path d="M561.66,4.1V9.52a24.74,24.74,0,0,0-11,3.08,23.85,23.85,0,0,0-7.91,8.06q-1,1.75-10.84,22.71L458.82,207.3h-6.7l-57.79-128-63.63,128h-6.36L247.64,45.12q-11.7-24.46-16.34-29.59t-15.65-6V4.1H316.77V9.52q-12.21.3-16.25,3.15t-4,7.11q0,5.56,8.43,23.59l45.74,96.4,36.63-75.31-9.63-21.09q-7.9-17.29-12.21-23.08A25.16,25.16,0,0,0,355.55,12Q350,9.52,339.13,9.52V4.1h113V9.52q-11.87.15-17,1.61a11.3,11.3,0,0,0-5.67,3.45,8.2,8.2,0,0,0-2.07,5.49q0,3.38,7.74,20.66l42.48,94.05,38-85.11q6-13.19,7.39-18a32.81,32.81,0,0,0,1.38-8.94,11,11,0,0,0-4.82-9.45q-4.81-3.43-18.4-3.74V4.1Z"/><path d="M787,4.1V57.87h-6.19q-5.5-18.6-12.21-26.74t-18.4-13q-6.54-2.64-22.88-2.64H709.9V168.77q0,15.24,2,19t7.74,6.67q5.76,2.85,15.74,2.85h7.74v5.42H621v-5.42h7.74q10.15,0,16.34-3.07a15,15,0,0,0,7-7q1.89-3.51,1.89-18.46V15.53H637.16q-23.56,0-34.22,8.5Q588,35.9,584,57.87h-6.53V4.1Z"/><path d="M331.67,288.82H315V250.34h45.77V257H331.67V267h27.09v6.66H331.67Z"/><path d="M400.28,258.84a59.59,59.59,0,0,1,14.58,1.57,22.3,22.3,0,0,1,9.45,4.54,9.36,9.36,0,0,1,3.33,7.26v3.9H388.26q.27,3.39,4.23,5.33t11,1.93a90.22,90.22,0,0,0,10.71-.58,97,97,0,0,0,10-1.73v6.21a73.22,73.22,0,0,1-9.48,1.58q-4.94.5-12,.5a72.62,72.62,0,0,1-16.25-1.64,26.25,26.25,0,0,1-11.08-5,10.49,10.49,0,0,1-4-8.42,11.33,11.33,0,0,1,3.63-8.59,23.14,23.14,0,0,1,10.14-5.16A59.24,59.24,0,0,1,400.28,258.84Zm.11,5.72a19,19,0,0,0-8.06,1.5,6,6,0,0,0-3.69,4.71H412a4.8,4.8,0,0,0-1.34-3.19,8.73,8.73,0,0,0-3.82-2.21A21.67,21.67,0,0,0,400.39,264.56Z"/><path d="M475.27,258.84c.84,0,1.81,0,2.93.07s2,.1,2.7.17l-1.26,7.53a19.82,19.82,0,0,0-2.32-.2c-1,0-1.86-.06-2.59-.06a49,49,0,0,0-6.26.39A24.87,24.87,0,0,0,463,268a10,10,0,0,0-3.8,2.31,4.86,4.86,0,0,0-1.39,3.52v15H441.19V259.4h12.62l2.45,4.94h.82a21,21,0,0,1,4.51-2.75,29.79,29.79,0,0,1,6.17-2A35.53,35.53,0,0,1,475.27,258.84Z"/><path d="M526.07,258.84c.84,0,1.81,0,2.92.07s2,.1,2.71.17l-1.26,7.53a19.82,19.82,0,0,0-2.32-.2c-1,0-1.87-.06-2.59-.06a49,49,0,0,0-6.26.39,24.87,24.87,0,0,0-5.43,1.28,9.93,9.93,0,0,0-3.8,2.31,4.86,4.86,0,0,0-1.39,3.52v15H492V259.4h12.62l2.45,4.94h.82a20.72,20.72,0,0,1,4.51-2.75,29.79,29.79,0,0,1,6.17-2A35.53,35.53,0,0,1,526.07,258.84Z"/><path d="M567.8,258.79q12.3,0,18.85,2.58t6.55,7.84v19.61H581.57l-3.22-4h-.44a31.62,31.62,0,0,1-5.35,2.58,29.39,29.39,0,0,1-6.29,1.47,65.67,65.67,0,0,1-8.63.48,43.21,43.21,0,0,1-9.69-1,16,16,0,0,1-6.75-3.07,6.57,6.57,0,0,1-2.46-5.25q0-4.68,6.83-6.91t20.49-2.46l10.59-.16v-1.29a3.57,3.57,0,0,0-2.51-3.39,18.22,18.22,0,0,0-7-1.08,62.27,62.27,0,0,0-8.69.6q-4.26.62-8.52,1.53l-5.51-5.42a86.3,86.3,0,0,1,10.89-1.95A107.68,107.68,0,0,1,567.8,258.79Zm8.85,16.4-6.44.1q-8.09.1-11.23,1.4t-3.14,3.39c0,1.23.75,2.1,2.24,2.62a18.14,18.14,0,0,0,5.85.78,23.66,23.66,0,0,0,9-1.53c2.45-1,3.68-2.46,3.68-4.34Z"/><path d="M682.07,258.84q10.38,0,15.71,2.57a8.56,8.56,0,0,1,5.32,8.22v19.19H686.39V271.63a5.49,5.49,0,0,0-2.24-4.76c-1.49-1.07-3.81-1.6-6.94-1.6-4.4,0-7.54.75-9.39,2.27a7.93,7.93,0,0,0-2.79,6.52v14.76H648.37V271.63a6.08,6.08,0,0,0-1-3.52,5.86,5.86,0,0,0-3-2.13,15.68,15.68,0,0,0-5.19-.71,19.38,19.38,0,0,0-7.29,1.11,7.26,7.26,0,0,0-3.77,3.29A11.58,11.58,0,0,0,627,275v13.84H610.35V259.4h12.73l2.24,3.76h.93a14.53,14.53,0,0,1,4.67-2.47,33.06,33.06,0,0,1,6.2-1.4,58,58,0,0,1,18.27.61,16.09,16.09,0,0,1,7.18,3.26h1.48a17.53,17.53,0,0,1,7.73-3.29A51.31,51.31,0,0,1,682.07,258.84Z"/><path d="M745.38,258.84A59.67,59.67,0,0,1,760,260.41a22.31,22.31,0,0,1,9.44,4.54,9.34,9.34,0,0,1,3.34,7.26v3.9H733.36q.28,3.39,4.24,5.33t11,1.93a90.1,90.1,0,0,0,10.71-.58,97.59,97.59,0,0,0,10-1.73v6.21a73.79,73.79,0,0,1-9.48,1.58q-5,.5-12,.5a72.5,72.5,0,0,1-16.25-1.64,26.3,26.3,0,0,1-11.09-5,10.48,10.48,0,0,1-4-8.42,11.33,11.33,0,0,1,3.63-8.59,23.1,23.1,0,0,1,10.13-5.16A59.3,59.3,0,0,1,745.38,258.84Zm.11,5.72a19,19,0,0,0-8.06,1.5,6,6,0,0,0-3.68,4.71h23.37a4.79,4.79,0,0,0-1.33-3.19,8.77,8.77,0,0,0-3.83-2.21A21.67,21.67,0,0,0,745.49,264.56Z"/><path d="M821,258.84q9.78,0,15.73,2.57t5.95,8.22v19.19H826V271.63a5.38,5.38,0,0,0-2.37-4.76c-1.59-1.07-4.07-1.6-7.46-1.6q-7.65,0-10.43,2.5c-1.86,1.66-2.79,4.07-2.79,7.21v13.84H786.29V259.4H799l2.24,3.76h.93a15.79,15.79,0,0,1,4.89-2.47,35.33,35.33,0,0,1,6.5-1.4A59.19,59.19,0,0,1,821,258.84Z"/><path d="M885.54,283c1.82,0,3.6-.09,5.33-.26s3.45-.4,5.16-.66v6a57.23,57.23,0,0,1-6.64,1c-2.64.26-5.52.39-8.66.39a50.91,50.91,0,0,1-9.8-.86,14.76,14.76,0,0,1-6.83-3,7.33,7.33,0,0,1-2.48-5.91V265.42h-8V262l9.18-2.69,4.81-6.21h10.65v6.27h17.09v6H878.28v14.19a2.7,2.7,0,0,0,2,2.51A13.82,13.82,0,0,0,885.54,283Z"/><path d="M933.39,258.79q12.29,0,18.85,2.58t6.55,7.84v19.61H947.16l-3.23-4h-.43a31.71,31.71,0,0,1-5.36,2.58,29.15,29.15,0,0,1-6.28,1.47,65.78,65.78,0,0,1-8.63.48,43.15,43.15,0,0,1-9.69-1,16,16,0,0,1-6.75-3.07,6.57,6.57,0,0,1-2.46-5.25q0-4.68,6.83-6.91t20.48-2.46l10.6-.16v-1.29a3.57,3.57,0,0,0-2.51-3.39,18.22,18.22,0,0,0-7-1.08,62.27,62.27,0,0,0-8.69.6q-4.26.62-8.52,1.53L910,261.45a86.47,86.47,0,0,1,10.9-1.95A107.43,107.43,0,0,1,933.39,258.79Zm8.85,16.4-6.45.1q-8.09.1-11.22,1.4t-3.14,3.39c0,1.23.74,2.1,2.24,2.62a18.11,18.11,0,0,0,5.84.78,23.58,23.58,0,0,0,9-1.53c2.46-1,3.69-2.46,3.69-4.34Z"/><path d="M1018.55,280.08a6.09,6.09,0,0,1-2.92,5.07q-2.93,2.07-8.72,3.13a81.54,81.54,0,0,1-14.42,1.07c-4.26,0-7.91-.14-11-.4a84.86,84.86,0,0,1-9.2-1.31V281q5,1.08,10.68,1.78a82.75,82.75,0,0,0,10,.7,24.24,24.24,0,0,0,7-.7c1.4-.46,2.11-1.07,2.11-1.83a1.68,1.68,0,0,0-.85-1.33,13.9,13.9,0,0,0-3.63-1.34q-2.79-.75-8.74-2a88.31,88.31,0,0,1-9.42-2.34,15,15,0,0,1-5.47-2.81,5.31,5.31,0,0,1-1.77-4.11q0-4.08,6.58-6.15t17.62-2.07a101.49,101.49,0,0,1,10.84.56,96.28,96.28,0,0,1,10.62,1.76l-5,5.79q-4.54-.94-8.55-1.55a53.92,53.92,0,0,0-8.17-.61,23.53,23.53,0,0,0-5.51.48q-1.86.47-1.86,1.44c0,.48.32.9,1,1.27a16.36,16.36,0,0,0,3.72,1.22q2.76.68,8.11,1.72c3.46.69,6.46,1.4,9,2.15a17.36,17.36,0,0,1,5.9,2.76A5.18,5.18,0,0,1,1018.55,280.08Z"/><polygon class="cls-1" points="905.14 177.28 862.41 103.29 905.14 29.29 980.32 29.29 965.61 3.81 850.75 3.81 793.31 103.29 850.75 202.76 965.61 202.76 980.32 177.28 905.14 177.28"/><path d="M985.33,38.38h-75l-37.47,64.91,37.47,64.91h75l37.48-64.91Zm-19,112.75H911.12L883.5,103.29l27.62-47.84h55.23L994,103.29Z"/></g></g></svg>