<?xml version="1.0" encoding="UTF-8" standalone="no"?><!DOCTYPE svg PUBLIC "-//W3C//DTD SVG 1.1//EN" "http://www.w3.org/Graphics/SVG/1.1/DTD/svg11.dtd"><svg width="100%" height="100%" viewBox="0 0 4262 1206" version="1.1" xmlns="http://www.w3.org/2000/svg" xmlns:xlink="http://www.w3.org/1999/xlink" xml:space="preserve" xmlns:serif="http://www.serif.com/" style="fill-rule:evenodd;clip-rule:evenodd;stroke-linejoin:round;stroke-miterlimit:2;"><g id="Camada_2"><g id="Camada_1-2"><path d="M599.042,609.208l-343.25,0l-40.833,80.583c-13.361,26.861 -20.042,49.083 -20.042,66.667c0,23.194 10.986,40.292 32.958,51.292c12.889,6.5 44.653,11.375 95.292,14.625l0,22.583l-323.167,0l0,-22.583c34.889,-4.444 63.556,-16.75 86,-36.917c22.444,-20.167 50.222,-61.833 83.333,-125l347.333,-660.458l13.625,0l350.375,678.792c33.333,64.333 60.806,104.833 82.417,121.5c16.25,12.639 39.181,19.958 68.792,21.958l0,22.583l-470.083,0l0,-22.583l19.333,0c37.75,0 64.264,-4.472 79.542,-13.417c10.039,-5.706 16.116,-16.542 15.75,-28.083c-0.029,-7.716 -1.44,-15.365 -4.167,-22.583c-0.944,-3.667 -8.111,-18.944 -21.5,-45.833l-51.708,-103.125Zm-24.375,-45.167l-144.75,-284.875l-149.042,284.875l293.792,0Z" style="fill-rule:nonzero;"/><path d="M2340.25,17.083l0,22.583c-16.069,0.644 -31.766,5.039 -45.833,12.833c-13.516,8.394 -24.82,19.913 -32.958,33.583c-2.778,4.861 -17.833,36.403 -45.167,94.625l-304.542,683.042l-27.917,0l-240.792,-533.333l-265.125,533.333l-26.5,0l-319.583,-675.75c-32.5,-67.944 -55.194,-109.042 -68.083,-123.292c-12.889,-14.25 -34.625,-22.583 -65.208,-25l0,-22.625l421.333,0l0,22.583c-33.917,0.833 -56.486,5.208 -67.708,13.125c-11.222,7.917 -16.778,17.792 -16.667,29.625c0,15.444 11.708,48.208 35.125,98.292l190.583,401.667l152.625,-313.792l-40.125,-87.875c-21.944,-48.028 -38.903,-80.083 -50.875,-96.167c-10.545,-14.922 -24.81,-26.831 -41.375,-34.542c-15.417,-6.889 -38.222,-10.333 -68.417,-10.333l0,-22.583l470.833,0l0,22.583c-32.972,0.417 -56.583,2.653 -70.833,6.708c-9.135,2.318 -17.367,7.327 -23.625,14.375c-5.596,6.298 -8.67,14.45 -8.625,22.875c0,9.389 10.75,38.083 32.25,86.083l177,391.875l158.333,-354.625c16.667,-36.639 26.931,-61.639 30.792,-75c3.627,-12.092 5.562,-24.627 5.75,-37.25c0.494,-15.683 -7.098,-30.568 -20.083,-39.375c-13.361,-9.528 -38.917,-14.722 -76.667,-15.583l0,-22.667l252.083,0Z" style="fill-rule:nonzero;"/><path d="M3279.167,17.083l0,224.042l-25.792,0c-15.278,-51.667 -32.236,-88.806 -50.875,-111.417c-18.639,-22.611 -44.194,-40.667 -76.667,-54.167c-18.167,-7.333 -49.944,-11 -95.333,-11l-72.583,0l0,638.667c0,42.333 2.778,68.722 8.333,79.167c5.556,10.444 16.306,19.708 32.25,27.792c16,7.917 37.861,11.875 65.583,11.875l32.25,0l0,22.583l-508.833,0l0,-22.583l32.25,0c28.194,0 50.889,-4.264 68.083,-12.792c12.74,-6.14 23.026,-16.427 29.167,-29.167c5.25,-9.75 7.875,-35.389 7.875,-76.917l0,-638.458l-70.042,-0c-65.444,0 -112.972,11.806 -142.583,35.417c-41.5,32.972 -67.806,79.972 -78.917,141l-27.208,0l0,-224.042l873.042,-0Z" style="fill-rule:nonzero;"/><path d="M1381.958,1203.417l-69.458,0l0,-160.333l190.708,0l0,27.75l-121.25,0l0,41.667l112.875,0l0,27.75l-112.875,0l0,63.167Z" style="fill-rule:nonzero;"/><path d="M1667.833,1078.5c20.442,-0.329 40.847,1.868 60.75,6.542c14.441,3.087 27.94,9.572 39.375,18.917c8.906,7.5 14,18.608 13.875,30.25l0,16.25l-164.083,0c0.75,9.417 6.625,16.819 17.625,22.208c11,5.389 26.278,8.069 45.833,8.042c14.91,0.08 29.811,-0.727 44.625,-2.417c14.005,-1.674 27.913,-4.08 41.667,-7.208l0,25.875c-13.008,3.057 -26.203,5.256 -39.5,6.583c-13.722,1.389 -30.389,2.083 -50,2.083c-22.755,0.276 -45.468,-2.017 -67.708,-6.833c-16.806,-3.236 -32.62,-10.373 -46.167,-20.833c-10.724,-8.442 -16.898,-21.437 -16.667,-35.083c-0.329,-13.541 5.185,-26.59 15.125,-35.792c12.074,-10.571 26.598,-17.961 42.25,-21.5c20.608,-5.059 41.783,-7.44 63,-7.083Zm0.458,23.833c-11.515,-0.385 -22.977,1.748 -33.583,6.25c-8.244,3.333 -14.112,10.823 -15.375,19.625l97.333,0c-0.144,-4.969 -2.136,-9.71 -5.583,-13.292c-4.429,-4.382 -9.91,-7.553 -15.917,-9.208c-8.738,-2.47 -17.798,-3.608 -26.875,-3.375Z" style="fill-rule:nonzero;"/><path d="M1980.292,1078.5c3.5,0 7.542,0 12.208,0.292c4.667,0.292 8.333,0.417 11.25,0.708l-5.25,31.375c-3.203,-0.467 -6.431,-0.745 -9.667,-0.833c-4.167,-0 -7.75,-0.25 -10.792,-0.25c-8.72,-0.016 -17.433,0.527 -26.083,1.625c-7.771,0.884 -15.417,2.646 -22.792,5.25c-5.933,1.979 -11.345,5.269 -15.833,9.625c-3.831,3.904 -5.922,9.198 -5.792,14.667l0,62.5l-69.25,0l0,-122.625l52.583,0l10.208,20.583l3.417,0c5.757,-4.595 12.07,-8.445 18.792,-11.458c8.241,-3.705 16.861,-6.5 25.708,-8.333c10.29,-2.15 20.78,-3.197 31.292,-3.125Z" style="fill-rule:nonzero;"/><path d="M2191.958,1078.5c3.5,0 7.542,0 12.167,0.292c4.625,0.292 8.333,0.417 11.292,0.708l-5.25,31.375c-3.203,-0.467 -6.431,-0.745 -9.667,-0.833c-4.167,-0 -7.792,-0.25 -10.792,-0.25c-8.72,-0.016 -17.433,0.527 -26.083,1.625c-7.718,0.924 -15.307,2.713 -22.625,5.333c-5.937,1.97 -11.351,5.261 -15.833,9.625c-3.831,3.904 -5.922,9.198 -5.792,14.667l0,62.5l-69.375,0l0,-122.708l52.583,0l10.208,20.583l3.417,0c5.749,-4.606 12.065,-8.456 18.792,-11.458c8.241,-3.705 16.861,-6.5 25.708,-8.333c10.276,-2.147 20.752,-3.194 31.25,-3.125Z" style="fill-rule:nonzero;"/><path d="M2365.833,1078.292c34.167,0 60.347,3.583 78.542,10.75c18.194,7.167 27.292,18.056 27.292,32.667l0,81.708l-48.458,0l-13.417,-16.667l-1.833,0c-7.077,4.275 -14.54,7.874 -22.292,10.75c-8.485,2.998 -17.274,5.052 -26.208,6.125c-11.929,1.456 -23.941,2.124 -35.958,2c-13.572,0.137 -27.117,-1.26 -40.375,-4.167c-10.247,-2.003 -19.881,-6.384 -28.125,-12.792c-6.618,-5.305 -10.409,-13.395 -10.25,-21.875c0,-13 9.486,-22.597 28.458,-28.792c18.972,-6.194 47.431,-9.611 85.375,-10.25l44.125,-0.667l0,-5.375c-0.034,-6.467 -4.283,-12.205 -10.458,-14.125c-9.334,-3.393 -19.244,-4.922 -29.167,-4.5c-12.113,-0.013 -24.212,0.822 -36.208,2.5c-11.833,1.722 -23.667,3.847 -35.5,6.375l-22.958,-22.583c14.936,-3.676 30.092,-6.39 45.375,-8.125c17.275,-1.994 34.652,-2.982 52.042,-2.958Zm36.875,68.333l-26.833,0.417c-22.472,0.278 -38.069,2.222 -46.792,5.833c-8.722,3.611 -13.083,8.319 -13.083,14.125c0,5.125 3.125,8.75 9.333,10.917c7.893,2.407 16.127,3.505 24.375,3.25c12.795,0.33 25.533,-1.836 37.5,-6.375c10.208,-4.167 15.333,-10.25 15.333,-18.083l0.167,-10.083Z" style="fill-rule:nonzero;"/><path d="M2841.958,1078.5c28.833,0 50.653,3.569 65.458,10.708c13.802,5.634 22.68,19.352 22.167,34.25l0,79.958l-69.625,0l0,-71.625c0.465,-7.76 -3.057,-15.245 -9.333,-19.833c-6.208,-4.458 -15.875,-6.667 -28.917,-6.667c-18.333,0 -31.417,3.125 -39.125,9.458c-7.928,6.717 -12.24,16.794 -11.625,27.167l0,61.5l-69.417,0l0,-71.625c0.15,-5.2 -1.305,-10.322 -4.167,-14.667c-3.105,-4.223 -7.489,-7.336 -12.5,-8.875c-6.991,-2.192 -14.302,-3.192 -21.625,-2.958c-10.327,-0.417 -20.64,1.154 -30.375,4.625c-6.693,2.563 -12.263,7.423 -15.708,13.708c-3.299,6.926 -4.899,14.54 -4.667,22.208l0,57.667l-69.375,0l0,-122.667l53.042,0l9.333,15.667l3.875,0c5.803,-4.591 12.398,-8.079 19.458,-10.292c8.404,-2.77 17.055,-4.723 25.833,-5.833c25.35,-3.182 51.044,-2.324 76.125,2.542c10.944,1.976 21.226,6.645 29.917,13.583l6.167,0c9.466,-7.112 20.52,-11.817 32.208,-13.708c14.111,-2.871 28.475,-4.309 42.875,-4.292Z" style="fill-rule:nonzero;"/><path d="M3105.75,1078.5c20.498,-0.339 40.959,1.858 60.917,6.542c14.426,3.094 27.91,9.579 39.333,18.917c8.931,7.485 14.043,18.598 13.917,30.25l0,16.25l-164.25,0c0.778,9.417 6.667,16.819 17.667,22.208c11,5.389 26.278,8.069 45.833,8.042c14.91,0.081 29.811,-0.726 44.625,-2.417c14.005,-1.678 27.912,-4.085 41.667,-7.208l0,25.875c-13.01,3.05 -26.204,5.25 -39.5,6.583c-13.889,1.389 -30.556,2.083 -50,2.083c-22.755,0.28 -45.468,-2.013 -67.708,-6.833c-16.818,-3.238 -32.646,-10.374 -46.208,-20.833c-10.729,-8.438 -16.904,-21.436 -16.667,-35.083c-0.329,-13.541 5.185,-26.59 15.125,-35.792c12.058,-10.57 26.568,-17.962 42.208,-21.5c20.622,-5.06 41.811,-7.441 63.042,-7.083Zm0.458,23.833c-11.515,-0.385 -22.977,1.748 -33.583,6.25c-8.228,3.345 -14.078,10.833 -15.333,19.625l97.375,0c-0.129,-4.964 -2.106,-9.706 -5.542,-13.292c-4.445,-4.382 -9.94,-7.552 -15.958,-9.208c-8.764,-2.478 -17.854,-3.616 -26.958,-3.375Z" style="fill-rule:nonzero;"/><path d="M3420.833,1078.5c27.167,0 49.014,3.569 65.542,10.708c16.528,7.139 24.792,18.556 24.792,34.25l0,79.958l-69.5,0l0,-71.625c0.433,-7.88 -3.326,-15.43 -9.875,-19.833c-6.625,-4.458 -16.958,-6.667 -31.083,-6.667c-21.25,0 -35.736,3.472 -43.458,10.417c-7.75,6.917 -11.625,16.958 -11.625,30.042l0,57.667l-69.417,0l0,-122.583l52.958,0l9.333,15.667l3.875,0c6.14,-4.591 13.036,-8.075 20.375,-10.292c8.824,-2.792 17.892,-4.745 27.083,-5.833c10.284,-1.276 20.638,-1.902 31,-1.875Z" style="fill-rule:nonzero;"/><path d="M3689.75,1179.167c7.583,0 15,-0.375 22.208,-1.083c7.208,-0.708 14.375,-1.667 21.5,-2.75l0,25c-9.133,1.929 -18.371,3.32 -27.667,4.167c-11,1.083 -23,1.625 -36.083,1.625c-13.695,0.127 -27.37,-1.074 -40.833,-3.583c-10.399,-1.661 -20.2,-5.966 -28.458,-12.5c-7.036,-6.184 -10.85,-15.272 -10.333,-24.625l0,-59.5l-33.333,0l0,-14.25l38.25,-11.208l20.042,-25.875l44.375,0l0,26.125l71.208,0l0,25l-71.125,0l0,59.125c0.179,4.924 3.574,9.184 8.333,10.458c6.984,2.705 14.429,4.021 21.917,3.875Z" style="fill-rule:nonzero;"/><path d="M3889.125,1078.292c34.139,0 60.319,3.583 78.542,10.75c18.222,7.167 27.319,18.056 27.292,32.667l0,81.708l-48.458,0l-13.458,-16.667l-1.792,0c-7.091,4.275 -14.568,7.874 -22.333,10.75c-8.469,3.003 -17.245,5.058 -26.167,6.125c-11.929,1.454 -23.941,2.122 -35.958,2c-13.572,0.14 -27.117,-1.258 -40.375,-4.167c-10.247,-2.003 -19.881,-6.384 -28.125,-12.792c-6.618,-5.305 -10.409,-13.395 -10.25,-21.875c0,-13 9.486,-22.597 28.458,-28.792c18.972,-6.194 47.417,-9.611 85.333,-10.25l44.167,-0.667l0,-5.375c-0.034,-6.467 -4.283,-12.205 -10.458,-14.125c-9.334,-3.393 -19.244,-4.922 -29.167,-4.5c-12.113,-0.013 -24.212,0.822 -36.208,2.5c-11.833,1.722 -23.667,3.847 -35.5,6.375l-23,-22.583c14.95,-3.676 30.12,-6.39 45.417,-8.125c17.275,-1.996 34.652,-2.984 52.042,-2.958Zm36.875,68.333l-26.875,0.417c-22.472,0.278 -38.056,2.222 -46.75,5.833c-8.694,3.611 -13.056,8.319 -13.083,14.125c0,5.125 3.083,8.75 9.333,10.917c7.879,2.404 16.099,3.502 24.333,3.25c12.796,0.338 25.535,-1.828 37.5,-6.375c10.25,-4.167 15.375,-10.25 15.375,-18.083l0.167,-10.083Z" style="fill-rule:nonzero;"/><path d="M4243.958,1167c-0.186,8.647 -4.78,16.625 -12.167,21.125c-8.139,5.75 -20.25,10.097 -36.333,13.042c-19.856,3.262 -39.963,4.754 -60.083,4.458c-17.75,0 -32.958,-0.583 -45.833,-1.667c-12.868,-1.118 -25.665,-2.94 -38.333,-5.458l0,-27.667c13.889,3 28.722,5.472 44.5,7.417c13.817,1.813 27.732,2.787 41.667,2.917c9.812,0.451 19.638,-0.531 29.167,-2.917c5.833,-1.917 8.792,-4.458 8.792,-7.625c-0.185,-2.319 -1.515,-4.4 -3.542,-5.542c-4.757,-2.557 -9.848,-4.437 -15.125,-5.583c-7.75,-2.083 -19.889,-4.861 -36.417,-8.333c-13.252,-2.528 -26.355,-5.783 -39.25,-9.75c-8.324,-2.287 -16.085,-6.274 -22.792,-11.708c-4.858,-4.341 -7.559,-10.613 -7.375,-17.125c-0,-11.333 9.139,-19.875 27.417,-25.625c18.278,-5.75 42.75,-8.625 73.417,-8.625c15.086,-0.028 30.164,0.75 45.167,2.333c14.875,1.617 29.648,4.066 44.25,7.333l-20.833,24.125c-12.611,-2.611 -24.486,-4.764 -35.625,-6.458c-11.266,-1.709 -22.646,-2.559 -34.042,-2.542c-7.705,-0.238 -15.411,0.433 -22.958,2c-5.167,1.306 -7.75,3.306 -7.75,6c0,2 1.333,3.75 4.167,5.292c4.945,2.309 10.149,4.015 15.5,5.083c7.667,1.889 18.931,4.278 33.792,7.167c14.417,2.875 26.917,5.833 37.5,8.958c8.846,2.248 17.188,6.15 24.583,11.5c5.57,4.219 8.758,10.891 8.542,17.875Z" style="fill-rule:nonzero;"/><path d="M3771.417,738.667l-178.042,-308.292l178.042,-308.333l313.25,-0l-61.292,-106.167l-478.583,0l-239.333,414.5l239.333,414.458l478.583,0l61.292,-106.167l-313.25,0Z" style="fill:#e30613;fill-rule:nonzero;"/><path d="M4105.542,159.917l-312.5,0l-156.125,270.458l156.125,270.458l312.5,0l156.167,-270.458l-156.167,-270.458Zm-79.167,469.792l-230.042,0l-115.083,-199.333l115.083,-199.333l230.125,0l115.208,199.333l-115.292,199.333Z" style="fill-rule:nonzero;"/></g></g></svg>