<svg xmlns="http://www.w3.org/2000/svg" viewBox="0 0 894.46 315.26"><defs><style>.cls-1{fill:#e84e1b;}.cls-2{fill:#fff;}</style></defs><g id="Camada_2" data-name="Camada 2"><g id="Camada_1-2" data-name="Camada 1"><path class="cls-1" d="M649.32,315.26,462.5,134.46a2.46,2.46,0,0,1,1.77-4.22l78.47,1.91a5.41,5.41,0,0,0,3.86-9.32L424.55,6.45A23.33,23.33,0,0,0,398.2,2.37h0a13.41,13.41,0,0,0-7.52,12h0a25.48,25.48,0,0,0,7,17.52l61.43,64.9h-48a14.27,14.27,0,0,0-14.28,14.27h0a27.11,27.11,0,0,0,10.78,21.64L649.32,315.26"/><path class="cls-2" d="M487.47,81.4,421.38,15.31a6.19,6.19,0,0,0-8.58-.17h0a5.66,5.66,0,0,0,.38,8.62Z"/><path class="cls-2" d="M523.82,207.59l-81.34-85.82a9.4,9.4,0,0,0-12.47-1l-.77.57a6.09,6.09,0,0,0-.17,9.6Z"/><path d="M531.86,125.64c-3.19-9.31,1-15.44,11-15.44h16.43c7.84,0,12.75,3.67,15,11.27l16.43,55.89c2.45,8.09,4.66,21.82,4.66,21.82h.49s2.2-13.48,4.65-21.82l16.18-55.89c2.21-7.6,7.11-11.27,15-11.27h16.91c9.81,0,14.22,6.13,11,15.44L625.5,225.41c-2.45,7.6-7.36,11-15.2,11H581.62c-7.85,0-12.75-3.43-15.2-11Z"/><path d="M119.87,61.17H104.43C95.6,61.17,91,65.83,91,74.65v39.47c0,3.19.24,5.64.24,5.64H90.7s-7.6-12.5-33.09-12.5C24,107.26,0,133.24,0,173.2c0,39.22,22.55,66.19,56.87,66.19a48.62,48.62,0,0,0,12.66-1.62l11.62-25,12.39-26.59L93.69,215l0,6h.17s-.09.48-.17.95l0,3.54c.5,7.2,5.06,10.95,13.38,10.95h12.75c8.83,0,13.49-4.65,13.49-13.48V74.65C133.36,65.83,128.7,61.17,119.87,61.17ZM67.41,204.33c-14.71,0-24.76-12.26-24.76-31.13,0-19.37,11.52-30.15,24.76-30.15,16.67,0,24.76,14.95,24.76,30.15C92.17,195,80.16,204.33,67.41,204.33Z"/><path d="M370.57,107.26a49,49,0,0,0-21.49,4.58l3.43,0-12.24,26.59L328,165l-.15-28.73-.11-21.37c-2.15-3.06-5.74-4.68-10.88-4.68H303.16c-8.82,0-13.48,4.65-13.48,13.48V223c0,8.83,4.66,13.48,13.48,13.48h15.45c8.82,0,13.48-4.65,13.48-13.48V179.33c0-17.9,8.58-33.59,27.46-33.59,9.31,0,14,4.9,14,16.67V223c0,8.83,4.66,13.48,13.48,13.48h15.44c8.83,0,13.49-4.65,13.49-13.48V154.57C415.93,119,396.07,107.26,370.57,107.26Z"/><path d="M882.93,109a24.78,24.78,0,0,0-11.2,2.84h1.65l-12.23,26.59L848.91,165l-.15-28.73-.09-17.64c-1.56-5.5-5.87-8.41-12.8-8.41H822.14c-8.82,0-13.48,4.65-13.48,13.48V223c0,8.83,4.66,13.48,13.48,13.48h15.44c8.83,0,13.49-4.65,13.49-13.48V187.42c0-20.6,9.8-37.75,29.91-37.75,8.82,0,13.48-4.66,13.48-13.49V122.45C894.46,113.63,891.52,109,882.93,109Z"/><path d="M218.84,107.26c-40.69,0-65.7,28.92-65.7,65.94,0,33.58,24.27,66.19,69.38,66.19a88.93,88.93,0,0,0,21.08-2.54l13.84-24.09,7.35-12.8c-4-4.58-9.11-4.8-15.8-1.76a52.41,52.41,0,0,1-23,5.89c-13.48,0-26.23-7.11-29.42-22.56H263a14.49,14.49,0,0,0,14.21-14C277.18,133.73,256.35,107.26,218.84,107.26Zm-21.33,50c2.21-10,8.09-18.87,20.35-18.87,10.79,0,17.4,8.58,17.4,18.87Z"/><path d="M724.72,107.62c-40.69,0-65.7,28.93-65.7,65.95,0,33.58,24.27,66.18,69.38,66.18a89,89,0,0,0,21.08-2.53l13.84-24.09,7.35-12.81c-3.95-4.58-9.11-4.79-15.8-1.75a52.4,52.4,0,0,1-23,5.88c-13.48,0-26.23-7.11-29.42-22.55h66.43a14.49,14.49,0,0,0,14.22-14C783.06,134.1,762.23,107.62,724.72,107.62Zm-21.33,50c2.21-10,8.09-18.87,20.35-18.87,10.79,0,17.4,8.58,17.4,18.87Z"/><path d="M217.56,296.65a36.59,36.59,0,0,1-10.31-1.44,24.15,24.15,0,0,1-7.94-3.74l3.52-7.82a25.69,25.69,0,0,0,6.82,3.37,25.21,25.21,0,0,0,8,1.31,16.51,16.51,0,0,0,5-.61,5.85,5.85,0,0,0,2.78-1.7,3.78,3.78,0,0,0,.9-2.49,3.37,3.37,0,0,0-1.41-2.85,11.33,11.33,0,0,0-3.71-1.73q-2.31-.68-5.1-1.28t-5.57-1.51a23.84,23.84,0,0,1-5.09-2.3,11.37,11.37,0,0,1-3.74-3.72,11,11,0,0,1-1.45-5.89,12.48,12.48,0,0,1,2.09-7,14.17,14.17,0,0,1,6.27-5.06,25.71,25.71,0,0,1,10.54-1.89,35.32,35.32,0,0,1,8.32,1,24.43,24.43,0,0,1,7.24,3l-3.21,7.88a27.18,27.18,0,0,0-6.27-2.66,22.94,22.94,0,0,0-6.15-.87,14.49,14.49,0,0,0-4.93.71,5.83,5.83,0,0,0-2.75,1.82,4.23,4.23,0,0,0-.83,2.6,3.29,3.29,0,0,0,1.4,2.78,11.09,11.09,0,0,0,3.72,1.7c1.53.43,3.23.85,5.09,1.28s3.71.92,5.57,1.47a21.73,21.73,0,0,1,5.09,2.25,11.18,11.18,0,0,1,3.75,3.71,10.84,10.84,0,0,1,1.44,5.83,12.09,12.09,0,0,1-2.12,6.91,14.66,14.66,0,0,1-6.3,5.06A25.53,25.53,0,0,1,217.56,296.65Z"/><path d="M279.42,296.65a27.08,27.08,0,0,1-9.83-1.73,23.13,23.13,0,0,1-7.81-4.86,22.24,22.24,0,0,1-5.13-7.37,24.26,24.26,0,0,1,0-18.44,22,22,0,0,1,5.16-7.36,23.49,23.49,0,0,1,7.81-4.87,28.34,28.34,0,0,1,19.5,0,23.23,23.23,0,0,1,7.75,4.87A23.38,23.38,0,0,1,302,282.72a22.17,22.17,0,0,1-5.15,7.37,23.62,23.62,0,0,1-7.75,4.83A26.42,26.42,0,0,1,279.42,296.65Zm-.07-8.83a14.65,14.65,0,0,0,5.54-1,13.19,13.19,0,0,0,4.45-2.94,13.51,13.51,0,0,0,3-4.55,16.56,16.56,0,0,0,0-11.66,13.73,13.73,0,0,0-2.94-4.54,13,13,0,0,0-4.46-3,14.88,14.88,0,0,0-5.57-1,14.72,14.72,0,0,0-5.54,1,13.35,13.35,0,0,0-7.42,7.49,16.48,16.48,0,0,0,0,11.63,13.65,13.65,0,0,0,2.94,4.58,12.81,12.81,0,0,0,4.45,2.94A15,15,0,0,0,279.35,287.82Z"/><path d="M325.65,295.88V251.06H336v36.37H358.5v8.45Z"/><path d="M378.29,295.88V251.06h20.36a28.55,28.55,0,0,1,12.88,2.78,21.27,21.27,0,0,1,8.7,7.78,23.87,23.87,0,0,1,0,23.67,21.2,21.2,0,0,1-8.7,7.81,28.42,28.42,0,0,1-12.88,2.78Zm10.37-8.51h9.48a16.81,16.81,0,0,0,7.78-1.7,12.25,12.25,0,0,0,5.12-4.83,15.8,15.8,0,0,0,0-14.76,12.32,12.32,0,0,0-5.12-4.81,16.81,16.81,0,0,0-7.78-1.69h-9.48Z"/><path d="M438.61,295.88l20-44.82h10.25l20,44.82H478l-16.4-39.57h4.1l-16.46,39.57Zm10-9.6,2.76-7.88h23.05l2.82,7.88Z"/><path d="M522.24,296.65a36.64,36.64,0,0,1-10.31-1.44,24.35,24.35,0,0,1-7.94-3.74l3.53-7.82a25.69,25.69,0,0,0,6.82,3.37,25.16,25.16,0,0,0,8,1.31,16.43,16.43,0,0,0,5-.61,5.84,5.84,0,0,0,2.79-1.7,3.82,3.82,0,0,0,.89-2.49,3.37,3.37,0,0,0-1.41-2.85,11.24,11.24,0,0,0-3.71-1.73c-1.54-.45-3.23-.88-5.09-1.28s-3.71-.91-5.57-1.51a23.4,23.4,0,0,1-5.09-2.3,11.3,11.3,0,0,1-3.75-3.72,11,11,0,0,1-1.44-5.89,12.48,12.48,0,0,1,2.08-7,14.2,14.2,0,0,1,6.28-5.06,25.63,25.63,0,0,1,10.53-1.89,35.41,35.41,0,0,1,8.33,1,24.26,24.26,0,0,1,7.23,3l-3.2,7.88a27.06,27.06,0,0,0-6.28-2.66,22.92,22.92,0,0,0-6.14-.87,14.49,14.49,0,0,0-4.93.71,5.92,5.92,0,0,0-2.76,1.82,4.29,4.29,0,0,0-.83,2.6,3.3,3.3,0,0,0,1.41,2.78,11.12,11.12,0,0,0,3.71,1.7c1.54.43,3.24.85,5.09,1.28s3.72.92,5.58,1.47a21.91,21.91,0,0,1,5.09,2.25,11.24,11.24,0,0,1,3.74,3.71,10.84,10.84,0,0,1,1.44,5.83,12.08,12.08,0,0,1-2.11,6.91,14.69,14.69,0,0,1-6.31,5.06A25.5,25.5,0,0,1,522.24,296.65Z"/></g></g></svg>