<?xml version="1.0" encoding="UTF-8" standalone="no"?><!DOCTYPE svg PUBLIC "-//W3C//DTD SVG 1.1//EN" "http://www.w3.org/Graphics/SVG/1.1/DTD/svg11.dtd"><svg width="100%" height="100%" viewBox="0 0 3987 1430" version="1.1" xmlns="http://www.w3.org/2000/svg" xmlns:xlink="http://www.w3.org/1999/xlink" xml:space="preserve" xmlns:serif="http://www.serif.com/" style="fill-rule:evenodd;clip-rule:evenodd;stroke-linejoin:round;stroke-miterlimit:2;"><g id="layer1"><g id="g4899"><rect id="path4494" x="306.524" y="306.324" width="3373.328" height="63.958" style="fill-rule:nonzero;"/><rect id="path4496" x="306.524" y="1058.137" width="3373.203" height="63.927" style="fill-rule:nonzero;"/><path id="path4500" d="M3168.092,402.339l511.791,0l0,176.033l-138.726,0l0,446.373l-234.866,0l0,-446.373l-138.198,0l0,-176.033" style="fill-rule:nonzero;"/><path id="path4504" d="M2816.15,402.339l0,622.405l426.461,0l0,-185.507l-191.968,0l0,-436.898l-234.493,0" style="fill-rule:nonzero;"/><path id="path4508" d="M2335.888,402.246l257.635,0l197.497,622.499l-229.461,0l-23.515,-94.742l-143.883,0l-21.371,94.742l-239.556,0l202.654,-622.499Zm90.269,389.279l79.925,0l-39.046,-181.251l-40.879,181.251" style="fill-rule:nonzero;"/><path id="path4512" d="M2212.227,402.246l-229.212,0l-63.958,303.919l-69.363,-303.919l-202.623,0l-65.356,303.919l-62.56,-303.919l-228.933,0l171.125,622.499l212.532,0l71.476,-303.732l73.339,303.732l217.657,0l175.878,-622.53" style="fill-rule:nonzero;"/><path id="path4516" d="M952.755,535.536l341.442,0l0,128.103l-165.254,0l0,53.148l143.883,0l0,128.134l-143.883,0l0,53.117l165.254,0l0,126.705l-341.442,0l0,-489.208" style="fill-rule:nonzero;"/><path id="path4520" d="M306.679,1024.745l0,-622.499l291.587,0c172.212,0 309.137,93.779 309.137,312.523c0,212.873 -132.576,309.976 -310.255,309.976l-290.468,0Zm240.706,-186.408c73.867,0 122.667,-31.032 122.667,-125.618c0,-103.843 -48.365,-131.551 -122.201,-131.551l-18.855,0l0,257.169l18.389,0" style="fill-rule:nonzero;"/><path id="path4524" d="M3572.902,972.901c0,-29.261 23.732,-50.85 51.782,-50.85c27.801,0 51.533,21.589 51.533,50.85c0,29.541 -23.732,51.129 -51.533,51.129c-28.05,0 -51.782,-21.589 -51.782,-51.129Zm51.782,42.649c23.08,0 41.282,-18.079 41.282,-42.649c0,-24.136 -18.203,-42.339 -41.282,-42.339c-23.297,0 -41.531,18.203 -41.531,42.339c0,24.571 18.234,42.649 41.531,42.649Zm-9.94,-36.002l8.356,0l11.12,18.762l12.705,0l-13.077,-19.538c8.822,-1.087 14.848,-6.523 14.848,-17.24c0,-8.977 -7.051,-15.625 -21.216,-15.625l-22.489,0l0,52.403l9.754,0l0,-18.762Zm0,-8.791l0,-16.836l11.369,0c6.337,0 13.481,0.404 13.481,8.138c0,8.822 -5.778,8.698 -13.512,8.698l-11.338,0" style="fill-rule:nonzero;"/></g></g></svg>