<svg xmlns="http://www.w3.org/2000/svg" viewBox="0 0 1051.16 273.14"><defs><style>.cls-1{fill:#fff;}.cls-2{fill:#e30613;}</style></defs><g id="Camada_2" data-name="Camada 2"><g id="Camada_1-2" data-name="Camada 1"><path d="M0,200.7v-5.42H7.74q10.14,0,15.56-2.71a18,18,0,0,0,8-7.4q1.54-3.07,1.55-18.46V36q0-15.24-1.89-19T23.3,10.32Q17.54,7.46,7.74,7.46H0V2H104.39q41.79,0,67.24,9.67,31.13,11.87,47.21,35.89T234.92,102A93.24,93.24,0,0,1,227,140.56q-7.91,17.66-20.46,29.15a100.57,100.57,0,0,1-29,18.46q-16.42,7-40.15,10.77-10.5,1.76-33,1.76ZM88.91,13.32v155c0,8.2.46,13.24,1.38,15.09a9,9,0,0,0,4.64,4.25q4.65,2.19,13.41,2.2,28.72,0,43.86-16.7,20.63-22.56,20.63-70,0-38.25-14.1-61.1Q147.56,24.17,130,17.71,117.64,13.18,88.91,13.32Z"/><path d="M598.81,2V7.46a24.62,24.62,0,0,0-11,3.08,24,24,0,0,0-7.91,8.05q-1,1.77-10.83,22.71L496,205.24h-6.71l-57.78-128L367.85,205.24h-6.36L284.79,43.06q-11.7-24.47-16.34-29.59t-15.65-6V2H353.92V7.46q-12.21.3-16.25,3.15c-2.7,1.9-4,4.27-4,7.1q0,5.58,8.42,23.59l45.75,96.4,36.63-75.3L414.8,41.3Q406.88,24,402.59,18.23A25.21,25.21,0,0,0,392.7,10q-5.59-2.49-16.42-2.49V2h113V7.46q-11.86.15-17,1.61a11.29,11.29,0,0,0-5.68,3.44A8.27,8.27,0,0,0,464.5,18q0,3.36,7.74,20.65l42.48,94.06,38-85.12q6-13.18,7.4-18a33,33,0,0,0,1.37-8.94,11,11,0,0,0-4.81-9.45q-4.81-3.43-18.4-3.73V2Z"/><path d="M824.1,2V55.81h-6.2q-5.5-18.62-12.21-26.74t-18.4-13q-6.54-2.64-22.87-2.63H747.05V166.71q0,15.24,2,19t7.74,6.67q5.76,2.87,15.73,2.86h7.74v5.42H658.14v-5.42h7.74q10.14,0,16.34-3.08a15,15,0,0,0,7-7q1.89-3.53,1.89-18.46V13.47H674.31q-23.56,0-34.23,8.49-15,11.87-18.91,33.85h-6.54V2Z"/><path d="M1.55,272.68l9.41-34H35.89l-1.65,5.9H18.64l-2,7.46H31.13L29.46,258H14.92l-2.44,8.77H28.09l-1.65,5.95Z"/><path d="M30.71,272.68,45.3,259.36l-6.85-12.67h9.78l3.5,7.76,7.44-7.76H70l-14.24,13,7.44,12.95H53.23l-3.81-7.95-8.05,7.95Z"/><path d="M82.3,273.14a20.22,20.22,0,0,1-6.42-1,9.69,9.69,0,0,1-4.57-3.07,8.52,8.52,0,0,1-1.69-5.52,18.83,18.83,0,0,1,.76-5.39,16.86,16.86,0,0,1,2.26-4.77,15.79,15.79,0,0,1,3.68-3.8,17.2,17.2,0,0,1,5-2.52,20.77,20.77,0,0,1,6.31-.91,31.15,31.15,0,0,1,5.47.44,26.44,26.44,0,0,1,4.52,1.24l-2.8,5.32c-1.1-.36-2.17-.67-3.23-.93a15.07,15.07,0,0,0-3.6-.4,7.67,7.67,0,0,0-3.85,1,8.82,8.82,0,0,0-2.86,2.55,11.9,11.9,0,0,0-1.79,3.6,13.82,13.82,0,0,0-.61,4,4.52,4.52,0,0,0,.63,2.46,3.79,3.79,0,0,0,1.8,1.51,7,7,0,0,0,2.82.51,16.26,16.26,0,0,0,4.29-.54c1.32-.37,2.68-.82,4.09-1.36v5.72a25.53,25.53,0,0,1-4.61,1.34A28.78,28.78,0,0,1,82.3,273.14Z"/><path d="M113.23,273.14a20.63,20.63,0,0,1-7-1.1,10.2,10.2,0,0,1-4.74-3.34,9,9,0,0,1-1.7-5.6,16.61,16.61,0,0,1,1.22-6.29,15.75,15.75,0,0,1,3.64-5.42,17.3,17.3,0,0,1,6-3.79,22.34,22.34,0,0,1,8.21-1.4c3.82,0,6.68.67,8.58,2a6,6,0,0,1,2.85,5.1A6.21,6.21,0,0,1,129,257a9.57,9.57,0,0,1-3.65,2.87,22.79,22.79,0,0,1-6.12,1.84,51.91,51.91,0,0,1-8.65.64h-1.56c0,.18,0,.35,0,.49s0,.29,0,.46a4,4,0,0,0,1.58,3.32,7.11,7.11,0,0,0,4.48,1.24,23.56,23.56,0,0,0,4.88-.47,41.38,41.38,0,0,0,5.18-1.53v5.27a31.29,31.29,0,0,1-5.45,1.5A36,36,0,0,1,113.23,273.14Zm-3.17-15.5h1.37a23.1,23.1,0,0,0,5.74-.58,7.53,7.53,0,0,0,3.23-1.54,2.79,2.79,0,0,0,1-2.06,1.86,1.86,0,0,0-.84-1.67,4.32,4.32,0,0,0-2.36-.54,7.73,7.73,0,0,0-3.38.81,9.31,9.31,0,0,0-3,2.25A8.44,8.44,0,0,0,110.06,257.64Z"/><path d="M132.91,272.68,143,236.51h9.17l-10.06,36.17Z"/><path d="M166.52,273.14a20.61,20.61,0,0,1-7-1.1,10.2,10.2,0,0,1-4.74-3.34,8.93,8.93,0,0,1-1.71-5.6,16.8,16.8,0,0,1,1.22-6.29,15.89,15.89,0,0,1,3.64-5.42,17.44,17.44,0,0,1,6-3.79,22.31,22.31,0,0,1,8.21-1.4c3.82,0,6.68.67,8.58,2a6,6,0,0,1,2.84,5.1,6.21,6.21,0,0,1-1.2,3.72,9.53,9.53,0,0,1-3.64,2.87,23,23,0,0,1-6.13,1.84,51.82,51.82,0,0,1-8.65.64h-1.55c0,.18,0,.35,0,.49s0,.29,0,.46a4,4,0,0,0,1.58,3.32,7.11,7.11,0,0,0,4.48,1.24,23.63,23.63,0,0,0,4.88-.47,41.88,41.88,0,0,0,5.18-1.53v5.27a31.15,31.15,0,0,1-5.46,1.5A36,36,0,0,1,166.52,273.14Zm-6.85-29.31v-.58q1.25-.88,2.94-2.13c1.12-.82,2.24-1.68,3.33-2.55a35.52,35.52,0,0,0,2.71-2.36H179a27.64,27.64,0,0,0,1.57,2.39c.62.86,1.27,1.69,1.95,2.5s1.3,1.53,1.85,2.15v.58h-6c-.46-.32-1-.7-1.58-1.14s-1.17-.89-1.75-1.38-1.12-.95-1.6-1.38c-1.22.76-2.4,1.45-3.54,2.08s-2.3,1.23-3.5,1.82Zm3.68,13.81h1.37a23.19,23.19,0,0,0,5.75-.58,7.53,7.53,0,0,0,3.23-1.54,2.79,2.79,0,0,0,1-2.06,1.86,1.86,0,0,0-.84-1.67,4.36,4.36,0,0,0-2.36-.54,7.66,7.66,0,0,0-3.38.81,9.35,9.35,0,0,0-3,2.25A8.69,8.69,0,0,0,163.35,257.64Z"/><path d="M186.21,272.68l7.22-26h7l-.64,4.81h.27a17.05,17.05,0,0,1,2.9-2.74,13.18,13.18,0,0,1,3.52-1.87,12.74,12.74,0,0,1,4.31-.69,11.56,11.56,0,0,1,4.89.92,6.45,6.45,0,0,1,2.94,2.59,7.77,7.77,0,0,1,1,4,11.84,11.84,0,0,1-.18,1.93,19.93,19.93,0,0,1-.52,2.25l-4.05,14.81h-9.17l4.17-15.18a10.78,10.78,0,0,0,.37-1.49,7.53,7.53,0,0,0,.12-1.28,2.68,2.68,0,0,0-.82-2.16,3.77,3.77,0,0,0-2.47-.7,5.85,5.85,0,0,0-3.75,1.36,11.86,11.86,0,0,0-2.91,3.64,25.23,25.23,0,0,0-2,5.05l-3,10.76Z"/><path d="M238.19,273.14a20.16,20.16,0,0,1-6.41-1,9.64,9.64,0,0,1-4.57-3.07,8.52,8.52,0,0,1-1.69-5.52,18.83,18.83,0,0,1,.76-5.39,16.84,16.84,0,0,1,2.25-4.77,16,16,0,0,1,3.69-3.8,17.08,17.08,0,0,1,5-2.52,20.77,20.77,0,0,1,6.31-.91,31,31,0,0,1,5.46.44,26.3,26.3,0,0,1,4.53,1.24l-2.8,5.32c-1.1-.36-2.18-.67-3.23-.93a15.13,15.13,0,0,0-3.6-.4,7.64,7.64,0,0,0-3.85,1,8.86,8.86,0,0,0-2.87,2.55,12.11,12.11,0,0,0-1.78,3.6,13.49,13.49,0,0,0-.61,4,4.61,4.61,0,0,0,.62,2.46,3.89,3.89,0,0,0,1.8,1.51,7,7,0,0,0,2.82.51,16.34,16.34,0,0,0,4.3-.54c1.32-.37,2.68-.82,4.08-1.36v5.72a25.42,25.42,0,0,1-4.6,1.34A29,29,0,0,1,238.19,273.14Z"/><path d="M254,272.68l7.22-26h9.17l-7.22,26Zm13.28-29.22a7.41,7.41,0,0,1-3.27-.65,2.26,2.26,0,0,1-1.33-2.21,3.7,3.7,0,0,1,.66-2.25,3.91,3.91,0,0,1,1.9-1.37,8.57,8.57,0,0,1,3-.47,7.61,7.61,0,0,1,3.18.61,2.18,2.18,0,0,1,1.36,2.18,3.79,3.79,0,0,1-1.34,3A6.27,6.27,0,0,1,267.32,243.46Z"/><path d="M283.81,273.14a11.79,11.79,0,0,1-4.66-.93,8,8,0,0,1-3.58-3,9.63,9.63,0,0,1-1.39-5.48,18.27,18.27,0,0,1,.72-5.07,18.92,18.92,0,0,1,2.07-4.75,17.28,17.28,0,0,1,3.29-4,15.15,15.15,0,0,1,4.39-2.73,14,14,0,0,1,5.31-1,13.26,13.26,0,0,1,3.78.48,8.77,8.77,0,0,1,2.78,1.34,7.42,7.42,0,0,1,1.88,2h.25l1.74-3.33h7.07l-7.26,26h-6.85l.42-3.37h-.24a16.16,16.16,0,0,1-2.65,2,12.87,12.87,0,0,1-3.17,1.34A14.25,14.25,0,0,1,283.81,273.14Zm3.59-5.65a6,6,0,0,0,3.51-1.12,10.41,10.41,0,0,0,2.77-2.94,12.76,12.76,0,0,0,1.65-3.84,13.38,13.38,0,0,0,.35-1.87,18.52,18.52,0,0,0,.1-2,3.6,3.6,0,0,0-1.14-2.73,4.31,4.31,0,0,0-3.12-1.09,5.25,5.25,0,0,0-2.55.67,8.26,8.26,0,0,0-2.21,1.81A12.67,12.67,0,0,0,285,257a13.84,13.84,0,0,0-1.14,3.12,14.32,14.32,0,0,0-.4,3.3,4.15,4.15,0,0,0,1,3.06A3.91,3.91,0,0,0,287.4,267.49Z"/><path d="M340.94,273.14a20.61,20.61,0,0,1-7-1.1,10.2,10.2,0,0,1-4.74-3.34,8.93,8.93,0,0,1-1.7-5.6,16.79,16.79,0,0,1,1.21-6.29,15.92,15.92,0,0,1,3.65-5.42,17.3,17.3,0,0,1,6-3.79,22.31,22.31,0,0,1,8.21-1.4c3.82,0,6.68.67,8.58,2a6,6,0,0,1,2.85,5.1,6.16,6.16,0,0,1-1.21,3.72,9.45,9.45,0,0,1-3.64,2.87,22.79,22.79,0,0,1-6.12,1.84,52,52,0,0,1-8.66.64h-1.55c0,.18,0,.35,0,.49s0,.29,0,.46a4,4,0,0,0,1.58,3.32,7.11,7.11,0,0,0,4.48,1.24,23.56,23.56,0,0,0,4.88-.47,41.38,41.38,0,0,0,5.18-1.53v5.27a31.15,31.15,0,0,1-5.46,1.5A36,36,0,0,1,340.94,273.14Zm-3.17-15.5h1.38a23.1,23.1,0,0,0,5.74-.58,7.53,7.53,0,0,0,3.23-1.54,2.79,2.79,0,0,0,1-2.06,1.86,1.86,0,0,0-.84-1.67,4.34,4.34,0,0,0-2.36-.54,7.7,7.7,0,0,0-3.38.81,9.46,9.46,0,0,0-3,2.25A8.69,8.69,0,0,0,337.77,257.64Z"/><path d="M360.63,272.68l7.22-26h7l-.64,4.81h.27a17.43,17.43,0,0,1,2.9-2.74,13.18,13.18,0,0,1,3.52-1.87,12.78,12.78,0,0,1,4.31-.69,9.1,9.1,0,0,1,5.44,1.41,6.53,6.53,0,0,1,2.54,3.89h.25a16,16,0,0,1,2.89-2.74,13.58,13.58,0,0,1,3.61-1.87,13.23,13.23,0,0,1,4.35-.69q4.26,0,6.38,2a7.18,7.18,0,0,1,2.12,5.46,10.91,10.91,0,0,1-.19,1.93,22.21,22.21,0,0,1-.51,2.25L408,272.68h-9.17l4.21-15.18a12.3,12.3,0,0,0,.36-1.49,7.53,7.53,0,0,0,.12-1.28,2.87,2.87,0,0,0-.74-2.16,3.21,3.21,0,0,0-2.24-.7,5.83,5.83,0,0,0-2.93.77,8.85,8.85,0,0,0-2.44,2.14,15.63,15.63,0,0,0-1.93,3.18,23.69,23.69,0,0,0-1.39,3.91L389,272.68H379.8L384,257.5a14.68,14.68,0,0,0,.37-1.49,7.53,7.53,0,0,0,.12-1.28,2.83,2.83,0,0,0-.75-2.16,3.2,3.2,0,0,0-2.24-.7,5.66,5.66,0,0,0-2.89.79,8.9,8.9,0,0,0-2.44,2.18A16,16,0,0,0,374.2,258a26.24,26.24,0,0,0-1.41,3.89l-3,10.76Z"/><path d="M433.79,272.68l9.42-34H468l-1.64,5.9H450.89l-2.41,8.76h14.41l-1.7,5.88H446.77l-3.68,13.44Z"/><path d="M481.51,273.14a20.61,20.61,0,0,1-7-1.1,10.2,10.2,0,0,1-4.74-3.34,8.93,8.93,0,0,1-1.71-5.6,16.8,16.8,0,0,1,1.22-6.29,15.89,15.89,0,0,1,3.64-5.42,17.44,17.44,0,0,1,6-3.79,22.31,22.31,0,0,1,8.21-1.4c3.82,0,6.68.67,8.58,2a6,6,0,0,1,2.85,5.1,6.22,6.22,0,0,1-1.21,3.72,9.45,9.45,0,0,1-3.64,2.87,23,23,0,0,1-6.12,1.84,52,52,0,0,1-8.66.64h-1.55c0,.18,0,.35,0,.49s0,.29,0,.46a4,4,0,0,0,1.58,3.32,7.11,7.11,0,0,0,4.48,1.24,23.63,23.63,0,0,0,4.88-.47,41.88,41.88,0,0,0,5.18-1.53v5.27a31.15,31.15,0,0,1-5.46,1.5A36,36,0,0,1,481.51,273.14Zm-3.17-15.5h1.37a23.19,23.19,0,0,0,5.75-.58,7.53,7.53,0,0,0,3.23-1.54,2.79,2.79,0,0,0,1-2.06,1.86,1.86,0,0,0-.84-1.67,4.36,4.36,0,0,0-2.36-.54,7.66,7.66,0,0,0-3.38.81,9.35,9.35,0,0,0-3,2.25A8.69,8.69,0,0,0,478.34,257.64Z"/><path d="M501.2,272.68l7.22-26h7l-.64,4.81h.33a16.92,16.92,0,0,1,3-2.83,12.45,12.45,0,0,1,7.62-2.47c.48,0,1,0,1.57.07a10.38,10.38,0,0,1,1.35.19l-2,6.74a11.11,11.11,0,0,0-1.29-.26,13.73,13.73,0,0,0-1.76-.11,10.16,10.16,0,0,0-3.26.52,9.47,9.47,0,0,0-2.86,1.55,10.19,10.19,0,0,0-2.3,2.56,13.29,13.29,0,0,0-1.57,3.6l-3.23,11.62Z"/><path d="M527.46,272.68l7.23-26h7l-.64,4.81h.34a16.58,16.58,0,0,1,3-2.83A12.44,12.44,0,0,1,552,246.2c.49,0,1,0,1.57.07a10.57,10.57,0,0,1,1.36.19l-2,6.74a11.35,11.35,0,0,0-1.3-.26,13.57,13.57,0,0,0-1.75-.11,10.12,10.12,0,0,0-3.26.52,9.36,9.36,0,0,0-2.86,1.55,10,10,0,0,0-2.3,2.56,13,13,0,0,0-1.57,3.6l-3.23,11.62Z"/><path d="M565,273.14a11.87,11.87,0,0,1-4.67-.93,8.05,8.05,0,0,1-3.58-3,9.71,9.71,0,0,1-1.38-5.48,18.26,18.26,0,0,1,.71-5.07,19.67,19.67,0,0,1,2.07-4.75,17.32,17.32,0,0,1,3.3-4,15.1,15.1,0,0,1,4.38-2.73,14.11,14.11,0,0,1,5.32-1,13.36,13.36,0,0,1,3.78.48,8.61,8.61,0,0,1,2.77,1.34,7.62,7.62,0,0,1,1.89,2h.24l1.74-3.33h7.07l-7.25,26h-6.86l.43-3.37h-.24a16.23,16.23,0,0,1-2.66,2,12.79,12.79,0,0,1-3.16,1.34A14.25,14.25,0,0,1,565,273.14Zm3.59-5.65a6,6,0,0,0,3.51-1.12,10.55,10.55,0,0,0,2.77-2.94,12.48,12.48,0,0,0,1.64-3.84,12.07,12.07,0,0,0,.35-1.87,16.25,16.25,0,0,0,.11-2,3.6,3.6,0,0,0-1.14-2.73,4.34,4.34,0,0,0-3.13-1.09,5.21,5.21,0,0,0-2.54.67,8.11,8.11,0,0,0-2.21,1.81,12.67,12.67,0,0,0-1.75,2.63,14.5,14.5,0,0,0-1.54,6.42,4.15,4.15,0,0,0,1,3.06A3.9,3.9,0,0,0,568.57,267.49Z"/><path d="M590.82,272.68l7.22-26h7l-.64,4.81h.27a17.05,17.05,0,0,1,2.9-2.74,13.12,13.12,0,0,1,3.51-1.87,12.79,12.79,0,0,1,4.32-.69,9.12,9.12,0,0,1,5.44,1.41,6.57,6.57,0,0,1,2.54,3.89h.24a16,16,0,0,1,2.9-2.74,13.58,13.58,0,0,1,3.61-1.87,13.21,13.21,0,0,1,4.34-.69c2.85,0,5,.68,6.39,2a7.17,7.17,0,0,1,2.11,5.46,11.84,11.84,0,0,1-.18,1.93,19.93,19.93,0,0,1-.52,2.25l-4,14.81h-9.17l4.2-15.18a10.78,10.78,0,0,0,.37-1.49,7.53,7.53,0,0,0,.12-1.28,2.83,2.83,0,0,0-.75-2.16,3.18,3.18,0,0,0-2.24-.7,5.79,5.79,0,0,0-2.92.77,8.57,8.57,0,0,0-2.44,2.14,15.2,15.2,0,0,0-1.93,3.18,23.69,23.69,0,0,0-1.39,3.91l-2.93,10.81H610l4.18-15.18a12.3,12.3,0,0,0,.36-1.49,7.53,7.53,0,0,0,.12-1.28,2.83,2.83,0,0,0-.74-2.16,3.21,3.21,0,0,0-2.24-.7,5.69,5.69,0,0,0-2.9.79,9,9,0,0,0-2.43,2.18,15.57,15.57,0,0,0-1.94,3.19,26.25,26.25,0,0,0-1.42,3.89l-3,10.76Z"/><path d="M662.36,273.14a20.61,20.61,0,0,1-7-1.1,10.2,10.2,0,0,1-4.74-3.34,8.93,8.93,0,0,1-1.7-5.6,16.79,16.79,0,0,1,1.21-6.29,15.92,15.92,0,0,1,3.65-5.42,17.3,17.3,0,0,1,6-3.79,22.31,22.31,0,0,1,8.21-1.4c3.82,0,6.68.67,8.58,2a6,6,0,0,1,2.85,5.1,6.16,6.16,0,0,1-1.21,3.72,9.45,9.45,0,0,1-3.64,2.87,22.79,22.79,0,0,1-6.12,1.84,52,52,0,0,1-8.66.64h-1.55c0,.18,0,.35-.05.49s0,.29,0,.46a4,4,0,0,0,1.58,3.32,7.11,7.11,0,0,0,4.48,1.24,23.63,23.63,0,0,0,4.88-.47,41.38,41.38,0,0,0,5.18-1.53v5.27a31.15,31.15,0,0,1-5.46,1.5A36,36,0,0,1,662.36,273.14Zm-3.17-15.5h1.38a23.1,23.1,0,0,0,5.74-.58,7.53,7.53,0,0,0,3.23-1.54,2.79,2.79,0,0,0,1-2.06,1.86,1.86,0,0,0-.84-1.67,4.34,4.34,0,0,0-2.36-.54,7.7,7.7,0,0,0-3.38.81,9.46,9.46,0,0,0-3,2.25A8.69,8.69,0,0,0,659.19,257.64Z"/><path d="M682.05,272.68l7.22-26h7l-.64,4.81h.27a17.43,17.43,0,0,1,2.9-2.74,13.34,13.34,0,0,1,3.52-1.87,12.78,12.78,0,0,1,4.31-.69,11.56,11.56,0,0,1,4.89.92,6.45,6.45,0,0,1,2.94,2.59,7.78,7.78,0,0,1,1,4,10.91,10.91,0,0,1-.19,1.93,22.21,22.21,0,0,1-.51,2.25l-4.06,14.81h-9.17l4.18-15.18a12.3,12.3,0,0,0,.36-1.49,7.53,7.53,0,0,0,.12-1.28,2.68,2.68,0,0,0-.82-2.16,3.77,3.77,0,0,0-2.47-.7,5.85,5.85,0,0,0-3.75,1.36,12.16,12.16,0,0,0-2.91,3.64,25.22,25.22,0,0,0-2,5.05l-3,10.76Z"/><path d="M731.11,273.14a13.59,13.59,0,0,1-6.46-1.3c-1.61-.87-2.41-2.43-2.41-4.7a9.23,9.23,0,0,1,.09-1.22,13,13,0,0,1,.28-1.38l3.5-12.53h-4.63l.88-3.41,6-2,4-5.48h5.91l-1.49,5.53h8.62L743.88,252h-8.6l-3.5,12.53a5.63,5.63,0,0,0-.14.69,4,4,0,0,0,0,.54,1.38,1.38,0,0,0,.73,1.33,4.17,4.17,0,0,0,1.95.39,12.35,12.35,0,0,0,2.39-.22c.76-.14,1.61-.34,2.54-.59v5.23a19.48,19.48,0,0,1-3.51.88A26.86,26.86,0,0,1,731.11,273.14Z"/><path d="M756.58,273.14a11.82,11.82,0,0,1-4.66-.93,8.05,8.05,0,0,1-3.58-3,9.71,9.71,0,0,1-1.38-5.48,18.26,18.26,0,0,1,.71-5.07,19.67,19.67,0,0,1,2.07-4.75,17.54,17.54,0,0,1,3.29-4,15.28,15.28,0,0,1,4.39-2.73,14.11,14.11,0,0,1,5.32-1,13.36,13.36,0,0,1,3.78.48,8.71,8.71,0,0,1,2.77,1.34,7.62,7.62,0,0,1,1.89,2h.24l1.74-3.33h7.07l-7.25,26h-6.86l.43-3.37h-.25a15.74,15.74,0,0,1-2.65,2,12.71,12.71,0,0,1-3.17,1.34A14.15,14.15,0,0,1,756.58,273.14Zm3.6-5.65a6,6,0,0,0,3.5-1.12,10.58,10.58,0,0,0,2.78-2.94,12.48,12.48,0,0,0,1.64-3.84,12.07,12.07,0,0,0,.35-1.87,18.42,18.42,0,0,0,.11-2,3.6,3.6,0,0,0-1.14-2.73,4.34,4.34,0,0,0-3.13-1.09,5.21,5.21,0,0,0-2.54.67,8.11,8.11,0,0,0-2.21,1.81,12.67,12.67,0,0,0-1.75,2.63,14.5,14.5,0,0,0-1.54,6.42,4.11,4.11,0,0,0,1,3.06A3.9,3.9,0,0,0,760.18,267.49Z"/><path d="M792.21,273.14a39.4,39.4,0,0,1-5.69-.35,20.65,20.65,0,0,1-4.52-1.16v-5.76a25.94,25.94,0,0,0,4.71,1.54,22.3,22.3,0,0,0,5,.55,11.76,11.76,0,0,0,2.7-.3,5.33,5.33,0,0,0,2.05-.93,1.94,1.94,0,0,0,.79-1.58,1.89,1.89,0,0,0-.39-1.17,5.16,5.16,0,0,0-1.51-1.12,35.26,35.26,0,0,0-3.21-1.5,25.75,25.75,0,0,1-3.59-1.86,7.53,7.53,0,0,1-2.25-2.16,5.13,5.13,0,0,1-.78-2.84,6.79,6.79,0,0,1,1.56-4.54,9.47,9.47,0,0,1,4.46-2.8,22.33,22.33,0,0,1,7-1,31.15,31.15,0,0,1,5.7.51,23.92,23.92,0,0,1,5.37,1.7l-3,5a25.17,25.17,0,0,0-3.83-1.4,15.16,15.16,0,0,0-4-.55A6.38,6.38,0,0,0,796,252a1.74,1.74,0,0,0-1.19,1.65,1.71,1.71,0,0,0,.42,1.11,4.8,4.8,0,0,0,1.45,1q1,.51,2.76,1.2a23.68,23.68,0,0,1,3.67,1.81,8.29,8.29,0,0,1,2.51,2.27,5.15,5.15,0,0,1,.92,3.06,7.29,7.29,0,0,1-1.77,5,10.82,10.82,0,0,1-5,3A25.24,25.24,0,0,1,792.21,273.14Z"/><path d="M828.65,272.68l9.42-34H863l-1.64,5.9h-15.6l-2,7.46h14.54l-1.68,5.9H842l-2.44,8.77h15.6l-1.64,5.95Z"/><path d="M862,272.68l10-36.17h9.18l-10.06,36.17Z"/><path d="M895.6,273.14a20.71,20.71,0,0,1-7-1.1,10.12,10.12,0,0,1-4.73-3.34,8.93,8.93,0,0,1-1.71-5.6,16.8,16.8,0,0,1,1.22-6.29,15.75,15.75,0,0,1,3.64-5.42,17.39,17.39,0,0,1,6-3.79,22.38,22.38,0,0,1,8.21-1.4c3.82,0,6.68.67,8.58,2a6,6,0,0,1,2.85,5.1,6.21,6.21,0,0,1-1.2,3.72,9.61,9.61,0,0,1-3.64,2.87,23,23,0,0,1-6.13,1.84,51.91,51.91,0,0,1-8.65.64h-1.56c0,.18,0,.35,0,.49s0,.29,0,.46a4,4,0,0,0,1.59,3.32,7.09,7.09,0,0,0,4.48,1.24,23.53,23.53,0,0,0,4.87-.47,41.38,41.38,0,0,0,5.18-1.53v5.27a31,31,0,0,1-5.45,1.5A36,36,0,0,1,895.6,273.14Zm-3.17-15.5h1.37a23,23,0,0,0,5.74-.58,7.47,7.47,0,0,0,3.23-1.54,2.79,2.79,0,0,0,1-2.06,1.85,1.85,0,0,0-.83-1.67,4.36,4.36,0,0,0-2.36-.54,7.74,7.74,0,0,0-3.39.81,9.42,9.42,0,0,0-3,2.25A8.44,8.44,0,0,0,892.43,257.64Zm4.14-13.81v-.58c.69-.59,1.44-1.29,2.24-2.1s1.6-1.66,2.38-2.52l2.15-2.42h10.21v.39c-.45.42-1.1,1-1.95,1.6s-1.8,1.31-2.84,2-2.07,1.37-3.09,2-1.94,1.17-2.73,1.6Z"/><path d="M926.65,273.14a13.59,13.59,0,0,1-6.46-1.3c-1.61-.87-2.41-2.43-2.41-4.7a9.23,9.23,0,0,1,.09-1.22,13,13,0,0,1,.28-1.38l3.5-12.53H917l.88-3.41,6-2,4-5.48h5.91l-1.49,5.53h8.62L939.42,252h-8.6l-3.5,12.53a5.63,5.63,0,0,0-.14.69,4,4,0,0,0,0,.54,1.38,1.38,0,0,0,.73,1.33,4.17,4.17,0,0,0,2,.39,12.35,12.35,0,0,0,2.39-.22c.76-.14,1.61-.34,2.54-.59v5.23a19.48,19.48,0,0,1-3.51.88A26.86,26.86,0,0,1,926.65,273.14Z"/><path d="M940.88,272.68l7.22-26h7l-.64,4.81h.34a16.53,16.53,0,0,1,3-2.83,13.05,13.05,0,0,1,3.51-1.83,12.92,12.92,0,0,1,4.11-.64c.49,0,1,0,1.57.07a10.13,10.13,0,0,1,1.35.19l-2,6.74a10.69,10.69,0,0,0-1.29-.26,13.57,13.57,0,0,0-1.75-.11,10.08,10.08,0,0,0-3.26.52,9.41,9.41,0,0,0-2.87,1.55,10.19,10.19,0,0,0-2.3,2.56,13.6,13.6,0,0,0-1.57,3.6l-3.23,11.62Z"/><path d="M967.15,272.68l7.22-26h9.17l-7.22,26Zm13.28-29.22a7.41,7.41,0,0,1-3.27-.65,2.26,2.26,0,0,1-1.33-2.21,3.7,3.7,0,0,1,.66-2.25,3.91,3.91,0,0,1,1.9-1.37,8.57,8.57,0,0,1,3-.47,7.61,7.61,0,0,1,3.18.61,2.19,2.19,0,0,1,1.36,2.18,3.79,3.79,0,0,1-1.34,3A6.27,6.27,0,0,1,980.43,243.46Z"/><path d="M996.92,273.14a11.79,11.79,0,0,1-4.66-.93,8,8,0,0,1-3.58-3,9.63,9.63,0,0,1-1.39-5.48,18.64,18.64,0,0,1,.71-5.07,19.32,19.32,0,0,1,2.08-4.75,17.28,17.28,0,0,1,3.29-4,15.15,15.15,0,0,1,4.39-2.73,14,14,0,0,1,5.31-1,13.31,13.31,0,0,1,3.78.48,8.61,8.61,0,0,1,2.77,1.34,7.3,7.3,0,0,1,1.89,2h.25l1.74-3.33h7.06l-7.25,26h-6.85l.42-3.37h-.24a16.16,16.16,0,0,1-2.65,2,12.87,12.87,0,0,1-3.17,1.34A14.25,14.25,0,0,1,996.92,273.14Zm3.59-5.65a6,6,0,0,0,3.51-1.12,10.55,10.55,0,0,0,2.77-2.94,12.76,12.76,0,0,0,1.65-3.84,13.38,13.38,0,0,0,.35-1.87,18.52,18.52,0,0,0,.1-2,3.6,3.6,0,0,0-1.14-2.73,4.31,4.31,0,0,0-3.12-1.09,5.25,5.25,0,0,0-2.55.67,8.11,8.11,0,0,0-2.21,1.81,12.67,12.67,0,0,0-1.75,2.63,14.5,14.5,0,0,0-1.54,6.42,4.15,4.15,0,0,0,1,3.06A3.9,3.9,0,0,0,1000.51,267.49Z"/><path d="M1032.54,273.14a39.25,39.25,0,0,1-5.68-.35,20.6,20.6,0,0,1-4.53-1.16v-5.76a26.2,26.2,0,0,0,4.71,1.54,22.36,22.36,0,0,0,5,.55,11.63,11.63,0,0,0,2.7-.3,5.38,5.38,0,0,0,2.06-.93,2,2,0,0,0,.79-1.58,1.84,1.84,0,0,0-.4-1.17,4.9,4.9,0,0,0-1.51-1.12,35.26,35.26,0,0,0-3.21-1.5,25.59,25.59,0,0,1-3.58-1.86,7.46,7.46,0,0,1-2.26-2.16,5.2,5.2,0,0,1-.77-2.84,6.78,6.78,0,0,1,1.55-4.54,9.52,9.52,0,0,1,4.46-2.8,22.39,22.39,0,0,1,7-1,31.15,31.15,0,0,1,5.7.51,24,24,0,0,1,5.36,1.7l-3,5a25,25,0,0,0-3.82-1.4,15.24,15.24,0,0,0-4-.55,6.38,6.38,0,0,0-2.68.53,1.76,1.76,0,0,0-1.19,1.65,1.67,1.67,0,0,0,.43,1.11,4.6,4.6,0,0,0,1.44,1q1,.51,2.76,1.2a23.24,23.24,0,0,1,3.67,1.81A8.34,8.34,0,0,1,1046,261a5.15,5.15,0,0,1,.91,3.06,7.29,7.29,0,0,1-1.77,5,10.71,10.71,0,0,1-5,3A25.19,25.19,0,0,1,1032.54,273.14Z"/><polygon class="cls-1" points="994 0 879.69 0 822.53 99 879.69 198 994 198 1051.16 99 994 0"/><polygon points="985.34 15 888.35 15 839.85 99 888.35 183 985.34 183 1033.84 99 985.34 15"/><polygon class="cls-1" points="976.68 30 897.01 30 857.17 99 897.01 168 976.68 168 1016.52 99 976.68 30"/><polygon points="968.02 45 905.67 45 874.49 99 905.67 153 968.02 153 999.2 99 968.02 45"/><polygon class="cls-1" points="959.36 60 914.33 60 891.81 99 914.33 138 959.36 138 981.88 99 959.36 60"/><polygon class="cls-2" points="950.7 75 922.99 75 909.13 99 922.99 123 950.7 123 964.56 99 950.7 75"/></g></g></svg>