<svg xmlns="http://www.w3.org/2000/svg" viewBox="0 0 729.36 131.16"><defs><style>.cls-1{fill:#11baed;}</style></defs><g id="Camada_2" data-name="Camada 2"><g id="Camada_1-2" data-name="Camada 1"><path d="M108,30.62H138V25.18A25.18,25.18,0,0,0,112.8,0H45.43A25.18,25.18,0,0,0,20.25,25.18V38.79H46.79V32a9.56,9.56,0,0,1,9.56-9.56h42.9A8.79,8.79,0,0,1,108,30.62Z"/><path d="M20.25,57.85H47.47v.89A9.56,9.56,0,0,0,57,68.3h44.16a9.57,9.57,0,0,0,9.57-9.56v-.89H67.88V38.79H138V68.05A25.18,25.18,0,0,1,112.8,93.23H45.43A25.18,25.18,0,0,1,20.25,68.05Z"/><rect class="cls-1" y="37.09" width="20.25" height="19.05"/><path d="M226.11,0H189.36L140.87,93.23h31.64l7.66-18h57.17l7.14,18h30.63ZM190.89,54.78,208,25.18l17.1,29.6Z"/><path d="M680.36,0H643.61L595.13,93.23h31.64l7.66-18h57.16l7.15,18h30.62ZM645.14,54.78l17.1-29.6,17.1,29.6Z"/><polygon points="281.74 93.23 281.74 0 322.06 0 353.71 54.78 386.37 0 429.25 0 429.25 93.23 401.68 93.23 401.68 27.22 365.84 93.23 344.01 93.23 307.77 28.75 307.77 93.23 281.74 93.23"/><polygon points="442.01 93.23 442.01 0 482.33 0 513.97 54.78 546.64 0 589.51 0 589.51 93.23 561.95 93.23 561.95 27.22 526.11 93.23 504.27 93.23 468.04 28.75 468.04 93.23 442.01 93.23"/><path class="cls-1" d="M204.41,130.74V101.39h21.42V106h-16v24.78Zm5-11.23v-4.62H224v4.62Z"/><path class="cls-1" d="M231.12,130.74V101.39h21.42V106h-16v20.21h16.56v4.57Zm5-12.66v-4.49h14.59v4.49Z"/><path class="cls-1" d="M259.21,130.74V101.39h12c3.91,0,7,.93,9.2,2.77a9.41,9.41,0,0,1,3.34,7.67,10,10,0,0,1-1.51,5.56A9.61,9.61,0,0,1,278,121a16.34,16.34,0,0,1-6.69,1.24h-9l2.43-2.47v11Zm5.45-10.44-2.43-2.6H271a8.16,8.16,0,0,0,5.43-1.55,5.34,5.34,0,0,0,1.82-4.32,5.25,5.25,0,0,0-1.82-4.31A8.33,8.33,0,0,0,271,106h-8.8l2.43-2.69Zm13.75,10.44L271,120.09h5.83l7.46,10.65Z"/><path class="cls-1" d="M289.86,130.74V101.39h12c3.91,0,7,.93,9.2,2.77a9.41,9.41,0,0,1,3.34,7.67,10,10,0,0,1-1.51,5.56,9.61,9.61,0,0,1-4.3,3.56,16.34,16.34,0,0,1-6.69,1.24h-9.05l2.43-2.47v11Zm5.45-10.44-2.43-2.6h8.8a8.18,8.18,0,0,0,5.43-1.55,5.34,5.34,0,0,0,1.82-4.32,5.25,5.25,0,0,0-1.82-4.31,8.35,8.35,0,0,0-5.43-1.51h-8.8l2.43-2.69Zm13.75,10.44-7.42-10.65h5.83l7.46,10.65Z"/><path class="cls-1" d="M316.35,130.74l13.21-29.35h5.37l13.25,29.35h-5.7l-11.37-26.45h2.18L322,130.74Zm6.08-6.79,1.47-4.28h15.85l1.47,4.28Z"/><path class="cls-1" d="M351.91,130.74V101.39h4.49l12.83,21.43h-2.35l12.62-21.43H384l0,29.35h-5.16l0-21.25h1.09l-10.74,17.9h-2.43l-10.9-17.9h1.26v21.25Z"/><path class="cls-1" d="M392,130.74V101.39h21.43V106h-16v20.21H414v4.57Zm5-12.66v-4.49h14.59v4.49Z"/><path class="cls-1" d="M420,130.74V101.39h4.49L442.94,124h-2.23v-22.6h5.41v29.35h-4.48l-18.41-22.6h2.22v22.6Z"/><path class="cls-1" d="M460,130.74V106h-9.73v-4.62h24.91V106h-9.73v24.73Z"/><path class="cls-1" d="M473.63,130.74l13.21-29.35h5.36l13.25,29.35h-5.7l-11.36-26.45h2.18l-11.32,26.45Zm6.08-6.79,1.46-4.28H497l1.47,4.28Z"/><path class="cls-1" d="M518.28,131.16a22.11,22.11,0,0,1-6.58-1,14.3,14.3,0,0,1-5-2.54l1.89-4.23a15.05,15.05,0,0,0,4.36,2.3,15.63,15.63,0,0,0,5.32.92,11.31,11.31,0,0,0,3.73-.5,4.47,4.47,0,0,0,2.1-1.36,3.06,3.06,0,0,0,.67-2,2.7,2.7,0,0,0-1-2.16,7.11,7.11,0,0,0-2.5-1.3c-1-.32-2.15-.62-3.4-.9s-2.48-.61-3.73-1A15.27,15.27,0,0,1,510.8,116a7.42,7.42,0,0,1-2.5-2.42,7,7,0,0,1-1-3.85,7.85,7.85,0,0,1,1.28-4.38,8.79,8.79,0,0,1,3.9-3.19,16,16,0,0,1,6.64-1.2,20.76,20.76,0,0,1,5.24.68,15.17,15.17,0,0,1,4.53,1.92l-1.72,4.24a16.27,16.27,0,0,0-4.07-1.74,15.23,15.23,0,0,0-4-.57,10.17,10.17,0,0,0-3.67.55,4.45,4.45,0,0,0-2.05,1.42,3.28,3.28,0,0,0-.65,2,2.73,2.73,0,0,0,.94,2.16,6.61,6.61,0,0,0,2.47,1.27c1,.31,2.16.61,3.42.91s2.51.62,3.75,1a15.1,15.1,0,0,1,3.4,1.43,6.9,6.9,0,0,1,2.47,2.39,7,7,0,0,1,.95,3.81,7.89,7.89,0,0,1-1.28,4.34A8.85,8.85,0,0,1,525,130,16.32,16.32,0,0,1,518.28,131.16Z"/></g></g></svg>