<svg xmlns="http://www.w3.org/2000/svg" viewBox="0 0 874.41 103.32"><defs><style>.cls-1{fill:none;stroke:#000;stroke-miterlimit:10;stroke-width:3px;}</style></defs><g id="Camada_2" data-name="Camada 2"><g id="Camada_1-2" data-name="Camada 1"><path d="M849.09,69.62a25.59,25.59,0,0,1,6.5.69,7.68,7.68,0,0,1,3.83,2.1A5.15,5.15,0,0,1,860.67,76a4.52,4.52,0,0,1-.83,2.76,6.59,6.59,0,0,1-2.18,1.89,13.91,13.91,0,0,1-2.89,1.18l8.63,9.66h-5.64l-7.36-8.74h-4.86v8.74h-5V69.62Zm-.33,3h-3.22v7.12H849a10.24,10.24,0,0,0,5-.93,3,3,0,0,0,1.57-2.73,2.75,2.75,0,0,0-1.67-2.67A12.63,12.63,0,0,0,848.76,72.62Z"/><circle class="cls-1" cx="851.97" cy="80.53" r="20.93"/><polygon points="594.12 103.32 594.12 0 691.75 0 691.75 14.01 623.45 14.01 623.45 46.85 680.36 46.85 680.36 58.23 623.01 58.23 623.01 96.76 691.75 96.76 691.75 103.32 594.12 103.32"/><path d="M234.67,103.32s-38.53-74-113.4-74c0,0,97.2-4.81,144.92,74Z"/><path d="M163.74,29.28,178.19,0h38.53l40.72,83.62s-30-34.25-52.1-39.4l-14-27.58L181.69,32Z"/><polygon points="126.53 103.32 158.05 40.28 175.13 47.72 150.83 103.32 126.53 103.32"/><polygon points="433.67 103.32 455.56 103.32 455.56 32.84 500.66 103.32 543.57 32.84 543.57 103.32 575.09 103.32 575.09 0 541.38 0 504.38 55.16 470.45 0 433.67 0 433.67 103.32"/><polygon points="114.71 103.32 114.71 31.52 88.44 27.14 114.71 25.39 114.71 0 84.06 0 84.06 42.91 29.77 42.91 29.77 0 0 0 0 103.32 29.33 103.32 29.33 51.66 83.62 51.66 83.62 103.32 114.71 103.32"/><polygon points="279.76 103.32 301.65 103.32 301.65 32.84 346.75 103.32 389.65 32.84 389.65 103.32 421.18 103.32 421.18 0 387.47 0 350.47 55.16 316.54 0 279.76 0 279.76 103.32"/><path d="M781.06,61.21h14.05a27.1,27.1,0,0,0,27.11-27.1V26.93A26.93,26.93,0,0,0,795.29,0H707.07V103.32H738.4V59.74l43.1,43.11h41.2Zm-41.59-11.3V19.26h39.4a14,14,0,0,1,14,14v2a14.66,14.66,0,0,1-14.66,14.67Z"/></g></g></svg>