<svg xmlns="http://www.w3.org/2000/svg" xmlns:xlink="http://www.w3.org/1999/xlink" viewBox="0 0 309.4 140.4"><defs><style>.cls-1{fill:url(#Gradiente_sem_nome_585);}.cls-2{fill:url(#Gradiente_sem_nome_13);}.cls-3{fill:url(#Gradiente_sem_nome_13-2);}.cls-4{fill:url(#Gradiente_sem_nome_13-3);}.cls-5{fill:url(#Gradiente_sem_nome_13-4);}.cls-6{fill:url(#Gradiente_sem_nome_13-5);}.cls-7{fill:url(#Gradiente_sem_nome_13-6);}.cls-8{fill:url(#Gradiente_sem_nome_13-7);}.cls-9{fill:url(#Gradiente_sem_nome_13-8);}.cls-10{fill:url(#Gradiente_sem_nome_13-9);}.cls-11{fill:url(#Gradiente_sem_nome_13-10);}.cls-12{fill:url(#Gradiente_sem_nome_13-11);}.cls-13{fill:url(#Gradiente_sem_nome_13-12);}.cls-14{fill:url(#Gradiente_sem_nome_13-13);}.cls-15{fill:url(#Gradiente_sem_nome_13-14);}</style><linearGradient id="Gradiente_sem_nome_585" x1="94.08" y1="-34.56" x2="215.15" y2="175.15" gradientUnits="userSpaceOnUse"><stop offset="0.06" stop-color="#d61217"/><stop offset="0.07" stop-color="#d51217"/><stop offset="0.13" stop-color="#bb1516"/><stop offset="0.2" stop-color="#a81715"/><stop offset="0.28" stop-color="#9d1914"/><stop offset="0.35" stop-color="#991914"/><stop offset="0.65" stop-color="#c01515"/><stop offset="1" stop-color="#d61217"/></linearGradient><radialGradient id="Gradiente_sem_nome_13" cx="66.82" cy="70.52" r="20.53" gradientUnits="userSpaceOnUse"><stop offset="0" stop-color="#878787"/><stop offset="1" stop-color="#fff"/></radialGradient><radialGradient id="Gradiente_sem_nome_13-2" cx="158.99" cy="112.66" r="9.67" xlink:href="#Gradiente_sem_nome_13"/><radialGradient id="Gradiente_sem_nome_13-3" cx="175.21" cy="112.66" r="7.8" xlink:href="#Gradiente_sem_nome_13"/><radialGradient id="Gradiente_sem_nome_13-4" cx="191.83" cy="112.66" r="7.89" xlink:href="#Gradiente_sem_nome_13"/><radialGradient id="Gradiente_sem_nome_13-5" cx="206.22" cy="112.66" r="8.47" xlink:href="#Gradiente_sem_nome_13"/><radialGradient id="Gradiente_sem_nome_13-6" cx="218.17" cy="112.66" r="6.5" xlink:href="#Gradiente_sem_nome_13"/><radialGradient id="Gradiente_sem_nome_13-7" cx="230.31" cy="112.66" r="8.57" xlink:href="#Gradiente_sem_nome_13"/><radialGradient id="Gradiente_sem_nome_13-8" cx="246.21" cy="112.66" r="7.94" xlink:href="#Gradiente_sem_nome_13"/><radialGradient id="Gradiente_sem_nome_13-9" cx="233.79" cy="69.71" r="23.72" xlink:href="#Gradiente_sem_nome_13"/><radialGradient id="Gradiente_sem_nome_13-10" cx="137.53" cy="46.28" r="0" xlink:href="#Gradiente_sem_nome_13"/><radialGradient id="Gradiente_sem_nome_13-11" cx="132.64" cy="72.71" r="20.57" xlink:href="#Gradiente_sem_nome_13"/><radialGradient id="Gradiente_sem_nome_13-12" cx="95.8" cy="77.34" r="19.37" xlink:href="#Gradiente_sem_nome_13"/><radialGradient id="Gradiente_sem_nome_13-13" cx="162.84" cy="77.82" r="19.19" xlink:href="#Gradiente_sem_nome_13"/><radialGradient id="Gradiente_sem_nome_13-14" cx="199.02" cy="77.82" r="18.54" xlink:href="#Gradiente_sem_nome_13"/></defs><g id="Camada_2" data-name="Camada 2"><g id="Camada_1-2" data-name="Camada 1"><path class="cls-1" d="M271.22,140.4H15.35a15.34,15.34,0,0,1-15-18.49l23-109.71A15.34,15.34,0,0,1,38.34,0h255a16,16,0,0,1,15.69,19.32L286.24,128.2A15.33,15.33,0,0,1,271.22,140.4Z"/><path class="cls-2" d="M57.74,98.1l8-55.15H75.91l-8,55.15Z"/><path class="cls-3" d="M148.24,121.1l3.89-16.88H158l.14,12.31,5.82-12.31h5.83l-3.9,16.88h-3.42l3-13h-.37l-6.14,12.3h-3.42l-.46-12.3h-.38l-3,13Z"/><path class="cls-4" d="M168.11,121.1l7.69-16.88h6.5l-.1,16.88h-3.42l0-3h-5.9l-1.38,3Zm9.69-14-3.56,8h4.62l.13-8Z"/><path class="cls-5" d="M195,120.82a24.57,24.57,0,0,1-4.87.57,8.05,8.05,0,0,1-3.26-.52,3,3,0,0,1-1.6-1.66,6.25,6.25,0,0,1-.37-2.68,23,23,0,0,1,.62-3.87q1.13-4.89,2.95-6.81t5.51-1.92a19.56,19.56,0,0,1,4.79.67l-.73,2.73a26.37,26.37,0,0,0-4-.38,5.21,5.21,0,0,0-2.42.44,3.7,3.7,0,0,0-1.41,1.65,20.13,20.13,0,0,0-1.29,4.14c-.45,1.95-.54,3.31-.25,4.06s1.1,1.13,2.46,1.13a31.18,31.18,0,0,0,4.44-.35Z"/><path class="cls-6" d="M207.41,121.1l1.62-7h-6.28l-1.61,7h-3.43l3.9-16.88H205l-1.59,6.9h6.28l1.59-6.9h3.42l-3.89,16.88Z"/><path class="cls-7" d="M214.51,121.1l3.89-16.88h3.43l-3.9,16.88Z"/><path class="cls-8" d="M221.6,121.1l3.9-16.88h5.78l.86,13.9h.25l3.21-13.9H239l-3.89,16.88H229.5l-1-13.9h-.24L225,121.1Z"/><path class="cls-9" d="M238.8,121.1l3.9-16.88h10.91l-.68,3h-7.5l-.91,4h6l-.68,2.93h-6l-.94,4h7.5l-.69,3Z"/><path class="cls-10" d="M250.42,61.36q-2.1-4.78-9.47-4.78-4,0-9.56,2.92L234,41.33l-10.49,4.25L215.91,98.1h9.88l4.42-30.5,1-.32a19,19,0,0,1,5.88-1c2.22,0,3.57.82,4.07,2.47s.5,4.18,0,7.58L238,98.1h9.87l3.19-22Q252.52,66.15,250.42,61.36Z"/><polygon class="cls-11" points="137.53 46.28 137.53 46.28 137.53 46.28 137.53 46.28"/><path class="cls-12" d="M134.55,66.79h9.06L145,57.55h-9.07l1.63-11.19L127,50.61l-1,6.94h-4.34l-1.35,9.24h4.35l-2.45,16.87q-1.28,8.84.67,12.13t8.59,3.28a36.74,36.74,0,0,0,7.69-1.22l-1.66-8.6-3.15.09a2.26,2.26,0,0,1-2.62-2.47,34.05,34.05,0,0,1,.39-3.45Z"/><path class="cls-13" d="M112.43,61.36q-2.12-4.78-9.47-4.78c-2.8,0-6,2.53-9.68,4.69l.33-3.72H93l-9.35,1.32L77.92,98.1h9.87L92.2,67.77l.93-.33a16.72,16.72,0,0,1,6-1.13c2.21,0,3.57.82,4.06,2.47s.5,4.21,0,7.66L100,98.1h9.88l3.19-22Q114.53,66.15,112.43,61.36Z"/><path class="cls-14" d="M173.74,89q-5.38.47-12.13.47-3.24,0-4.73-1.66c-1-1.11-1.34-2.91-1-5.39h21.66l1.83-7.55Q182,56.58,166,56.58q-16.29,0-19.45,21.81-1.59,11,1.46,15.81t11.38,4.87A63.67,63.67,0,0,0,175,96.8l.11-.85ZM159.47,67.48a6.55,6.55,0,0,1,5.22-2q3.5,0,4.62,1.9t.42,6.77H157Q157.75,69.48,159.47,67.48Z"/><path class="cls-15" d="M206.76,88.91l-5.71.43c-3.44,0-5.59-.83-6.46-2.47s-1-4.69-.33-9.13,1.63-7.45,3-9,3.7-2.39,7.09-2.39a81.16,81.16,0,0,1,8.52.65l1.55-8.6-1.92-.49a45.71,45.71,0,0,0-9.61-1.29q-8.18,0-12.59,5t-6,16.18Q182.62,88.93,185.45,94t11,5.07a64.76,64.76,0,0,0,12-1.64Z"/></g></g></svg>