<svg xmlns="http://www.w3.org/2000/svg" viewBox="0 0 775.36 245.6"><defs><style>.cls-1{fill:#1d84c6;}.cls-2{fill:none;stroke:#1d84c6;stroke-miterlimit:10;stroke-width:3px;}</style></defs><g id="Camada_2" data-name="Camada 2"><g id="Camada_1-2" data-name="Camada 1"><polygon class="cls-1" points="0 1.5 0 245.59 68.01 245.59 68.01 137.53 126.96 245.59 191.95 245.59 271.3 87.65 310.6 160.2 275.08 160.2 250.9 213.1 337.05 213.1 352.16 245.59 547.14 245.59 626.49 88.41 664.27 160.2 630.26 160.2 604.57 213.86 690.72 213.86 708.1 245.59 775.36 245.59 655.2 1.5 599.28 1.5 507.08 190.43 455.69 190.43 455.69 1.5 401.15 1.5 393.73 1.5 393.73 185.89 300.02 1.5 245.61 1.5 160.97 169.27 134.52 123.55 193.46 1.5 126.2 1.5 71.04 107.53 71.04 1.5 0 1.5"/><path class="cls-1" d="M720.28,8.37a12.81,12.81,0,0,1,4.45.66,5.18,5.18,0,0,1,2.62,2,6.33,6.33,0,0,1,.87,3.47,6,6,0,0,1-.63,2.89A5.51,5.51,0,0,1,726,19.29a8.57,8.57,0,0,1-2.17,1.11l6,9.82h-3l-5.35-9.12h-4.54v9.12h-2.54V8.37Zm-.15,2.2h-3.21V19h3.47a5.89,5.89,0,0,0,3.93-1.09,4,4,0,0,0,1.27-3.21,3.58,3.58,0,0,0-1.34-3.16A7.31,7.31,0,0,0,720.13,10.57Z"/><circle class="cls-2" cx="720.39" cy="18.95" r="17.45"/></g></g></svg>