<svg xmlns="http://www.w3.org/2000/svg" viewBox="0 0 723.34 164.06"><defs><style>.cls-1{fill:#fcc812;}.cls-2{fill:#292b28;}.cls-3{fill:#f9ca0d;}.cls-4{fill:none;stroke:#f9ca09;stroke-miterlimit:10;}</style></defs><g id="Camada_2" data-name="Camada 2"><g id="Camada_1-2" data-name="Camada 1"><rect class="cls-1" width="723.34" height="164.06" rx="25"/><rect class="cls-2" x="8.02" y="8.71" width="706.08" height="147.12" rx="18.36"/><polygon class="cls-3" points="406.79 32.42 406.79 124.37 441.63 138.89 498.25 138.89 532.13 124.86 532.13 32.42 495.83 32.42 495.83 105.5 445.02 105.5 445.02 32.42 406.79 32.42"/><polygon class="cls-3" points="627.95 66.3 670.05 66.3 670.05 45.98 638.6 32.42 584.4 32.42 549.55 45.49 549.55 78.4 589.24 95.82 626.98 95.82 627.47 118.57 596.01 118.57 595.53 105.5 549.55 105.5 549.55 124.37 582.95 138.89 641.5 138.89 673.93 124.37 673.93 92.92 638.6 75.98 596.98 75.98 596.98 52.27 627.47 52.27 627.95 66.3"/><polygon class="cls-3" points="119.33 32.42 162.4 92.92 162.4 138.89 209.82 138.89 209.82 92.92 253.86 32.42 205.95 32.42 186.59 67.75 169.17 32.42 119.33 32.42"/><polygon class="cls-3" points="263.54 138.89 263.54 32.42 309.03 32.42 345.81 90.5 345.81 32.42 387.43 32.42 387.43 138.89 347.26 138.89 304.68 74.04 304.68 138.89 263.54 138.89"/><polygon class="cls-3" points="135.78 138.89 135.78 119.05 80.61 119.05 80.61 32.42 34.64 32.42 34.64 138.89 135.78 138.89"/><path class="cls-3" d="M683,25.1a11.58,11.58,0,0,1,3.09.34,3.71,3.71,0,0,1,1.83,1,2.51,2.51,0,0,1,.59,1.7,2.18,2.18,0,0,1-.39,1.31,3.26,3.26,0,0,1-1,.9,6,6,0,0,1-1.38.56l4.11,4.61h-2.68l-3.51-4.17H681.3v4.17h-2.38V25.1Zm-.16,1.43H681.3v3.4h1.64a4.94,4.94,0,0,0,2.39-.44,1.43,1.43,0,0,0,.75-1.31,1.31,1.31,0,0,0-.8-1.27A6,6,0,0,0,682.83,26.53Z"/><circle class="cls-4" cx="682.98" cy="30.14" r="9.97"/></g></g></svg>