<svg xmlns="http://www.w3.org/2000/svg" viewBox="0 0 947 324"><defs><style>.cls-1{fill:#b21b2f;}.cls-2{fill:#fff;}</style></defs><g id="Camada_2" data-name="Camada 2"><g id="Camada_1-2" data-name="Camada 1"><rect class="cls-1" width="947" height="324"/><path class="cls-2" d="M182.94,80.34l-3.78,21H164.55L145.64,212.52H121.37L75.66,126.15,64.31,191.5H78.5l-3.86,21h-53l3-21h14l15.86-90.15-14.08,0,3.91-21H81.24L127.35,169l12.3-67.67-14.42,0,3.71-21Z"/><path class="cls-2" d="M318.79,191.5l-3.36,21H259.74l3.36-18.29h14.4l-3.68-19.64H227.28l-10.83,19.64h14.08l-3.15,18.29H173.06l3.78-21h14l54.11-90.15H231l3.36-21h44L304.92,191.5Zm-48.33-36.35-8.41-45.29-24.58,45.29Z"/><path class="cls-2" d="M483.22,80.34l-7.35,39.19H448.23l-4.62-6.09a25.84,25.84,0,0,0-9.56-7.67,39.73,39.73,0,0,0-17.34-3.47q-19.33,0-35.3,14.17Q364.7,131.26,364.7,151q0,18.16,10.83,28.65,10.39,10.08,27.42,10.08a48,48,0,0,0,22-5.45q9.66-4.91,13.87-11.51l5.67-8.89H395.6l3.46-20.59H476.6l-13.13,69.34H442.14l4.1-19-3.89,3.77a65.68,65.68,0,0,1-20.8,13.38,60,60,0,0,1-23.22,4.81q-25.65,0-42-15.64-17.13-16.28-17.13-43.47,0-30.85,25.48-55.69t57-24.83q6.83,0,16.39,3.2t14.5,7.3l7,5.89,2.1-12Z"/><path class="cls-2" d="M621.6,191.5l-3.37,21H562.55l3.36-18.29h14.4l-3.68-19.64H530.08l-10.82,19.64h14.08l-3.15,18.29H475.87l3.78-21h14l54.11-90.15h-14l3.36-21h44L607.73,191.5Zm-48.33-36.35-8.41-45.29-24.59,45.29Z"/><path class="cls-2" d="M792.75,80.34l-3.78,21h-14.6L755.46,212.52H731.18l-45.7-86.37L674.13,191.5h14.19l-3.87,21h-53l3-21h14l15.87-90.15-14.09,0,3.92-21h36.87L737.17,169l12.3-67.67-14.42,0,3.71-21Z"/><path class="cls-2" d="M932.18,137.6a71.27,71.27,0,0,1-12.82,41.19,88.1,88.1,0,0,1-70.82,37.4q-24.16,0-40.13-15.13-17.24-16.27-17.23-43.81,0-30.36,25.32-54.64,25.85-24.79,59.36-24.79,25.11,0,41,17.54Q932.19,112.28,932.18,137.6Zm-25,2.21a37.37,37.37,0,0,0-9.93-26.11q-9.93-10.87-23.37-10.88-19.86,0-36.78,14.4-19,16.18-19,40a36,36,0,0,0,9,24q9.66,11.23,23.33,11.24a54.07,54.07,0,0,0,30.36-9.14,61,61,0,0,0,19.44-20.81Q907.17,150.42,907.17,139.81Z"/></g></g></svg>