<svg xmlns="http://www.w3.org/2000/svg" viewBox="0 0 1813.64 881.18"><defs><style>.cls-1{fill:#fcd504;}.cls-2{fill:#010101;}</style></defs><g id="Camada_2" data-name="Camada 2"><g id="Camada_2-2" data-name="Camada 2"><rect class="cls-1" width="1813.64" height="881.18"/><polyline id="T" points="580.32 345.39 580.32 384.05 524.19 384.05 524.19 535.8 472.04 535.8 472.04 384.05 415.87 384.05 415.87 345.39 580.32 345.39"/><path id="A" d="M703.69,345.4H643.11L571.33,535.81h50.92l13.28-38.07h73.29l12.79,38.07h54.93Zm-56.2,116.35,25.39-76.42,24.41,76.42Z"/><g id="N"><polyline points="805.23 535.8 805.23 345.39 848.15 345.39 983.28 507.14 983.28 535.8 940.61 535.8 855.45 433.18 855.45 535.8 805.23 535.8"/><polyline points="903.38 345.39 983.29 345.39 983.29 441.81 903.38 345.39"/></g><polyline id="L" points="1030.91 345.39 1030.91 535.8 1170 535.8 1170 496.58 1084.41 496.58 1084.41 345.39 1030.91 345.39"/><polyline id="E" points="1201.53 535.8 1201.53 345.39 1345.46 345.39 1345.46 382.82 1255.03 382.82 1255.03 420.77 1337.32 420.77 1337.32 458.75 1255.03 458.75 1255.03 497.82 1348.54 497.82 1348.54 535.8 1201.53 535.8"/><polyline id="Y" points="1368.13 345.39 1428.13 345.39 1466.55 421.74 1504.42 345.39 1564.44 345.39 1492.63 464.04 1492.63 535.8 1440.48 535.8 1440.48 464.04 1368.13 345.39"/><path id="s" class="cls-2" d="M255.16,487a125,125,0,0,0,57.58,13.88c16.56,0,35.63-3.18,35.63-17.78,0-34-98.73-14.54-98.73-83.82,0-45.83,43.46-57.59,82.76-57.59a200.88,200.88,0,0,1,59.85,8.77l-4.88,40.88c-13.74-5.54-31.18-11.12-50.84-11.12-13.19,0-33.59.86-33.59,17.48,0,30,99.27,14.5,99.27,81.06,0,49.39-46,60.67-89.47,60.67-26.23,0-50.54-5.15-63.55-9.25Z"/></g></g></svg>