<svg xmlns="http://www.w3.org/2000/svg" viewBox="0 0 351.42 102.62"><defs><style>.cls-1{fill:#1d1d1b;}.cls-2{fill:none;stroke:#010101;stroke-miterlimit:10;}</style></defs><g id="Camada_2" data-name="Camada 2"><g id="Camada_1-2" data-name="Camada 1"><path class="cls-1" d="M29.5,102.12a10.29,10.29,0,0,1-7-2.48,17.92,17.92,0,0,1-4.74-7.41L1.05,46a17.8,17.8,0,0,1-.93-7.9,9,9,0,0,1,3-5.87,10.27,10.27,0,0,1,7-2.19,8.7,8.7,0,0,1,6,2.05q2.3,2.05,4.16,8L32.07,76.83h-4L40.5,40q1.88-5.79,4.21-7.84a9.48,9.48,0,0,1,6.44-2.05,7.65,7.65,0,0,1,5.68,2.19,9.85,9.85,0,0,1,2.63,5.87A16.2,16.2,0,0,1,58.29,46L41.2,92.37a16.56,16.56,0,0,1-4.62,7.35A10.7,10.7,0,0,1,29.5,102.12Z"/><path class="cls-1" d="M87.44,102.4A31.37,31.37,0,0,1,70.7,98,29.37,29.37,0,0,1,59.58,85.45a43.88,43.88,0,0,1-4-19.35,48.18,48.18,0,0,1,2.22-15.18,32.27,32.27,0,0,1,6.44-11.44,27.8,27.8,0,0,1,10.07-7.21A33.52,33.52,0,0,1,87.44,29.8a31.37,31.37,0,0,1,16.74,4.38,29.15,29.15,0,0,1,11.06,12.5q3.92,8.13,3.92,19.42a48.35,48.35,0,0,1-2.22,15.11,32.66,32.66,0,0,1-6.38,11.51,27.14,27.14,0,0,1-10.07,7.21A33.64,33.64,0,0,1,87.44,102.4Zm0-18.5A8.93,8.93,0,0,0,93.06,82a12.09,12.09,0,0,0,3.8-5.79,31.41,31.41,0,0,0,1.35-10.1q0-9.46-3-13.63a9.33,9.33,0,0,0-13.34-2.33A12,12,0,0,0,78,55.86,30.66,30.66,0,0,0,76.55,66.1q0,9.32,3,13.56A9.27,9.27,0,0,0,87.44,83.9Z"/><path class="cls-1" d="M131.45,102.12a9.34,9.34,0,0,1-7.61-3.25q-2.7-3.25-2.69-9.47V42.65q0-6.06,2.63-9.32a9.18,9.18,0,0,1,7.55-3.25c3.28,0,5.78,1.09,7.49,3.25s2.58,5.28,2.58,9.32v6.64l-1.29-5.79a22.53,22.53,0,0,1,8-10.17A20.69,20.69,0,0,1,160,29.8q6.9,0,11.35,3.18T178,42.87a54.5,54.5,0,0,1,2.22,16.88V89.4q0,6.22-2.69,9.47a10.81,10.81,0,0,1-15.45,0q-2.7-3.25-2.7-9.47V60.73c0-4.23-.6-7.25-1.81-9A6,6,0,0,0,152.28,49a9,9,0,0,0-7.49,3.6Q142,56.21,142,62.29V89.4Q142,102.12,131.45,102.12Z"/><path class="cls-1" d="M207,102.4a20.76,20.76,0,0,1-13-4.38A28.54,28.54,0,0,1,185,85.45a52.71,52.71,0,0,1-3.22-19.35q0-11.44,3.22-19.49a28.6,28.6,0,0,1,8.9-12.43,20.76,20.76,0,0,1,13-4.38,19.51,19.51,0,0,1,11.58,3.67,17.69,17.69,0,0,1,6.91,9.47h-1.29V12.71q0-6.21,2.7-9.46T234.57,0a9.5,9.5,0,0,1,7.67,3.25Q245,6.51,245,12.71V89.4q0,6.22-2.64,9.47c-1.75,2.16-4.31,3.25-7.66,3.25a9.34,9.34,0,0,1-7.61-3.25q-2.7-3.25-2.69-9.47V81.35l1.29,6.92a18,18,0,0,1-6.85,10.24A19.39,19.39,0,0,1,207,102.4Zm6.67-18.5A8.93,8.93,0,0,0,219.24,82,12.09,12.09,0,0,0,223,76.2a31.41,31.41,0,0,0,1.35-10.1q0-9.46-3-13.63A9.33,9.33,0,0,0,208,50.14a12,12,0,0,0-3.86,5.72,30.66,30.66,0,0,0-1.41,10.24q0,9.32,3.05,13.56A9.27,9.27,0,0,0,213.62,83.9Z"/><path class="cls-1" d="M280.8,102.4A35.6,35.6,0,0,1,262.6,98a29.54,29.54,0,0,1-11.76-12.64A42.79,42.79,0,0,1,246.74,66a43,43,0,0,1,3.92-18.86,31.39,31.39,0,0,1,10.77-12.71,28.92,28.92,0,0,1,27.33-2.12,24.81,24.81,0,0,1,9,7.21,32.8,32.8,0,0,1,5.67,11.37,52.9,52.9,0,0,1,1.94,14.83,5.81,5.81,0,0,1-1.29,4.16,5.46,5.46,0,0,1-4.1,1.34H264.18V59.32h26l-1.87,1.84a25.79,25.79,0,0,0-1.17-8.48,10.33,10.33,0,0,0-3.46-4.94A9.24,9.24,0,0,0,278,46a10,10,0,0,0-6.27,2.05,12.87,12.87,0,0,0-4,6,30,30,0,0,0-1.4,9.88v1.27q0,10,3.69,14.34t11.41,4.31a26.27,26.27,0,0,0,5.91-.78,33.13,33.13,0,0,0,6.38-2.19,6.44,6.44,0,0,1,5.27-.49,6.88,6.88,0,0,1,3.45,3.1,10.93,10.93,0,0,1,1.35,4.95,11.85,11.85,0,0,1-1.06,5.36,8.29,8.29,0,0,1-3.86,4,35.09,35.09,0,0,1-8.72,3.39A39.26,39.26,0,0,1,280.8,102.4Z"/><path class="cls-1" d="M317.44,102.12c-3.43,0-6.07-1.09-7.9-3.25s-2.75-5.32-2.75-9.47V42.65q0-6.06,2.63-9.32A9.19,9.19,0,0,1,317,30.08c3.28,0,5.78,1.09,7.49,3.25S327,38.61,327,42.65v5.8h-1.17Q327,40,331.9,35A17.27,17.27,0,0,1,344,29.8a5.73,5.73,0,0,1,5.09,2.05Q350.8,34,350.92,40A15.78,15.78,0,0,1,349.16,48q-1.76,3-6.67,3.53l-2.69.29q-6.21.7-9,4.16T328,66.24V89.4q0,6.22-2.7,9.47C323.49,101,320.87,102.12,317.44,102.12Z"/><path d="M345.85,94.49a6.35,6.35,0,0,1,1.58.16,2,2,0,0,1,.92.51,1.23,1.23,0,0,1,.31.86,1.13,1.13,0,0,1-.2.67,1.58,1.58,0,0,1-.53.46,3.3,3.3,0,0,1-.7.28l2.09,2.34H348l-1.78-2.11H345v2.11h-1.2V94.49Zm-.08.72H345v1.73h.84a2.43,2.43,0,0,0,1.21-.23.71.71,0,0,0,.38-.66.65.65,0,0,0-.4-.64A3,3,0,0,0,345.77,95.21Z"/><circle class="cls-2" cx="345.85" cy="97.05" r="5.07"/></g></g></svg>