<svg xmlns="http://www.w3.org/2000/svg" viewBox="0 0 382.86 77.06"><defs><style>.cls-1{fill:#094e67;}.cls-2{fill:none;stroke:#0d4e67;stroke-miterlimit:10;}</style></defs><g id="Camada_2" data-name="Camada 2"><g id="Camada_1-2" data-name="Camada 1"><path class="cls-1" d="M375.79,3.76a7.8,7.8,0,0,1,2,.22,2.31,2.31,0,0,1,1.2.66,1.56,1.56,0,0,1,.4,1.11,1.47,1.47,0,0,1-.26.87,2.08,2.08,0,0,1-.69.59,4.59,4.59,0,0,1-.91.38l2.72,3h-1.78L376.2,7.88h-1.53v2.74H373.1V3.76Zm-.11.94h-1V6.94h1.09a3.14,3.14,0,0,0,1.57-.29.94.94,0,0,0,.5-.86A.87.87,0,0,0,377.3,5,4.08,4.08,0,0,0,375.68,4.7Z"/><circle class="cls-2" cx="375.78" cy="7.08" r="6.58"/><path class="cls-1" d="M107.91,2,95.79,75.52h-34A378.43,378.43,0,0,1,53.57,37Q51.93,46.24,46,75.52H12.18L0,2H26.44l2.88,25.64L32.1,52.46Q33.61,33.23,39.63,2H67.9q.55,3.23,3,24.24l3,27.95A450.37,450.37,0,0,1,81.47,2Z"/><path class="cls-1" d="M112,2h45.38V16.75H139.18V30.68h17v14h-17V60.81h20V75.52H112Z"/><path class="cls-1" d="M223.33,24.28H198.05V18.83c0-2.54-.33-4.16-1-4.85a4.25,4.25,0,0,0-3.23-1.05,4.73,4.73,0,0,0-3.72,1.41,6.24,6.24,0,0,0-1.26,4.27,9.1,9.1,0,0,0,1.41,5.54q1.36,1.86,7.7,4.49,18.17,7.57,22.89,12.43t4.72,15.66q0,7.85-2.62,11.57t-10.12,6.24a54.83,54.83,0,0,1-17.45,2.52,53.31,53.31,0,0,1-18.66-2.9q-7.73-2.91-10.12-7.4T164.23,54V49.2h25.28v8.94q0,4.13,1.07,5.31c.71.78,2,1.18,3.78,1.18a5.11,5.11,0,0,0,4-1.5,6.5,6.5,0,0,0,1.33-4.45c0-4.33-.84-7.15-2.52-8.49s-6-3.55-12.74-6.67A132.25,132.25,0,0,1,171,36.67a16.83,16.83,0,0,1-5.46-5.9,19.05,19.05,0,0,1-2.17-9.62q0-8.44,3.07-12.34t9.93-6.11A54.42,54.42,0,0,1,192.94.5,59.18,59.18,0,0,1,211,2.91q7.47,2.4,9.89,6.05t2.43,12.42Z"/><path class="cls-1" d="M296.36,34H269.14V21.27c0-3.72-.29-6-.87-6.95s-1.87-1.39-3.85-1.39c-2.24,0-3.66.56-4.27,1.68s-.9,3.54-.9,7.27V56q0,5.36.9,7c.61,1.09,2,1.64,4.08,1.64s3.35-.55,4-1.64.94-3.66.94-7.69V46.06h27.22v2.87q0,11.4-2.29,16.18t-10.16,8.36q-7.85,3.59-19.36,3.59-12,0-19.72-3T234.55,65.6Q232,60.23,232,49.42V28A68.22,68.22,0,0,1,232.8,16a14.64,14.64,0,0,1,4.63-7.64,26.58,26.58,0,0,1,10.66-5.79A53,53,0,0,1,263.77.5q12,0,19.85,3.26T293.9,11.9q2.46,4.87,2.46,15.16Z"/><path class="cls-1" d="M367,45.07a113.59,113.59,0,0,1-.74,15.67,15,15,0,0,1-4.66,8.42A25.63,25.63,0,0,1,351,75a53.13,53.13,0,0,1-15.52,2,54.44,54.44,0,0,1-15.1-1.93,25.5,25.5,0,0,1-10.76-5.79A15,15,0,0,1,304.8,61Q304,56.41,304,45.07V32.49a111.56,111.56,0,0,1,.75-15.67,14.94,14.94,0,0,1,4.65-8.42A25.63,25.63,0,0,1,320,2.54a53.18,53.18,0,0,1,15.52-2,54.34,54.34,0,0,1,15.1,1.93,25.5,25.5,0,0,1,10.76,5.79,15,15,0,0,1,4.85,8.39q.78,4.55.78,15.88ZM339.78,20.92c0-3.42-.27-5.6-.81-6.56s-1.65-1.43-3.33-1.43a4.35,4.35,0,0,0-3.26,1.16q-1.14,1.15-1.14,6.83V55.23q0,6.41.75,7.9c.49,1,1.65,1.5,3.46,1.5s3-.58,3.55-1.73.78-3.89.78-8.21Z"/></g></g></svg>