<svg xmlns="http://www.w3.org/2000/svg" viewBox="0 0 2860.24 885.11"><defs><style>.cls-1,.cls-7{fill:none;}.cls-2{fill:#7f7f7f;}.cls-3{fill:blue;}.cls-4{fill:#3aaa35;}.cls-5{fill:#1d1d1b;}.cls-6{fill:#fff200;}.cls-7{stroke:blue;stroke-miterlimit:10;stroke-width:1.54px;}.cls-8,.cls-9{fill:#fff;}.cls-8{opacity:0.91;}.cls-10{fill:#000042;}</style></defs><g id="Camada_2" data-name="Camada 2"><g id="Camada_1-2" data-name="Camada 1"><path class="cls-1" d="M1.24,770.31H0"/><polygon class="cls-2" points="185.39 885.11 130.72 845.85 179.1 757.2 261.72 816.53 185.39 885.11"/><polygon class="cls-2" points="224.25 727.92 278.93 767.19 261.72 816.53 179.1 757.2 224.25 727.92"/><polygon class="cls-2" points="555.77 418.18 501.1 378.91 224.25 727.92 278.93 767.19 555.77 418.18"/><path class="cls-3" d="M738.26,279.16,857.79,128.47c20.3-25.59,14.91-62.33-12-81.65L796.91,11.7C770-7.61,731.4-2.48,711.1,23.11L591.57,173.8c11.67,8.38-4.45,47.43-36,87.21s-66.6,65.24-78.27,56.86l-25.62,32.31a8.08,8.08,0,0,0,1.71,11.66L586.1,457.16a9.08,9.08,0,0,0,12.26-1.63L624,423.23c-11.67-8.38,4.45-47.42,36-87.21S726.6,270.78,738.26,279.16Z"/><path class="cls-4" d="M524.86,207.26c-136.57,0-247.28,105.35-247.28,235.3S388.29,677.85,524.86,677.85,772.14,572.51,772.14,442.56,661.43,207.26,524.86,207.26Zm0,329.41c-54.63,0-98.91-42.13-98.91-94.11s44.28-94.12,98.91-94.12,98.91,42.14,98.91,94.12S579.49,536.67,524.86,536.67Z"/><polygon class="cls-4" points="574.32 223 475.41 223 480.35 113.14 569.37 113.14 574.32 223"/><polygon class="cls-4" points="871.05 490.33 757.02 495.04 757.02 400.92 871.05 405.63 871.05 490.33"/><polygon class="cls-4" points="848.8 317.56 751.69 376.35 702.23 294.84 804.29 244.21 848.8 317.56"/><polygon class="cls-4" points="740.81 179.13 679.4 289.75 593.74 242.69 663.72 136.77 740.81 179.13"/><polygon class="cls-4" points="386.01 136.77 447.02 227.92 361.36 274.98 308.91 179.13 386.01 136.77"/><polygon class="cls-4" points="245.44 244.21 344.65 293.28 295.19 374.79 200.93 317.56 245.44 244.21"/><polygon class="cls-4" points="178.67 405.63 291.27 400.92 291.27 495.04 178.67 490.33 178.67 405.63"/><polygon class="cls-4" points="475.41 660.76 574.32 660.76 569.37 772.08 480.35 772.08 475.41 660.76"/><polygon class="cls-4" points="206.47 575.35 301.86 517.51 351.31 599.02 250.98 648.71 206.47 575.35"/><polygon class="cls-4" points="315.43 706.1 363.84 616.9 449.5 663.96 392.52 748.45 315.43 706.1"/><polygon class="cls-4" points="657.2 748.45 598.02 660.32 683.68 613.26 734.3 706.1 657.2 748.45"/><polygon class="cls-4" points="797.37 647.95 703.8 601.98 753.25 520.47 841.88 574.59 797.37 647.95"/><line class="cls-5" x1="860.76" y1="490.33" x2="865.71" y2="490.33"/><polygon class="cls-6" points="525.05 402.88 543.55 256.25 390.01 489.98 474.65 489.98 525.05 402.88"/><polygon class="cls-6" points="560.68 405.98 508.76 495.71 490.6 639.7 644.13 405.98 560.68 405.98"/><polygon class="cls-3" points="480.75 345.92 378.69 345.92 381.2 315.94 483.26 315.94 480.75 345.92"/><polygon class="cls-3" points="470.7 465.84 368.64 465.84 371.15 435.86 473.21 435.86 470.7 465.84"/><polygon class="cls-3" points="475.73 405.88 424.69 405.88 427.21 375.9 478.24 375.9 475.73 405.88"/><polygon class="cls-3" points="399.26 465.84 368.64 465.84 381.2 315.94 411.82 315.94 399.26 465.84"/><path class="cls-3" d="M657,420.25,653.84,450h-51c-11.28,0-21.12,6.7-22,15s1.82,15.14,6.05,15.14h2.55l-3.09,29c-22.56,0-38.72-19.76-36.13-44.18,2.64-24.83,21.89-44.92,43-44.92Z"/><path class="cls-3" d="M620,480.15c16.92,0,28.48,20.12,25.83,45S624,570,602.83,570H539l3.18-30h51c11.28,0,21.12-6.62,22-14.8.89-8.37-1.82-15.15-6-15.15h-2.55l3.18-29.94Z"/><path class="cls-7" d="M580.81,465c.88-8.28,10.72-15,22-15"/><path class="cls-7" d="M550.19,465c2.64-24.83,21.89-44.92,43-44.92"/><path class="cls-7" d="M550.19,465c-2.59,24.42,13.57,44.18,36.13,44.18"/><path class="cls-7" d="M580.81,465c-.89,8.37,1.82,15.14,6.05,15.14"/><path class="cls-7" d="M645.86,525.15C643.23,549.94,624,570,602.83,570"/><path class="cls-7" d="M645.86,525.15c2.65-24.88-8.91-45-25.83-45"/><path class="cls-7" d="M615.24,525.24c-.87,8.18-10.71,14.8-22,14.8"/><path class="cls-7" d="M615.24,525.24c.89-8.37-1.82-15.15-6-15.15"/><line class="cls-7" x1="609.82" y1="480.15" x2="620.03" y2="480.15"/><line class="cls-7" x1="586.86" y1="480.15" x2="589.41" y2="480.15"/><line class="cls-7" x1="606.64" y1="510.09" x2="609.19" y2="510.09"/><line class="cls-7" x1="589.41" y1="480.15" x2="586.32" y2="509.19"/><polyline class="cls-7" points="609.82 480.14 609.82 480.15 606.64 510.09"/><line class="cls-7" x1="602.81" y1="450.03" x2="653.84" y2="450.03"/><line class="cls-7" x1="593.24" y1="420.09" x2="657.01" y2="420.25"/><line class="cls-7" x1="653.84" y1="450.03" x2="657.01" y2="420.25"/><line class="cls-7" x1="593.25" y1="540.04" x2="542.22" y2="540.04"/><line class="cls-7" x1="539.04" y1="569.99" x2="542.22" y2="540.04"/><line class="cls-7" x1="602.83" y1="569.99" x2="539.04" y2="569.99"/><rect class="cls-8" x="1105.68" y="411.77" width="1578.62" height="290.8" rx="52.77"/><path class="cls-9" d="M928.41,178.27h130.87v39.31H975.11v34.57h61.48v36.67H975.11v34.56h84.17V362.7H928.41Z"/><path class="cls-9" d="M1077.75,178.27h44.85l53.29,114.25,53.56-114.25H1274V362.7h-43.53V270.09l-44.06,92.61h-21.11l-43.8-92.61V362.7h-43.79Z"/><path class="cls-9" d="M1297.79,178.27h81.26q32.19,0,51.45,16.89t19.26,47.23q0,31.13-19.13,48.15t-51.58,17h-34.56V362.7h-46.7Zm73.88,90q14,0,22-5.8t8-20.05q0-14.25-7.91-19.53t-22.16-5.28h-27.18v50.66Z"/><path class="cls-9" d="M1465.59,178.27h82.84q32.46,0,50.79,16.36t18.34,47q0,20.58-9,35.09a54.52,54.52,0,0,1-25.33,21.64L1616,362.7h-48l-29.29-57.78h-26.38V362.7h-46.7Zm74.67,87.33q14,0,21.63-5.41t7.65-18.6q0-13.71-7.52-18.86t-21.76-5.15h-28v48Z"/><path class="cls-9" d="M1636,178.27h130.86v39.31h-84.16v34.57h61.47v36.67h-61.47v34.56h84.16V362.7H1636Z"/><path class="cls-9" d="M1808.32,363.36q-17.16-3.3-28.23-9.11V312.3a129.47,129.47,0,0,0,29.68,11.08,126,126,0,0,0,29.42,3.7q12.91,0,19.52-4c4.39-2.64,6.6-6.42,6.6-11.35a14.14,14.14,0,0,0-3.57-9.62,33.36,33.36,0,0,0-10.42-7.52q-6.85-3.44-21.37-9.5-25.59-10.81-37.2-24t-11.61-32.45a47.4,47.4,0,0,1,8.84-28.24q8.83-12.39,24.67-19.26t36.41-6.86a155.13,155.13,0,0,1,30.08,2.64,107.48,107.48,0,0,1,25.33,8.45v40.89q-23.22-12.14-46.7-12.14-12.68,0-20.19,4.09T1832.06,230q0,7.67,7.65,12.41t28.23,12.92q18.74,7.67,29.16,15t15.17,17.15q4.76,9.76,4.75,24.8,0,25.6-18.6,40t-55.54,14.38A183.25,183.25,0,0,1,1808.32,363.36Z"/><path class="cls-9" d="M1992.21,178.27h45.91l73.61,184.43H2064l-14.78-38h-68.07l-14.78,38h-48Zm45.38,110.55-22.42-62-22.7,62Z"/><path class="cls-9" d="M2245.5,364q-14.79-2.64-24.28-7.13V337.37a131.86,131.86,0,0,0,53.3,10.82q23.74,0,35-7.66t11.21-22.95q0-10.81-4.62-17.15a36.09,36.09,0,0,0-13.32-10.69q-8.72-4.35-30.08-13.06-26.11-10.55-37.86-23.08t-11.74-31.79a42.44,42.44,0,0,1,7.52-24.81q7.51-10.81,21.24-16.75t31.66-5.94a140.07,140.07,0,0,1,26.25,2.25,106.45,106.45,0,0,1,23.09,7.25v18.73a114.14,114.14,0,0,0-46.44-9.76q-21.1,0-31.92,7.65t-10.82,21.38a27.49,27.49,0,0,0,4.48,15.83q4.48,6.59,14.12,12.13t26.51,12.14q19,7.39,29.82,13.85a47.37,47.37,0,0,1,16.75,16.36q5.94,9.9,5.94,25.46,0,23.49-16.62,36.28t-49.08,12.79A171.46,171.46,0,0,1,2245.5,364Z"/><path class="cls-9" d="M2373.19,178.27h20.58V362.7h-20.58Z"/><path class="cls-9" d="M2431,178.27h20.58v167h98.15V362.7H2431Z"/><path class="cls-9" d="M2536.51,178.27h21.63l61.48,155.93,61.73-155.93H2703L2629.38,362.7h-19.26Z"/><path class="cls-9" d="M2767.37,178.27h19.26l73.61,184.43h-21.11l-19.79-49.34h-85l-19.52,49.34h-21.11Zm46.17,117.67L2776.86,202l-36.41,93.92Z"/><path class="cls-10" d="M1152.88,485.14h36.33l43.17,92.53,43.38-92.53h36.12V634.52h-35.26v-75l-35.69,75h-17.1l-35.48-75v75h-35.47Z"/><path class="cls-10" d="M1381.34,485.14h37.18l59.63,149.38h-38.69l-12-30.77h-55.14l-12,30.77H1321.5Zm36.75,89.54-18.16-50.22-18.38,50.22Z"/><path class="cls-10" d="M1493.1,485.14h37.4l54.93,88.9v-88.9h37.82V634.52h-37.18l-55.14-89.12v89.12H1493.1Z"/><path class="cls-10" d="M1658.52,619.67q-17.1-18.06-17.1-47.77V485.14h37.83v87.19q0,15,8,22.65t22.12,7.7q14.1,0,22-7.7t7.91-22.65V485.14h37.83V571.9q0,29.93-17,47.88t-50.76,18Q1675.61,637.73,1658.52,619.67Z"/><path class="cls-10" d="M1829.91,517h-42.1V485.14h122.24V517h-42.31V634.52h-37.83Z"/><path class="cls-10" d="M1927.15,485.14h96.17v14.1h-79.5v53.43h59.62v14.1h-59.62v53.65h79.5v14.1h-96.17Z"/><path class="cls-10" d="M2049,485.14h16l82.28,121v-121h16.67V634.52h-16l-82.28-121.17V634.52H2049Z"/><path class="cls-10" d="M2277.21,637.51l-4.06,9.83Q2293,649.91,2293,667a18.11,18.11,0,0,1-7.16,14.74q-7.16,5.78-19.34,5.77a60.83,60.83,0,0,1-8.87-.64,37.16,37.16,0,0,1-6.73-1.49V675.13a30.6,30.6,0,0,0,5.56,1.49,35.55,35.55,0,0,0,6.62.64q14.54,0,14.53-10.68a10,10,0,0,0-5-9.19q-5-3-17-3l6.41-16.89q-21.15-1.28-37.61-11.22a69.33,69.33,0,0,1-25.65-27q-9.18-17.1-9.18-39.32,0-23.3,10-40.93a70,70,0,0,1,27.89-27.35q17.83-9.74,40.5-9.73,31,0,51.29,16.24v16.25q-19.23-17.31-50-17.31-18.16,0-32.48,7.69a55.77,55.77,0,0,0-22.44,21.9q-8.13,14.22-8.13,33.24t8.23,33.23a56.48,56.48,0,0,0,22.55,21.9,67.05,67.05,0,0,0,32.27,7.7,88.7,88.7,0,0,0,28.64-4.28,65.09,65.09,0,0,0,23.29-14.1v16.45Q2304.78,635.38,2277.21,637.51Z"/><path class="cls-10" d="M2396.88,485.14h15.6l59.63,149.38H2455l-16-40h-68.81l-15.82,40h-17.09ZM2365,461.2q6-9.18,20.3-9.19a31.24,31.24,0,0,1,9,1.28q4.28,1.29,10.9,4.07a91.5,91.5,0,0,0,9.83,3.95,28.73,28.73,0,0,0,9,1.39,24.33,24.33,0,0,0,11.23-2.57,25.07,25.07,0,0,0,9.08-8.55v14.75q-6,9-20.31,9a35.1,35.1,0,0,1-10-1.39,79.13,79.13,0,0,1-10.68-4.17q-6-2.56-9.73-3.85a25.33,25.33,0,0,0-8.23-1.28,23.21,23.21,0,0,0-10.9,2.57q-4.91,2.56-9.4,8.76Zm69.24,119.25-29.7-76.08-29.49,76.08Z"/><path class="cls-10" d="M2518,628a71.27,71.27,0,0,1-28.1-27.46q-10.26-17.73-10.26-40.6t10.26-40.61a72.4,72.4,0,0,1,28-27.57q17.74-9.83,40-9.83t40,9.83a72.36,72.36,0,0,1,28,27.57Q2636,537.07,2636,559.94t-10.26,40.6a71.33,71.33,0,0,1-28.1,27.46q-17.85,9.74-39.86,9.73T2518,628ZM2589,615.07a56.19,56.19,0,0,0,22.23-21.9q8.12-14.22,8.12-33.23,0-18.81-8-33a56.32,56.32,0,0,0-22-22,62.79,62.79,0,0,0-31.09-7.8,64.52,64.52,0,0,0-31.42,7.69,56.71,56.71,0,0,0-22.33,22q-8.23,14.33-8.23,33.13,0,19,8.12,33.23a56.07,56.07,0,0,0,22.23,21.9,67.06,67.06,0,0,0,62.4,0Z"/><path class="cls-1" d="M1101.24,770.31H1100"/></g></g></svg>