<?xml version="1.0" encoding="utf-8"?>
<!-- Generator: Adobe Illustrator 25.2.1, SVG Export Plug-In . SVG Version: 6.00 Build 0)  -->
<svg version="1.1" xmlns="http://www.w3.org/2000/svg" xmlns:xlink="http://www.w3.org/1999/xlink" x="0px" y="0px"
	 viewBox="0 0 816.07 1025.35" style="enable-background:new 0 0 816.07 1025.35;" xml:space="preserve">
<style type="text/css">
	.st0{fill:#7F7F7F;}
	.st1{fill:#0000FF;}
	.st2{fill:#3AAA35;}
	.st3{fill:#1D1D1B;}
	.st4{fill:#FFF200;}
	.st5{fill:none;}
	.st6{fill:none;stroke:#0000FF;stroke-miterlimit:10;}
</style>
<g id="Chave_de_Fenda">
</g>
<g id="Engrenagem">
</g>
<g id="Raio">
</g>
<g id="Letras">
	<g>
		<g>
			<polygon class="st0" points="60.27,1025.35 0,979.86 53.34,877.16 144.41,945.9 			"/>
			<polygon class="st0" points="103.11,843.25 163.38,888.74 144.41,945.9 53.34,877.17 			"/>
			
				<rect x="248.07" y="410.57" transform="matrix(0.7982 0.6024 -0.6024 0.7982 457.6155 -38.2031)" class="st0" width="75.51" height="506.55"/>
			<path class="st1" d="M669.7,323.39l131.76-174.56c22.38-29.64,16.43-72.21-13.22-94.58l-53.9-40.68
				C704.7-8.82,662.14-2.87,639.76,26.77L508,201.34c12.86,9.71-4.92,54.94-39.7,101.02s-73.41,75.58-86.27,65.87l-28.25,37.42
				c-3.2,4.23-2.35,10.32,1.89,13.51l146.3,110.42c4.23,3.2,10.32,2.35,13.51-1.89l28.25-37.42c-12.86-9.71,4.92-54.94,39.7-101.02
				S656.84,313.68,669.7,323.39z"/>
		</g>
		<g>
			<path class="st2" d="M434.47,240.1c-150.54,0-272.58,122.04-272.58,272.58s122.04,272.58,272.58,272.58
				s272.58-122.04,272.58-272.58S585.01,240.1,434.47,240.1z M434.47,621.7c-60.22,0-109.03-48.81-109.03-109.03
				c0-60.22,48.81-109.03,109.03-109.03S543.5,452.46,543.5,512.67C543.5,572.89,494.68,621.7,434.47,621.7z"/>
			<polygon class="st2" points="488.98,258.33 379.95,258.33 385.4,131.07 483.53,131.07 			"/>
			<polygon class="st2" points="816.07,568.02 690.38,573.47 690.38,464.44 816.07,469.89 			"/>
			<polygon class="st2" points="791.54,367.88 684.5,435.97 629.98,341.55 742.48,282.9 			"/>
			<polygon class="st2" points="672.51,207.51 604.82,335.65 510.4,281.14 587.53,158.44 			"/>
			<polygon class="st2" points="281.41,158.44 348.66,264.03 254.24,318.55 196.42,207.51 			"/>
			<polygon class="st2" points="126.45,282.9 235.82,339.74 181.3,434.17 77.39,367.88 			"/>
			<polygon class="st2" points="52.86,469.89 176.98,464.44 176.98,573.47 52.86,568.02 			"/>
			<polygon class="st2" points="379.95,765.45 488.98,765.45 483.53,894.4 385.4,894.4 			"/>
			<polygon class="st2" points="83.5,666.51 188.65,599.5 243.17,693.92 132.56,751.49 			"/>
			<polygon class="st2" points="203.6,817.97 256.97,714.64 351.39,769.15 288.59,867.03 			"/>
			<polygon class="st2" points="580.35,867.03 515.11,764.94 609.54,710.43 665.33,817.97 			"/>
			<polygon class="st2" points="734.85,750.61 631.71,697.35 686.22,602.93 783.91,665.63 			"/>
			<line class="st3" x1="804.73" y1="568.02" x2="810.18" y2="568.02"/>
		</g>
		<g>
			<polygon class="st4" points="434.67,466.71 455.06,296.85 285.82,567.61 379.12,567.61 			"/>
			<polygon class="st4" points="473.95,470.3 416.72,574.25 396.69,741.05 565.93,470.3 			"/>
		</g>
		<g>
			<polygon class="st1" points="385.84,400.73 273.34,400.73 276.11,365.99 388.61,365.99 			"/>
			<polygon class="st1" points="374.77,539.65 262.26,539.65 265.03,504.92 377.54,504.92 			"/>
			<polygon class="st1" points="380.3,470.19 324.05,470.19 326.82,435.46 383.07,435.46 			"/>
			<polygon class="st1" points="296.01,539.65 262.26,539.65 276.11,365.99 309.86,365.99 			"/>
		</g>
		<path class="st5" d="M-212.71,870.18c0,0-0.56,0-1.24,0"/>
		<g id="XMLID_16_">
			<g>
				<path class="st1" d="M580.13,486.83l-3.49,34.5h-56.25c-12.44,0-23.28,7.75-24.25,17.35c-0.98,9.69,2,17.54,6.67,17.54h2.81
					l-3.4,33.65c-24.87,0-42.69-22.9-39.83-51.19c2.91-28.77,24.13-52.04,47.45-52.04L580.13,486.83z"/>
				<path class="st1" d="M539.37,556.22c18.65,0,31.39,23.32,28.48,52.14c-2.9,28.71-24.12,51.94-47.44,51.94h-70.32l3.51-34.69
					h56.25c12.44,0,23.28-7.67,24.23-17.15c0.98-9.7-2-17.54-6.66-17.54h-2.81l3.51-34.69H539.37z"/>
			</g>
			<g>
				<path class="st6" d="M496.14,538.68c0.97-9.59,11.82-17.35,24.25-17.35"/>
				<path class="st6" d="M462.39,538.68c2.91-28.77,24.13-52.04,47.45-52.04"/>
				<path class="st6" d="M462.39,538.68c-2.86,28.29,14.95,51.19,39.83,51.19"/>
				<path class="st6" d="M496.14,538.68c-0.98,9.69,2,17.54,6.67,17.54"/>
				<path class="st6" d="M567.85,608.35c-2.9,28.71-24.12,51.94-47.44,51.94"/>
				<path class="st6" d="M567.85,608.35c2.91-28.82-9.83-52.14-28.48-52.14"/>
				<path class="st6" d="M534.09,608.45c-0.96,9.48-11.8,17.15-24.23,17.15"/>
				<path class="st6" d="M534.09,608.45c0.98-9.7-2-17.54-6.66-17.54"/>
				<line class="st6" x1="528.12" y1="556.22" x2="539.37" y2="556.22"/>
				<line class="st6" x1="502.8" y1="556.22" x2="505.62" y2="556.22"/>
				<line class="st6" x1="524.61" y1="590.91" x2="527.42" y2="590.91"/>
				<line class="st6" x1="505.62" y1="556.22" x2="502.22" y2="589.87"/>
				<line class="st6" x1="528.12" y1="556.22" x2="524.61" y2="590.91"/>
				<line class="st6" x1="520.39" y1="521.34" x2="576.65" y2="521.34"/>
				<line class="st6" x1="509.84" y1="486.64" x2="580.13" y2="486.83"/>
				<line class="st6" x1="576.65" y1="521.34" x2="580.13" y2="486.83"/>
				<line class="st6" x1="509.85" y1="625.6" x2="453.6" y2="625.6"/>
				<line class="st6" x1="450.09" y1="660.29" x2="453.6" y2="625.6"/>
				<line class="st6" x1="520.41" y1="660.29" x2="450.09" y2="660.29"/>
			</g>
		</g>
	</g>
</g>
</svg>
