<?xml version="1.0" encoding="UTF-8" standalone="no"?>
<!DOCTYPE svg PUBLIC "-//W3C//DTD SVG 1.1//EN" "http://www.w3.org/Graphics/SVG/1.1/DTD/svg11.dtd">
<svg width="100%" height="100%" viewBox="0 0 34 34" version="1.1" xmlns="http://www.w3.org/2000/svg" xmlns:xlink="http://www.w3.org/1999/xlink" xml:space="preserve" xmlns:serif="http://www.serif.com/" style="fill-rule:evenodd;clip-rule:evenodd;stroke-linejoin:round;stroke-miterlimit:2;">
    <g transform="matrix(1,0,0,1,-0.4125,-0.4125)">
        <g transform="matrix(1,0,0,1,-21.4215,-80.9765)">
            <g transform="matrix(1,0,0,1,0,-114)">
                <path d="M44.951,203.764L43.008,203.764C41.094,203.764 40.497,204.952 40.497,206.17L40.497,209.061L44.77,209.061L44.087,213.515L40.497,213.515L40.497,224.282L35.682,224.282L35.682,213.515L31.769,213.515L31.769,209.061L35.682,209.061L35.682,205.666C35.682,201.804 37.982,199.671 41.502,199.671C43.187,199.671 44.951,199.972 44.951,199.972L44.951,203.764ZM38.422,195.389C29.26,195.389 21.834,202.815 21.834,211.977C21.834,221.138 29.26,228.564 38.422,228.564C47.583,228.564 55.009,221.138 55.009,211.977C55.009,202.815 47.583,195.389 38.422,195.389Z" style="fill:rgb(248,248,248);fill-rule:nonzero;"/>
            </g>
        </g>
    </g>
</svg>
