<?xml version="1.0" encoding="UTF-8" standalone="no"?>
<!DOCTYPE svg PUBLIC "-//W3C//DTD SVG 1.1//EN" "http://www.w3.org/Graphics/SVG/1.1/DTD/svg11.dtd">
<svg width="100%" height="100%" viewBox="0 0 34 34" version="1.1" xmlns="http://www.w3.org/2000/svg" xmlns:xlink="http://www.w3.org/1999/xlink" xml:space="preserve" xmlns:serif="http://www.serif.com/" style="fill-rule:evenodd;clip-rule:evenodd;stroke-linejoin:round;stroke-miterlimit:2;">
    <g transform="matrix(1,0,0,1,-0.412,-0.4125)">
        <g transform="matrix(1,0,0,1,-80.24,-194.9765)">
            <path d="M97.239,195.389C106.401,195.389 113.828,202.815 113.828,211.977C113.828,221.138 106.401,228.564 97.239,228.564C88.078,228.564 80.652,221.138 80.652,211.977C80.652,202.815 88.078,195.389 97.239,195.389ZM107.294,215.991L107.294,207.962C107.294,204.631 104.585,201.922 101.254,201.922L93.225,201.922C89.895,201.922 87.185,204.631 87.185,207.962L87.185,215.991C87.185,219.321 89.895,222.031 93.225,222.031L101.254,222.031C104.585,222.031 107.294,219.321 107.294,215.991ZM101.254,203.814C103.542,203.814 105.403,205.674 105.403,207.962L105.403,215.991C105.403,218.278 103.542,220.139 101.254,220.139L93.225,220.139C90.938,220.139 89.077,218.278 89.077,215.991L89.077,207.962C89.077,205.674 90.938,203.814 93.225,203.814L101.254,203.814ZM102.564,207.87C103.215,207.87 103.743,207.342 103.743,206.691C103.743,206.04 103.215,205.512 102.564,205.512C101.913,205.512 101.385,206.04 101.385,206.691C101.385,207.342 101.913,207.87 102.564,207.87ZM97.322,216.929C100.053,216.929 102.275,214.707 102.275,211.976C102.275,209.246 100.053,207.024 97.322,207.024C94.591,207.024 92.37,209.246 92.37,211.976C92.37,214.707 94.591,216.929 97.322,216.929ZM97.322,208.804C99.071,208.804 100.495,210.227 100.495,211.976C100.495,213.726 99.071,215.149 97.322,215.149C95.573,215.149 94.15,213.726 94.15,211.976C94.15,210.227 95.573,208.804 97.322,208.804Z" style="fill:rgb(248,248,248);"/>
        </g>
    </g>
</svg>
