<?xml version="1.0" encoding="UTF-8" standalone="no"?>
<!DOCTYPE svg PUBLIC "-//W3C//DTD SVG 1.1//EN" "http://www.w3.org/Graphics/SVG/1.1/DTD/svg11.dtd">
<svg width="100%" height="100%" viewBox="0 0 34 34" version="1.1" xmlns="http://www.w3.org/2000/svg" xmlns:xlink="http://www.w3.org/1999/xlink" xml:space="preserve" xmlns:serif="http://www.serif.com/" style="fill-rule:evenodd;clip-rule:evenodd;stroke-linejoin:round;stroke-miterlimit:2;">
    <g transform="matrix(1,0,0,1,-80.652,-81.389008)">
        <g transform="matrix(1,0,0,1,0,-114)">
            <path d="M97.322,208.804C95.573,208.804 94.15,210.227 94.15,211.976C94.15,213.726 95.573,215.149 97.322,215.149C99.071,215.149 100.495,213.726 100.495,211.976C100.495,210.227 99.071,208.804 97.322,208.804Z" style="fill-rule:nonzero;"/>
        </g>
        <g transform="matrix(1,0,0,1,0,-114)">
            <path d="M102.564,207.87C101.913,207.87 101.385,207.342 101.385,206.691C101.385,206.04 101.913,205.512 102.564,205.512C103.215,205.512 103.743,206.04 103.743,206.691C103.743,207.342 103.215,207.87 102.564,207.87ZM97.322,216.929C94.591,216.929 92.37,214.707 92.37,211.976C92.37,209.246 94.591,207.024 97.322,207.024C100.053,207.024 102.275,209.246 102.275,211.976C102.275,214.707 100.053,216.929 97.322,216.929ZM101.254,203.814L93.225,203.814C90.938,203.814 89.077,205.674 89.077,207.962L89.077,215.991C89.077,218.278 90.938,220.139 93.225,220.139L101.254,220.139C103.542,220.139 105.403,218.278 105.403,215.991L105.403,207.962C105.403,205.674 103.542,203.814 101.254,203.814Z" style="fill-rule:nonzero;"/>
        </g>
        <g transform="matrix(1,0,0,1,0,-114)">
            <path d="M107.294,215.991C107.294,219.321 104.585,222.031 101.254,222.031L93.225,222.031C89.895,222.031 87.185,219.321 87.185,215.991L87.185,207.962C87.185,204.631 89.895,201.922 93.225,201.922L101.254,201.922C104.585,201.922 107.294,204.631 107.294,207.962L107.294,215.991ZM97.239,195.389C88.078,195.389 80.652,202.815 80.652,211.977C80.652,221.138 88.078,228.564 97.239,228.564C106.401,228.564 113.828,221.138 113.828,211.977C113.828,202.815 106.401,195.389 97.239,195.389Z" style="fill-rule:nonzero;"/>
        </g>
    </g>
</svg>
