<?xml version="1.0" encoding="UTF-8" standalone="no"?>
<!DOCTYPE svg PUBLIC "-//W3C//DTD SVG 1.1//EN" "http://www.w3.org/Graphics/SVG/1.1/DTD/svg11.dtd">
<svg width="100%" height="100%" viewBox="0 0 34 34" version="1.1" xmlns="http://www.w3.org/2000/svg" xmlns:xlink="http://www.w3.org/1999/xlink" xml:space="preserve" xmlns:serif="http://www.serif.com/" style="fill-rule:evenodd;clip-rule:evenodd;stroke-linejoin:round;stroke-miterlimit:2;">
    <g transform="matrix(1,0,0,1,-551.195007,-81.389008)">
        <g transform="matrix(1,0,0,1,0,-114)">
            <path d="M572.82,214.373C572.522,215.095 571.784,215.559 571.035,215.701C570.319,215.837 569.729,215.609 569.067,215.39C568.476,215.195 567.906,214.91 567.376,214.586C566.316,213.937 565.401,213.068 564.665,212.069C564.44,211.763 564.232,211.445 564.04,211.118C563.786,210.684 563.559,210.227 563.441,209.738C563.392,209.535 563.366,209.325 563.364,209.114C563.355,208.373 563.638,207.625 564.224,207.147C564.564,206.871 565.066,206.75 565.447,206.965C565.862,207.2 566.077,207.79 566.269,208.204C566.42,208.528 566.59,208.954 566.528,209.317C566.466,209.681 566.178,209.988 565.949,210.258C565.794,210.44 565.771,210.595 565.899,210.792C566.658,212.057 567.713,212.975 569.088,213.523C569.275,213.599 569.421,213.575 569.543,213.425C569.78,213.132 570.014,212.558 570.38,212.408C570.858,212.213 571.386,212.484 571.791,212.726C572.169,212.952 572.8,213.229 572.902,213.696C572.951,213.922 572.907,214.16 572.82,214.373ZM568.127,203.367C563.722,203.367 560.138,206.951 560.138,211.356C560.138,212.811 560.542,214.243 561.306,215.498L561.513,215.838L560.715,218.817L563.711,218.014L564.048,218.216C565.288,218.955 566.699,219.345 568.127,219.345C572.532,219.345 576.116,215.762 576.116,211.356C576.116,206.951 572.532,203.367 568.127,203.367Z" style="fill-rule:nonzero;"/>
        </g>
        <g transform="matrix(1,0,0,1,0,-114)">
            <path d="M568.127,221.207C566.496,221.207 564.886,220.796 563.444,220.014L558.081,221.45L559.511,216.115C558.702,214.654 558.275,213.018 558.275,211.356C558.275,205.924 562.695,201.505 568.127,201.505C573.558,201.505 577.978,205.924 577.978,211.356C577.978,216.788 573.558,221.207 568.127,221.207ZM567.783,195.389C558.622,195.389 551.195,202.815 551.195,211.977C551.195,221.138 558.622,228.564 567.783,228.564C576.944,228.564 584.371,221.138 584.371,211.977C584.371,202.815 576.944,195.389 567.783,195.389Z" style="fill-rule:nonzero;"/>
        </g>
    </g>
</svg>
