<svg xmlns="http://www.w3.org/2000/svg" viewBox="0 0 952.17 252.74"><defs><style>.cls-1{fill:#118187;fill-rule:evenodd;}.cls-2{fill:#1d1d1b;}.cls-3{fill:none;stroke:#000;stroke-miterlimit:10;stroke-width:2px;}</style></defs><g id="Camada_2" data-name="Camada 2"><g id="Camada_1-2" data-name="Camada 1"><path class="cls-1" d="M0,31.58,31.27,4,92.93,127.28,31,252.72,0,225.09ZM56.2,4H196.36L227.6,26v83.51l-20.85,17.83L227.6,145v85.85l-31.24,21.87h-140l60.16-125.63ZM90.89,231.29H189l16.86-11.8V154.93l-33-27.61,33-27.84V36.79L189,25.44H90.89l49.85,101.7Z"/><path d="M360.71,11.35,353.38,4H281.7V164.7h68.9l8.62-8.62V95.66L345.1,81.54l15.61-15.61ZM338.45,146.44H304.5V91h25.8l8.15,8.15Zm0-82.68-7.37,7.36-26.58.24V22.48H336l2.45,2.45Z"/><path d="M438.23,6.33H413L380,166.8H402.8L408.91,135h32.58l6.93,31.77h21.17ZM412.57,114.67l12.22-72.91,13,72.91Z"/><polygon points="491.05 166.8 555.13 166.8 555.13 146.44 513.85 146.44 513.85 4.02 491.05 4.02 491.05 166.8"/><polygon points="577.39 166.8 599.11 166.8 599.11 70.27 617.58 143.59 633.87 143.59 653.96 70.27 653.96 166.8 674.6 166.8 674.6 6.33 653.42 6.33 626 86.56 599.11 4.02 577.39 4.02 577.39 166.8"/><polygon points="703.38 166.8 703.38 4.02 768.55 4.02 768.55 24.66 725.65 24.66 725.65 75.16 763.12 75.16 763.12 92 725.65 92 725.65 146.3 768.55 146.3 768.55 166.8 703.38 166.8"/><polygon points="792.99 166.8 792.99 4.02 864.67 4.02 872.54 11.89 872.54 85.41 865.32 92.64 850.01 92.64 877.16 166.8 852.72 166.8 825.57 91.45 825.57 77.88 849.47 77.88 849.47 24.11 815.25 24.11 815.25 166.8 792.99 166.8"/><path class="cls-2" d="M300.27,236.57h-5V198.49H282v-4.35h31.61v4.35h-13.3Z"/><path class="cls-2" d="M331.45,194.14a24.64,24.64,0,0,1,8.63,1.29,10.06,10.06,0,0,1,5.1,3.93,12.35,12.35,0,0,1,1.68,6.73,11.71,11.71,0,0,1-1.22,5.62,10.53,10.53,0,0,1-3.19,3.64,16.27,16.27,0,0,1-4.21,2.15l11.64,19.07h-5.75l-10.39-17.7h-8.82v17.7H320V194.14Zm-.29,4.26h-6.24v16.29h6.73q5.19,0,7.65-2.12a7.83,7.83,0,0,0,2.45-6.24q0-4.34-2.6-6.13T331.16,198.4Z"/><path class="cls-2" d="M383.29,236.57l-5.23-13.47h-17l-5.19,13.47h-5L367.47,194h4.44l16.48,42.61Zm-6.71-17.85-5-13.38q-.18-.53-.57-1.71c-.26-.8-.53-1.62-.8-2.47s-.49-1.54-.66-2.06c-.2.79-.41,1.58-.63,2.36s-.44,1.51-.65,2.18-.4,1.23-.55,1.7l-5.05,13.38Z"/><path class="cls-2" d="M428,215a24.71,24.71,0,0,1-2.62,12,16.85,16.85,0,0,1-7.56,7.23,27.17,27.17,0,0,1-12,2.42H394.26V194.14h12.8a24.42,24.42,0,0,1,11.15,2.36,16.68,16.68,0,0,1,7.21,7A23.56,23.56,0,0,1,428,215Zm-5.2.17a20.58,20.58,0,0,0-1.9-9.43,12.18,12.18,0,0,0-5.57-5.53,20.17,20.17,0,0,0-9-1.82h-7.11v34h6q8.78,0,13.16-4.32T422.76,215.12Z"/><path class="cls-2" d="M437.39,236.57V194.14h4.94v42.43Z"/><path class="cls-2" d="M472.13,197.88a15.88,15.88,0,0,0-6.31,1.2,13,13,0,0,0-4.76,3.49,15.77,15.77,0,0,0-3,5.5,23.33,23.33,0,0,0-1.05,7.25,23.7,23.7,0,0,0,1.67,9.28,13.14,13.14,0,0,0,5,6.08,15.06,15.06,0,0,0,8.32,2.15,28.39,28.39,0,0,0,5.35-.48,45.53,45.53,0,0,0,4.9-1.21v4.3a25.92,25.92,0,0,1-4.88,1.29,38,38,0,0,1-6.07.42,20.2,20.2,0,0,1-10.81-2.68,16.51,16.51,0,0,1-6.5-7.59,28.56,28.56,0,0,1-2.16-11.58,27.32,27.32,0,0,1,1.35-8.81,19.72,19.72,0,0,1,3.94-6.9,17.51,17.51,0,0,1,6.39-4.48,22.27,22.27,0,0,1,8.69-1.58,30,30,0,0,1,6.21.63,23.15,23.15,0,0,1,5.4,1.83l-2,4.18a31.4,31.4,0,0,0-4.46-1.61A19.42,19.42,0,0,0,472.13,197.88Zm3.95,47a5.13,5.13,0,0,1-2.17,4.4c-1.46,1-3.58,1.58-6.39,1.58a13.33,13.33,0,0,1-1.71-.1,13,13,0,0,1-1.31-.22v-3.05a13.45,13.45,0,0,0,1.42.21,17,17,0,0,0,1.75.09,7.07,7.07,0,0,0,3.33-.64,2.26,2.26,0,0,0,1.16-2.15,2.4,2.4,0,0,0-1.55-2.32,12.3,12.3,0,0,0-4-1l2.58-5.11h3.22l-1.56,3.25a10.37,10.37,0,0,1,2.62.9,5.07,5.07,0,0,1,1.88,1.63A4.37,4.37,0,0,1,476.08,244.87Z"/><path class="cls-2" d="M518.05,236.57l-5.22-13.47h-17l-5.2,13.47h-5L502.23,194h4.45l16.48,42.61Zm-24.61-46.76a13.1,13.1,0,0,1,.67-3.11,7.65,7.65,0,0,1,1.3-2.32,5.58,5.58,0,0,1,1.93-1.46,6,6,0,0,1,2.49-.51,6.24,6.24,0,0,1,2.55.54,18.18,18.18,0,0,1,2.32,1.21c.74.46,1.45.87,2.14,1.22a4.22,4.22,0,0,0,2,.54,2.75,2.75,0,0,0,2.17-.86,6,6,0,0,0,1.17-2.71H515a10.26,10.26,0,0,1-2,5.41,5.31,5.31,0,0,1-4.38,2,6,6,0,0,1-2.47-.54,20,20,0,0,1-2.29-1.21c-.74-.46-1.46-.87-2.16-1.22a4.57,4.57,0,0,0-2.08-.54,2.7,2.7,0,0,0-2.17.86,5.93,5.93,0,0,0-1.17,2.68Zm17.91,28.91-5-13.38q-.18-.53-.57-1.71c-.26-.8-.53-1.62-.8-2.47s-.49-1.54-.67-2.06c-.19.79-.4,1.58-.62,2.36s-.44,1.51-.65,2.18-.4,1.23-.56,1.7l-5,13.38Z"/><path class="cls-2" d="M565.83,215.3a30,30,0,0,1-1.25,8.92,19.36,19.36,0,0,1-3.7,6.91,16.3,16.3,0,0,1-6.08,4.45,21,21,0,0,1-8.42,1.57,21.64,21.64,0,0,1-8.6-1.57,15.9,15.9,0,0,1-6.1-4.47,19.41,19.41,0,0,1-3.63-6.93,31.29,31.29,0,0,1-1.2-8.94A28.09,28.09,0,0,1,529,203.83a16.61,16.61,0,0,1,6.51-7.63,20.34,20.34,0,0,1,11-2.73,19.61,19.61,0,0,1,10.61,2.7,17,17,0,0,1,6.53,7.59A27.69,27.69,0,0,1,565.83,215.3Zm-33.78,0a25.82,25.82,0,0,0,1.53,9.34,12.76,12.76,0,0,0,4.72,6.1,16.34,16.34,0,0,0,16.17,0,12.65,12.65,0,0,0,4.66-6.1,26.29,26.29,0,0,0,1.5-9.34q0-8.22-3.43-12.85t-10.73-4.63a14.45,14.45,0,0,0-8.13,2.12,12.52,12.52,0,0,0-4.74,6A25.2,25.2,0,0,0,532.05,215.3Z"/><path class="cls-2" d="M614.33,236.57H590.71V194.14h23.62v4.35H595.64v13.73h17.62v4.29H595.64v15.71h18.69Z"/><path class="cls-2" d="M642.4,236.57,628.15,199h-.23c.07.8.14,1.76.2,2.9s.11,2.39.14,3.73.06,2.72.06,4.11v26.82h-4.58V194.14h7.31l13.44,35.29h.2l13.65-35.29h7.25v42.43h-4.87V209.4c0-1.25,0-2.52,0-3.79s.09-2.46.15-3.59.12-2.12.17-3h-.23l-14.43,37.5Z"/><path class="cls-2" d="M716.59,225.28a10.85,10.85,0,0,1-1.87,6.43,11.74,11.74,0,0,1-5.24,4,20.66,20.66,0,0,1-7.93,1.39,43.68,43.68,0,0,1-4.55-.23,32.09,32.09,0,0,1-4-.67,17.16,17.16,0,0,1-3.16-1.07v-4.73a38.3,38.3,0,0,0,5.31,1.67,27.54,27.54,0,0,0,6.56.76,15,15,0,0,0,5.4-.85,7.08,7.08,0,0,0,3.35-2.47,7.24,7.24,0,0,0,.19-7.52,8.72,8.72,0,0,0-3.18-2.67,44.86,44.86,0,0,0-6-2.57,30.83,30.83,0,0,1-4.76-2.1,14.31,14.31,0,0,1-3.46-2.6,9.73,9.73,0,0,1-2.1-3.37,12.35,12.35,0,0,1-.71-4.38,9.73,9.73,0,0,1,1.73-5.82,10.93,10.93,0,0,1,4.78-3.71,18,18,0,0,1,7-1.29,29.53,29.53,0,0,1,6.29.63,27.57,27.57,0,0,1,5.29,1.72L714,200.11a33.87,33.87,0,0,0-4.87-1.59,21.59,21.59,0,0,0-5.29-.64,11.74,11.74,0,0,0-4.6.8,6.34,6.34,0,0,0-2.86,2.25,6,6,0,0,0-1,3.45,6.89,6.89,0,0,0,.94,3.72,8.18,8.18,0,0,0,3,2.62,39.5,39.5,0,0,0,5.5,2.4,39.13,39.13,0,0,1,6.36,2.89,11.17,11.17,0,0,1,4,3.71A10.36,10.36,0,0,1,716.59,225.28Z"/><path class="cls-2" d="M762.05,215.3a30,30,0,0,1-1.25,8.92,19.68,19.68,0,0,1-3.7,6.91,16.42,16.42,0,0,1-6.09,4.45,20.93,20.93,0,0,1-8.41,1.57,21.73,21.73,0,0,1-8.61-1.57,15.79,15.79,0,0,1-6.09-4.47,19.09,19.09,0,0,1-3.63-6.93,30.93,30.93,0,0,1-1.21-8.94,28.26,28.26,0,0,1,2.15-11.41,16.57,16.57,0,0,1,6.52-7.63,20.3,20.3,0,0,1,10.95-2.73,19.61,19.61,0,0,1,10.61,2.7,17,17,0,0,1,6.53,7.59A27.69,27.69,0,0,1,762.05,215.3Zm-33.79,0a25.6,25.6,0,0,0,1.54,9.34,12.68,12.68,0,0,0,4.71,6.1,16.34,16.34,0,0,0,16.17,0,12.65,12.65,0,0,0,4.66-6.1,26.06,26.06,0,0,0,1.51-9.34q0-8.22-3.44-12.85t-10.73-4.63a14.41,14.41,0,0,0-8.12,2.12,12.6,12.6,0,0,0-4.75,6A25.41,25.41,0,0,0,728.26,215.3Z"/><path class="cls-2" d="M771.48,236.57V194.14h4.93v38h18.84v4.41Z"/><path class="cls-2" d="M836.21,215a24.71,24.71,0,0,1-2.62,12,16.85,16.85,0,0,1-7.56,7.23,27.17,27.17,0,0,1-12,2.42H802.51V194.14h12.8a24.35,24.35,0,0,1,11.14,2.36,16.65,16.65,0,0,1,7.22,7A23.56,23.56,0,0,1,836.21,215Zm-5.2.17a20.58,20.58,0,0,0-1.9-9.43,12.22,12.22,0,0,0-5.57-5.53,20.17,20.17,0,0,0-9-1.82h-7.11v34h6q8.76,0,13.16-4.32T831,215.12Z"/><path class="cls-2" d="M872.26,236.57,867,223.1H850l-5.19,13.47h-5L856.44,194h4.44l16.48,42.61Zm-6.71-17.85-5-13.38q-.18-.53-.57-1.71c-.26-.8-.53-1.62-.8-2.47s-.49-1.54-.66-2.06c-.2.79-.41,1.58-.63,2.36s-.44,1.51-.65,2.18-.4,1.23-.55,1.7l-5.05,13.38Z"/><path d="M926.76,13.1a29.66,29.66,0,0,1,7.58.81,8.94,8.94,0,0,1,4.47,2.45,6,6,0,0,1,1.46,4.15,5.29,5.29,0,0,1-1,3.21,7.6,7.6,0,0,1-2.54,2.21,15.65,15.65,0,0,1-3.38,1.37l10.07,11.28h-6.57l-8.59-10.2h-5.68v10.2h-5.82V13.1Zm-.39,3.5h-3.76v8.32h4c2.68,0,4.64-.36,5.86-1.09a3.48,3.48,0,0,0,1.83-3.19,3.21,3.21,0,0,0-2-3.12A14.93,14.93,0,0,0,926.37,16.6Z"/><circle class="cls-3" cx="926.73" cy="25.44" r="24.44"/></g></g></svg>