<svg xmlns="http://www.w3.org/2000/svg" viewBox="0 0 1170.94 264.47"><defs><style>.cls-1{fill:#253880;}.cls-2{fill:#cf3638;}.cls-3{fill:#f39536;}.cls-4{fill:#ffcc2f;}.cls-5{fill:#23397d;}.cls-6{fill:none;stroke:#23397d;stroke-miterlimit:10;stroke-width:3px;}</style></defs><g id="Camada_2" data-name="Camada 2"><g id="Camada_1-2" data-name="Camada 1"><path class="cls-1" d="M123.67,0V37.08H46.28V77.13h57.91v36H46.28V190H0V0Z"/><path class="cls-1" d="M200.8,37.08V75.5h62v35.73h-62V152.9h70.09V190H154.52V0H270.89V37.08Z"/><path class="cls-1" d="M404.3,190l-39.51-71.72H353.7V190H307.42V0h77.67q22.46,0,38.29,7.85t23.68,21.51a60.09,60.09,0,0,1,7.85,30.45,56.59,56.59,0,0,1-10.69,33.83q-10.7,14.88-31.53,21.1L456.53,190ZM353.7,85.52h28.68q12.72,0,19.08-6.23t6.36-17.59q0-10.81-6.36-17.05t-19.08-6.22H353.7Z"/><path class="cls-1" d="M587.24,190l-39.51-71.72h-11.1V190H490.35V0H568q22.47,0,38.3,7.85T630,29.36a60,60,0,0,1,7.85,30.45,56.52,56.52,0,0,1-10.69,33.83q-10.7,14.88-31.52,21.1L639.47,190ZM536.63,85.52h28.69q12.7,0,19.07-6.23t6.36-17.59q0-10.81-6.36-17.05t-19.07-6.22H536.63Z"/><path class="cls-1" d="M961.76,190l-39.51-71.72H911.16V190H864.88V0h77.67Q965,0,980.84,7.85t23.68,21.51a60.09,60.09,0,0,1,7.85,30.45,56.59,56.59,0,0,1-10.69,33.83q-10.7,14.88-31.53,21.1L1014,190ZM911.16,85.52h28.68q12.72,0,19.08-6.23t6.36-17.59q0-10.81-6.36-17.05t-19.08-6.22H911.16Z"/><path class="cls-1" d="M1094.09,0V190h-46.27V0Z"/><polygon class="cls-2" points="723.76 0 777.35 0 813.23 99.18 768.5 99.18 751.65 55.2 734.21 99.18 688.49 99.18 723.76 0"/><polygon class="cls-3" points="797.1 189.98 846.08 189.98 820.95 120.51 783.24 140.27 797.1 189.98"/><polygon class="cls-4" points="704.28 189.98 655.3 189.98 680.43 120.51 718.14 140.27 704.28 189.98"/><polygon class="cls-1" points="788.84 191.48 750.42 192.24 712 193.01 730.9 177.01 749.8 161.01 769.32 176.24 788.84 191.48"/><path d="M34.87,203.34v8.1H13.62v17.85H30.19v8.1H13.62v26.47H5.4V203.34Z"/><path d="M52.46,211.35v17.76H69.75v8.1H52.46v18.55H71.91v8.1H44.24V203.25H71.91v8.1Z"/><path d="M109.74,263.86,98.21,239.65H91.94v24.21H83.73V203.34H101a18.42,18.42,0,0,1,9.77,2.44,15.43,15.43,0,0,1,6,6.53,21.87,21.87,0,0,1-.87,19.89,14.43,14.43,0,0,1-8.75,6.58l12.39,25.08Zm-17.8-32.13H101c3.08,0,5.39-.93,7-2.79a11.27,11.27,0,0,0,2.34-7.49,10.86,10.86,0,0,0-2.31-7.36q-2.31-2.66-7-2.65H91.94Z"/><path d="M157,263.86l-11.53-24.21h-6.27v24.21H131V203.34h17.29a18.36,18.36,0,0,1,9.76,2.44,15.3,15.3,0,0,1,6,6.53,21.83,21.83,0,0,1-.86,19.89,14.43,14.43,0,0,1-8.75,6.58l12.39,25.08Zm-17.8-32.13h9.08q4.61,0,7-2.79a11.27,11.27,0,0,0,2.35-7.49,10.86,10.86,0,0,0-2.31-7.36q-2.31-2.66-7-2.65h-9.08Z"/><path d="M208.46,251.49h-21l-3.6,12.37h-8.58l17.94-60.61h9.51l18,60.61h-8.65Zm-2.31-8.1L198,215.27l-8.22,28.12Z"/><path d="M283,203.34v60.52h-8.21V222.41l-15.28,41.45h-5.69l-15.35-41.45v41.45h-8.21V203.34h8.86l17.58,47.45,17.51-47.45Z"/><path d="M303.72,211.35v17.76H321v8.1H303.72v18.55h19.45v8.1H295.5V203.25h27.67v8.1Z"/><path d="M376.13,263.86h-8.21l-24.72-45.2v45.2H335V203.25h8.21l24.72,45.11V203.25h8.21Z"/><path d="M421,203.34v8.1H407.69v52.42h-8.21V211.44H386.07v-8.1Z"/><path d="M461.23,251.49h-21l-3.6,12.37h-8.58L446,203.25h9.51l17.94,60.61h-8.65Zm-2.31-8.1-8.14-28.12-8.21,28.12Z"/><path d="M490.41,262.33a15.78,15.78,0,0,1-6.34-6.05,17.66,17.66,0,0,1-2.3-9.14h8.79a10.47,10.47,0,0,0,2.55,6.44,8.13,8.13,0,0,0,6.38,2.53,8.38,8.38,0,0,0,9-8.88,7.94,7.94,0,0,0-1.48-5,10.09,10.09,0,0,0-3.67-3,48.37,48.37,0,0,0-6.09-2.26,51.73,51.73,0,0,1-8-3.18,13.84,13.84,0,0,1-5.22-5,16.67,16.67,0,0,1-2.16-9,18.67,18.67,0,0,1,2.16-9.15,14.75,14.75,0,0,1,6.05-6,18.7,18.7,0,0,1,9-2.09A16.67,16.67,0,0,1,511.06,207q4.63,4.41,5.15,12.06h-9.08a8.48,8.48,0,0,0-8.86-8,7.92,7.92,0,0,0-5.77,2.18,8.35,8.35,0,0,0-2.23,6.27,7.2,7.2,0,0,0,1.4,4.57,10.09,10.09,0,0,0,3.57,2.83,47.71,47.71,0,0,0,5.91,2.26,56,56,0,0,1,8.1,3.31,14.32,14.32,0,0,1,5.34,5.1q2.19,3.43,2.19,9.18a19.14,19.14,0,0,1-2,8.71,16.24,16.24,0,0,1-6,6.57,16.92,16.92,0,0,1-9.26,2.49A19,19,0,0,1,490.41,262.33Z"/><path d="M581.92,230.07a15,15,0,0,1-5.76,6.66A18.3,18.3,0,0,1,566,239.3h-9.08v24.56H548.7V203.34H566a18.73,18.73,0,0,1,9.76,2.39,15.09,15.09,0,0,1,6,6.49,20.73,20.73,0,0,1,2,9.14A21.39,21.39,0,0,1,581.92,230.07ZM573,228.63q2.29-2.56,2.3-7.27,0-9.92-9.29-9.92h-9.08V231.2H566C569.12,231.2,571.45,230.35,573,228.63Z"/><path d="M619.32,263.86l-11.53-24.21h-6.27v24.21h-8.21V203.34H610.6a18.36,18.36,0,0,1,9.76,2.44,15.39,15.39,0,0,1,6,6.53,21.87,21.87,0,0,1-.87,19.89,14.43,14.43,0,0,1-8.75,6.58l12.39,25.08Zm-17.8-32.13h9.08q4.6,0,6.95-2.79a11.27,11.27,0,0,0,2.35-7.49,10.86,10.86,0,0,0-2.31-7.36q-2.31-2.66-7-2.65h-9.08Z"/><path d="M650.56,260.5a27.2,27.2,0,0,1-9.3-11.05,38.95,38.95,0,0,1,0-31.92,27.28,27.28,0,0,1,9.3-11,23,23,0,0,1,25.79,0,27,27,0,0,1,9.26,11,39.26,39.26,0,0,1,0,31.92,27,27,0,0,1-9.26,11.05,22.93,22.93,0,0,1-25.79,0Zm21.72-7.4a18.12,18.12,0,0,0,6.09-7.83,29.68,29.68,0,0,0,2.2-11.8,29.37,29.37,0,0,0-2.2-11.76,17.87,17.87,0,0,0-6.09-7.75,15.89,15.89,0,0,0-17.72,0,17.73,17.73,0,0,0-6.09,7.75,29.2,29.2,0,0,0-2.2,11.76,29.5,29.5,0,0,0,2.2,11.8,18,18,0,0,0,6.09,7.83,15.65,15.65,0,0,0,17.72,0Z"/><path d="M728.27,203.34v8.1H707v17.85h16.57v8.1H707v26.47H698.8V203.34Z"/><path d="M745.85,203.34v60.52h-8.21V203.34Z"/><path d="M765.81,262.33a15.72,15.72,0,0,1-6.34-6.05,17.66,17.66,0,0,1-2.31-9.14H766a10.47,10.47,0,0,0,2.56,6.44,8.11,8.11,0,0,0,6.38,2.53,8.75,8.75,0,0,0,6.63-2.49,8.86,8.86,0,0,0,2.37-6.39,7.94,7.94,0,0,0-1.47-5,10.12,10.12,0,0,0-3.68-3,47.2,47.2,0,0,0-6.09-2.26,51.56,51.56,0,0,1-8-3.18,13.84,13.84,0,0,1-5.22-5,16.67,16.67,0,0,1-2.16-9,18.67,18.67,0,0,1,2.16-9.15,14.75,14.75,0,0,1,6-6,18.67,18.67,0,0,1,9-2.09A16.64,16.64,0,0,1,786.45,207q4.65,4.41,5.15,12.06h-9.07a8.48,8.48,0,0,0-8.87-8,7.92,7.92,0,0,0-5.76,2.18,8.36,8.36,0,0,0-2.24,6.27,7.14,7.14,0,0,0,1.41,4.57,10.09,10.09,0,0,0,3.57,2.83,47.71,47.71,0,0,0,5.91,2.26,56,56,0,0,1,8.1,3.31,14.23,14.23,0,0,1,5.33,5.1q2.21,3.43,2.2,9.18a19.14,19.14,0,0,1-2,8.71,16.24,16.24,0,0,1-6,6.57,16.94,16.94,0,0,1-9.26,2.49A19,19,0,0,1,765.81,262.33Z"/><path d="M811.06,262.33a15.78,15.78,0,0,1-6.34-6.05,17.66,17.66,0,0,1-2.31-9.14h8.79a10.53,10.53,0,0,0,2.56,6.44,8.11,8.11,0,0,0,6.38,2.53,8.75,8.75,0,0,0,6.63-2.49,8.86,8.86,0,0,0,2.38-6.39,7.94,7.94,0,0,0-1.48-5,10.12,10.12,0,0,0-3.68-3,47.54,47.54,0,0,0-6.08-2.26,51.32,51.32,0,0,1-8-3.18,13.84,13.84,0,0,1-5.22-5,16.67,16.67,0,0,1-2.16-9,18.67,18.67,0,0,1,2.16-9.15,14.75,14.75,0,0,1,6-6,18.7,18.7,0,0,1,9-2.09A16.63,16.63,0,0,1,831.7,207q4.65,4.41,5.16,12.06h-9.08a8.48,8.48,0,0,0-8.87-8,7.92,7.92,0,0,0-5.76,2.18,8.35,8.35,0,0,0-2.23,6.27,7.14,7.14,0,0,0,1.4,4.57,10.09,10.09,0,0,0,3.57,2.83,47.71,47.71,0,0,0,5.91,2.26,56,56,0,0,1,8.1,3.31,14.23,14.23,0,0,1,5.33,5.1q2.21,3.43,2.2,9.18a19.14,19.14,0,0,1-2,8.71,16.24,16.24,0,0,1-6,6.57,16.94,16.94,0,0,1-9.26,2.49A19,19,0,0,1,811.06,262.33Z"/><path d="M857.1,203.34v60.52h-8.21V203.34Z"/><path d="M879.62,260.5a27.26,27.26,0,0,1-9.29-11.05,38.85,38.85,0,0,1,0-31.92,27.34,27.34,0,0,1,9.29-11,23,23,0,0,1,25.8,0,27.12,27.12,0,0,1,9.26,11,39.37,39.37,0,0,1,0,31.92,27,27,0,0,1-9.26,11.05,22.94,22.94,0,0,1-25.8,0Zm21.73-7.4a18.12,18.12,0,0,0,6.09-7.83,29.68,29.68,0,0,0,2.19-11.8,29.38,29.38,0,0,0-2.19-11.76,17.87,17.87,0,0,0-6.09-7.75,15.9,15.9,0,0,0-17.73,0,17.87,17.87,0,0,0-6.09,7.75,29.2,29.2,0,0,0-2.2,11.76,29.5,29.5,0,0,0,2.2,11.8,18.12,18.12,0,0,0,6.09,7.83,15.66,15.66,0,0,0,17.73,0Z"/><path d="M969,263.86h-8.22l-24.71-45.2v45.2h-8.22V203.25h8.22l24.71,45.11V203.25H969Z"/><path d="M1011.74,251.49h-21l-3.6,12.37h-8.58l17.94-60.61H1006l18,60.61h-8.65Zm-2.31-8.1-8.14-28.12-8.22,28.12Z"/><path d="M1041.71,203.34v60.52h-8.21V203.34Z"/><path d="M1061.67,262.33a15.78,15.78,0,0,1-6.34-6.05,17.66,17.66,0,0,1-2.31-9.14h8.8a10.47,10.47,0,0,0,2.55,6.44,8.13,8.13,0,0,0,6.38,2.53,8.38,8.38,0,0,0,9-8.88,7.94,7.94,0,0,0-1.48-5,10.09,10.09,0,0,0-3.67-3,48.37,48.37,0,0,0-6.09-2.26,51.73,51.73,0,0,1-8-3.18,13.84,13.84,0,0,1-5.22-5,16.67,16.67,0,0,1-2.16-9,18.67,18.67,0,0,1,2.16-9.15,14.75,14.75,0,0,1,6.05-6,18.7,18.7,0,0,1,9-2.09,16.67,16.67,0,0,1,11.93,4.39q4.64,4.41,5.15,12.06h-9.08a8.48,8.48,0,0,0-8.86-8,7.92,7.92,0,0,0-5.77,2.18,8.35,8.35,0,0,0-2.23,6.27,7.2,7.2,0,0,0,1.4,4.57,10.09,10.09,0,0,0,3.57,2.83,47.71,47.71,0,0,0,5.91,2.26,56,56,0,0,1,8.1,3.31,14.32,14.32,0,0,1,5.34,5.1Q1088,241,1088,246.7a19.14,19.14,0,0,1-2,8.71,16.24,16.24,0,0,1-6,6.57,16.92,16.92,0,0,1-9.26,2.49A19,19,0,0,1,1061.67,262.33Z"/><path class="cls-5" d="M1142.43,21.62a33.23,33.23,0,0,1,8.39.89,9.94,9.94,0,0,1,4.94,2.71,6.64,6.64,0,0,1,1.62,4.59,5.91,5.91,0,0,1-1.07,3.56,8.6,8.6,0,0,1-2.82,2.44,17.48,17.48,0,0,1-3.73,1.52l11.14,12.48h-7.28l-9.5-11.28h-6.28V49.81h-6.44V21.62Zm-.43,3.87h-4.16v9.2h4.46q4.46,0,6.48-1.2a3.84,3.84,0,0,0,2-3.52,3.56,3.56,0,0,0-2.16-3.46A16.39,16.39,0,0,0,1142,25.49Z"/><circle class="cls-6" cx="1142.41" cy="35.27" r="27.03"/></g></g></svg>