<svg xmlns="http://www.w3.org/2000/svg" viewBox="0 0 1386.4 294.65"><defs><style>.cls-1{fill:#28539c;}.cls-1,.cls-2{fill-rule:evenodd;}.cls-2{fill:#fadf3c;}</style></defs><g id="Camada_2" data-name="Camada 2"><g id="Camada_1-2" data-name="Camada 1"><path class="cls-1" d="M1386.4,294.65H0V0H1386.4V294.65Z"/><path class="cls-2" d="M1105.71,205.43,1134.4,96.72h84s28.69,3.36,28.69,31.57-25.31,38.84-25.31,38.84l7.85,38.88h-51.23l-7.9-32.14h-5.66L1154.7,206l-49-.58ZM1180,111.36l-11.28,45.06,13.52,1.11a11.4,11.4,0,0,0,7.91-7.31c2.25-6.18,7.32-32.09,7.32-32.09s.54-6.76-5.67-6.76ZM185.22,152.68h46.66l-15,56.1H138.52s-38.88-10.56-28.28-51.66c9.65-37.64,30.11-50.66,62.77-57.21,19.38-3.92,42.77,7.22,42.77,7.22l-7.2,14.43s-10.59-7.18-21.14-7.18-15,6.09-16.65,11.08-16.7,61.66-16.7,61.66-2.77,13.87,17.23,8.3l13.9-42.74ZM319.09,97.13s52.75,2.79,50,42.76S341.32,211,302.39,211s-52.76-15-52.76-48.85S283.56,97.13,319.09,97.13Zm0,17.25c-10,0-11.67,6.62-11.67,6.62s-13.91,56.67-16.11,63.35-1.67,13.32,6.65,13.32,11.71-12.22,11.71-12.22l15.52-60.57c.55-2.19,3.91-10.5-6.1-10.5Zm137.2-17.25s52.78,2.79,50,42.76S478.54,211,439.67,211s-52.82-15-52.82-48.85,33.9-65,69.44-65Zm0,17.25c-10,0-11.67,6.62-11.67,6.62s-13.9,56.67-16.1,63.35-1.71,13.32,6.68,13.32,11.66-12.22,11.66-12.22l15.53-60.57c.54-2.19,3.91-10.5-6.1-10.5Zm55.56,94.41L539,99.38l74.42.54s28.91,2.76,28.91,41.12-32.2,66.13-51.06,66.64-79.46,1.11-79.46,1.11ZM580.73,116l-18.9,77.23h12.79c2.79,0,6.11,1.64,9.44-9.44s14.46-57.22,14.46-57.22,2.76-11.13-5-11.13a126.8,126.8,0,0,0-12.76.56ZM774,100.5l17.83,59.39-12.25,48.38h50l14.44-47.8,49.43-60H871.25S839.08,141,837.4,136s-12.79-36.62-12.79-36.62L774,100.5Zm131.14,0H994l-3.88,16.65-40,.56-6.68,25H969l-3.84,18.89H939.62l-7.81,28.37h38.34l-3.89,17.23h-88.9L905.14,100.5Zm182.76-1.13,8.9,107.79H1049l-1.66-17.23h-39.43L995.7,206H976.25l66.08-106.63h45.57Zm-69.43,74.4,27.75-.52s-4.46-35-4.46-36.64l-23.29,37.16Zm-268-23s-31.54,24.07-43.74,31.89l-19.32-39.17,27.07-14.3s9,19.59,14.13,18.91S740.16,137,740.16,137l10.29,13.78Zm3.88,6.44s-39.23,27.42-52.14,40.43c-12.72,13-37.93,40.48-58.56,45.05l1.34,5.21s16.72-3.28,36.65-22.18,25.73-26.11,39.25-37.17,36.65-27.42,36.65-27.42l-3.19-3.92Zm-53.37,32-20.62-39.79s-13.54,26.76-18.65,45-7.77,15.63-12.9,21.5-12.21,12.38-11.54,15-1.94,5.2,1.26,5.84,13.48-1.28,20.6-7.14,25.71-20.91,41.85-40.45Z"/><path class="cls-2" d="M706.71,182.69l-19.32-39.17,27.07-14.3s7.69,15.65,12.87,16.95,10.91-4.56,12.83-9.15l10.3,13.77s-36,26-43.75,31.9Zm-22.55-48.26s3.91-7.16,2.6-12.39l20.59,1.35Zm14.19-20.23,16.1,2-.68-11.09Zm13.52-19.54L680.34,112.3,672,94.66,712.5,72.49S708.68,81.67,711.87,94.66Z"/><path class="cls-2" d="M793,71.84c-.68,3.28,7.69,7.15,7.69,7.15-5.8,5.86-16.73,5.24-16.73,5.24-1.92,3.25,5.81,5.23,5.81,5.23-10.3,7.8-25.75.64-25.75.64,3.23,9.78-3.22,22.81-5.78,20.22s-5.14-7.82-5.14-1.32-4.51,11.77-4.51,11.77-4.48-12.43-7.08-4.56-8.57,21.08-10.32,19.54C720.87,126.59,728,99.88,728,99.88s-5.81-6.55-7.09-13.09,2.27-16.36,6.46-20.79c11.55-12.41,19.28-9.8,27-11.78s10.29,0,60.44,1.32,52.15-5.87,52.15-5.87C856,88.79,793.6,68.61,793,71.84Zm-38-6.5c-3.21,1.9-7.09,0-7.09,0a22.92,22.92,0,0,0-4.53,4.57,8.8,8.8,0,0,1-6.4,3.24s.68,2,5.8,2.6,9.65-3.9,9.65-3.9,2.57.65,6.4-1.33,4.05-3.27,4.05-3.27c7.6,1.64,11.44-5.86,8.19-5.22s-10.93-1.29-10.93-1.29A20.13,20.13,0,0,1,755,65.34ZM732.12,92.87c1.28,1.29,1.15,1.94,1.62,3.92s4.36,1.8,4.36,1.8l-2.28-10.48s-7.16-2.09-7.55-1.6c-2.73,3.29,2.58,5,3.85,6.36Z"/></g></g></svg>