<svg xmlns="http://www.w3.org/2000/svg" viewBox="0 0 604.11 154.2"><defs><style>.cls-1{fill:#f0a319;}</style></defs><g id="Camada_2" data-name="Camada 2"><g id="Camada_1-2" data-name="Camada 1"><rect class="cls-1" y="5.65" width="43.35" height="43.35"/><path class="cls-1" d="M65.48,151.78h43.24V43.44h26.33a9.18,9.18,0,0,1,9.18,9.18v99.16H190V40.16a34.51,34.51,0,0,0-34.5-34.51H65.48Z"/><rect class="cls-1" x="294.14" y="60.29" width="41.63" height="37.12"/><path class="cls-1" d="M559.47,85.26c-3.31,14.55-15.48,25.35-30,25.35s-26.68-10.8-30-25.35H457.84c3.88,38.74,35.08,68.94,73,68.94s69.13-30.2,73-68.94Z"/><path class="cls-1" d="M498.94,72.39C501.13,56.3,514,44,529.49,44S557.84,56.3,560,72.39h44.08C601.79,32,569.88,0,530.84,0S459.9,32,457.58,72.39Z"/><rect class="cls-1" y="66.73" width="43.35" height="85.05"/><path class="cls-1" d="M415.91,45.32h26v-40h-30A72.58,72.58,0,0,0,339.3,77.92v1.34a75,75,0,0,0,74.95,74.94H441.9V114.12H414.62a29.34,29.34,0,0,1-29.34-29.34V76A30.64,30.64,0,0,1,415.91,45.32Z"/><path class="cls-1" d="M275,5.35a70.51,70.51,0,0,0-70.52,70.51V86.72a67.48,67.48,0,0,0,67.48,67.48h0a50.72,50.72,0,0,0,6.44-.42h0c28.62,1.49,44.46-14.36,44.46-14.36V105.72l-.06,0c0-.81.06-1.63.06-2.45,0,0-11.64,17.58-28.69,16.43-49.28,2.69-44.91-39.95-44.91-39.95,1.06-31.05,21.55-36.88,34.48-37.45h0l.31,0v0h38.77v-37Zm9.18,37c1.37-.05,2.65-.05,3.81,0Z"/></g></g></svg>