<!-- Created with Inkscape (http://www.inkscape.org/) -->
<svg xmlns:rdf="http://www.w3.org/1999/02/22-rdf-syntax-ns#" xmlns="http://www.w3.org/2000/svg" xml:space="preserve" height="35.937" width="156.41" version="1.1" xmlns:cc="http://creativecommons.org/ns#" xmlns:dc="http://purl.org/dc/elements/1.1/"><metadata><rdf:RDF><cc:Work rdf:about=""><dc:format>image/svg+xml</dc:format><dc:type rdf:resource="http://purl.org/dc/dcmitype/StillImage"/><dc:title/></cc:Work></rdf:RDF></metadata><path fill-rule="nonzero" fill="#231f20" d="m155.11,29.333-7.21-5.763,0-7.825-3.86-2.863,11.04,0,0,16.451zm0,4.4-2.98,0-5.57-4.488,0,4.488-4.4,0,0-4.263-5.63,4.263-3.09,0,0-2.525,8.72-7.063,0-11.263,0.13,0,0,0.126,4.39,3.375,0,7.825,8.55,6.887,0,2.7zm-21.67-20.851,7.39,0,0,10.738-7.39,5.887,0-16.625zm-1.3-1.25,0,23.338,5.11,0,3.58-3.013,0,3.013,7.07,0,0-3.013,3.58,3.013,4.94,0,0-23.338-24.28,0z"/><path fill-rule="nonzero" fill="#231f20" d="m38.415,0.0075,5.2,0,0,0.5875-4.488,0,0,2.675,4.2,0,0,0.6-4.2,0,0,2.9125,4.538,0,0,0.6-5.25,0,0-7.375z"/><path fill-rule="nonzero" fill="#231f20" d="m45.29,7.3825,0.662,0,0-7.375-0.662,0,0,7.375z"/><path fill-rule="nonzero" fill="#231f20" d="m51.565,4.345c0-0.9875-0.65-1.9-1.725-1.9-1.088,0-1.688,0.925-1.8,1.9h3.525zm-3.525,0.55c0,0.95,0.525,2.1,1.8,2.1,0.962,0,1.488-0.5625,1.7-1.3625h0.662c-0.275,1.2-1,1.9125-2.362,1.9125-1.738,0-2.463-1.3125-2.463-2.825,0-1.4125,0.725-2.825,2.463-2.825,1.737,0,2.438,1.5,2.387,3h-4.187z"/><path fill-rule="nonzero" fill="#231f20" d="m53.552,0.0075,0.663,0,0,4.625,3.012-2.5875,0.888,0-2.325,1.975,2.475,3.3625-0.825,0-2.15-2.9-1.075,0.875,0,2.025-0.663,0,0-7.375z"/><path fill-rule="nonzero" fill="#231f20" d="m60.302,2.045,1.1,0,0,0.55-1.1,0,0,3.6c0,0.425,0.125,0.675,0.538,0.7h0.562v0.5625h-0.587c-0.888,0-1.188-0.2875-1.175-1.2v-3.65h-0.95v-0.55h0.95v-1.6h0.662v1.6z"/><path fill-rule="nonzero" fill="#231f20" d="m62.79,2.045,0.612,0,0,1.25,0,0c0.35-0.85,1.088-1.3625,2.063-1.3125v0.65c-1.2-0.125-2.025,0.8-2.025,1.9125v2.8375h-0.663v-5.3375z"/><path fill-rule="nonzero" fill="#231f20" d="m66.84,4.72c0,1.1375,0.625,2.275,1.912,2.275,1.275,0,1.9-1.1375,1.9-2.275s-0.625-2.275-1.9-2.275c-1.287,0-1.912,1.1375-1.912,2.275m4.475,0c0,1.525-0.9,2.825-2.562,2.825-1.675,0-2.575-1.3-2.575-2.825,0-1.5375,0.9-2.825,2.575-2.825,1.662,0,2.562,1.2875,2.562,2.825"/><path fill-rule="nonzero" fill="#231f20" d="m72.015,2.045,0.713,0,1.387,4.575,0,0,1.325-4.575,0.75,0,1.325,4.575,0,0,1.387-4.575,0.713,0-1.75,5.3375-0.725,0-1.338-4.4875,0,0-1.325,4.4875-0.737,0-1.75-5.3375z"/><path fill-rule="nonzero" fill="#231f20" d="m84.715,4.345c0-0.9875-0.65-1.9-1.725-1.9-1.087,0-1.687,0.925-1.787,1.9h3.512zm-3.512,0.55c0,0.95,0.512,2.1,1.787,2.1,0.975,0,1.5-0.5625,1.713-1.3625h0.662c-0.287,1.2-1,1.9125-2.375,1.9125-1.725,0-2.45-1.3125-2.45-2.825,0-1.4125,0.725-2.825,2.45-2.825,1.75,0,2.45,1.5,2.388,3h-4.176z"/><path fill-rule="nonzero" fill="#231f20" d="m86.702,2.045,0.613,0,0,1.25,0,0c0.337-0.85,1.075-1.3625,2.05-1.3125v0.65c-1.2-0.125-2.025,0.8-2.025,1.9125v2.8375h-0.663v-5.3375z"/><path fill-rule="nonzero" fill="#231f20" d="m90.452,0.0075,0.663,0,0,4.625,3.012-2.5875,0.888,0-2.325,1.975,2.487,3.3625-0.837,0-2.15-2.9-1.075,0.875,0,2.025-0.663,0,0-7.375z"/><path fill-rule="nonzero" fill="#231f20" d="m96.478,6.8325,3.742,0,0,0.55-4.542,0,0-0.525,3.55-4.2625-3.313,0,0-0.55,4.155,0,0,0.475-3.592,4.3125z"/><path fill-rule="nonzero" fill="#231f20" d="m105.28,4.345c0-0.9875-0.65-1.9-1.73-1.9-1.09,0-1.69,0.925-1.8,1.9h3.53zm-3.53,0.55c0,0.95,0.53,2.1,1.8,2.1,0.96,0,1.5-0.5625,1.7-1.3625h0.68c-0.29,1.2-1.01,1.9125-2.38,1.9125-1.72,0-2.46-1.3125-2.46-2.825,0-1.4125,0.74-2.825,2.46-2.825,1.75,0,2.45,1.5,2.39,3h-4.19z"/><path fill-rule="nonzero" fill="#231f20" d="m111.66,7.3825-0.6,0,0-0.9625,0,0c-0.35,0.7125-1.06,1.125-1.87,1.125-1.38,0-1.91-0.7875-1.91-2.0375v-3.4625h0.66v3.475c0,0.9625,0.4,1.475,1.46,1.475,1.14,0,1.63-1.0625,1.63-2.1375v-2.8125h0.66v5.3375z"/><path fill-rule="nonzero" fill="#231f20" d="m117.15,4.6575c0-1.05-0.49-2.2125-1.75-2.2125s-1.78,1.1-1.78,2.2125c0,1.075,0.57,2.1125,1.78,2.1125,1.15,0,1.75-1.025,1.75-2.1125m0.66,2.2875c0,1.6-0.62,2.575-2.41,2.575-1.07,0-2.16-0.475-2.25-1.6125h0.67c0.15,0.7875,0.84,1.0625,1.58,1.0625,1.23,0,1.75-0.7125,1.75-2.025v-0.7125c-0.31,0.65-0.95,1.0875-1.74,1.0875-1.73,0-2.45-1.2125-2.45-2.7375,0-1.4625,0.89-2.6875,2.45-2.6875,0.8,0,1.48,0.4875,1.74,1.075v-0.925h0.66v4.9z"/><path fill-rule="nonzero" fill="#231f20" d="m123.43,4.345c0-0.9875-0.67-1.9-1.74-1.9-1.09,0-1.69,0.925-1.79,1.9h3.53zm-3.53,0.55c0,0.95,0.51,2.1,1.79,2.1,0.97,0,1.5-0.5625,1.71-1.3625h0.66c-0.28,1.2-1,1.9125-2.37,1.9125-1.73,0-2.45-1.3125-2.45-2.825,0-1.4125,0.72-2.825,2.45-2.825,1.75,0,2.45,1.5,2.4,3h-4.19z"/><path fill-rule="nonzero" fill="#231f20" d="m130.03,2.8075c0.44,0,0.89,0,0.89-0.5,0-0.4125-0.35-0.5-0.72-0.5h-0.66v1h0.49zm-0.49,1.5875-0.36,0,0-2.9,1.14,0c0.66,0,0.96,0.2875,0.96,0.8125,0,0.5125-0.35,0.7375-0.75,0.8l0.89,1.2875h-0.43l-0.84-1.2875h-0.61v1.2875zm-1.59-1.45c0,1.2,0.92,2.15,2.15,2.15,1.24,0,2.17-0.95,2.17-2.15s-0.93-2.15-2.17-2.15c-1.23,0-2.15,0.95-2.15,2.15m4.72,0c0,1.4125-1.12,2.5125-2.57,2.5125-1.43,0-2.55-1.1-2.55-2.5125,0-1.4,1.12-2.5,2.55-2.5,1.45,0,2.57,1.1,2.57,2.5"/><path fill-rule="nonzero" fill="#ed1c24" d="m64.59,16.957c2.3,0,3.913,1.75,3.913,3.913h-8.5c0.412-2.513,1.937-3.913,4.587-3.913m55.49,3.838c-3.12-1-6.67-1.188-8.22-1.825-0.52-0.238-1.08-0.55-1.08-1.238,0-1.562,1.51-1.837,2.83-1.837,0.75,0,1.52,0.225,2.08,0.687,0.61,0.413,1.04,1.013,1.09,1.788h8.5c-0.24-6.1-6.62-7.525-11.9-7.525-4.92,0-11.58,1.562-11.58,7.575,0,4.075,2.88,6.275,10.01,7.475,4.35,0.737,5.15,1.15,5.15,2.525s-1.93,1.825-3.16,1.825c-1.14,0-2.04-0.275-2.51-0.688-0.7-0.587-1.09-1.275-1.13-2.1h-8.56c0-3.9-2.735-5.687-5.86-6.662-3.113-1-6.663-1.188-8.213-1.825-0.525-0.238-1.087-0.55-1.087-1.238,0-1.562,1.512-1.837,2.825-1.837,0.762,0,1.512,0.225,2.087,0.687,0.613,0.413,1.038,1.013,1.088,1.788h8.5c-0.24-6.1-6.613-7.525-11.9-7.525-4.925,0-11.588,1.562-11.588,7.575,0,4.075,2.888,6.275,10.025,7.475,4.35,0.737,5.15,1.15,5.15,2.525s-1.937,1.825-3.162,1.825c-1.138,0-2.038-0.275-2.513-0.688-0.7-0.587-1.087-1.275-1.125-2.1h-8.887-8.188c-1.237,2.038-2.812,2.588-4.25,2.588-2.787,0-4.312-1.888-4.537-4.663h17.075c0-8.962-4-14.125-13.263-14.125-5.025,0-8.912,2.563-10.887,6.35v-5.575c-1.075-0.2-2.225-0.137-3.213,0-3.3,0.288-6.062,2.55-6.062,2.55v-2.275h-8.463v22.463l-12.837-17.388,12.587-16.95h-11.425l-12.8,16.612v-16.612h-10.55v34.812h10.538l0.125-17.338,12.375,17.3h20.525v-8.987c0.137-5.35,2.512-6.788,5.787-7.313,1.125-0.187,2.038,0,2.813,0.363-0.463,1.337-0.725,2.787-0.725,4.312,0,7.775,5.625,12.175,13.087,12.175,5.213,0,10.038-2.262,12.338-7.887v-0.125c1.212,6.15,6.562,8.012,12.2,8.012,5.437,0,11.32-1.5,12.31-6.787,1.13,4.925,6.8,6.787,12.03,6.787,5.95,0,12.47-1.787,12.47-8.387,0-3.9-2.74-5.688-5.86-6.663"/><path fill-rule="nonzero" fill="#ed1c24" d="m64.59,16.957,0-0.125c1.175,0,2.175,0.45,2.887,1.176,0.7,0.725,1.125,1.725,1.125,2.825v0.125h-8.7v-0.125c0.4-2.55,1.988-4.001,4.675-3.988v0.125,0.125c-2.612,0-4.087,1.35-4.487,3.825h-0.125v-0.125h8.5v0.125h-0.125c0-2.113-1.588-3.813-3.825-3.813v-0.125zm55.49,3.838,0,0.125c-3.1-1.012-6.64-1.187-8.23-1.837-0.52-0.238-1.15-0.576-1.15-1.325,0-0.813,0.42-1.325,0.98-1.588,0.57-0.275,1.28-0.35,1.96-0.35,0.78,0,1.55,0.238,2.14,0.713v0.125-0.125c0.64,0.425,1.07,1.05,1.12,1.862h-0.12v-0.125h8.5v0.125h-0.13c-0.12-3.012-1.74-4.85-4.01-5.962-2.26-1.113-5.16-1.463-7.8-1.463-2.45,0-5.34,0.388-7.59,1.525-2.26,1.125-3.9,2.975-3.9,5.95,0,2.013,0.7,3.55,2.3,4.738,1.59,1.2,4.08,2.05,7.64,2.637,2.17,0.375,3.46,0.663,4.24,1.038,0.76,0.362,1,0.875,0.98,1.587,0,0.738-0.52,1.225-1.17,1.513-0.65,0.3-1.45,0.412-2.08,0.412-1.15,0-2.06-0.275-2.57-0.712-0.71-0.6-1.11-1.325-1.16-2.175h0.12v0.125h-8.65v-0.125c0-3.85-2.685-5.6-5.797-6.563-3.101-1.012-6.638-1.187-8.226-1.837-0.512-0.238-1.137-0.575-1.137-1.325,0-0.813,0.413-1.325,0.975-1.588,0.563-0.275,1.287-0.35,1.95-0.35,0.775,0,1.562,0.238,2.15,0.713l-0.125,0.125v-0.125c0.637,0.425,1.075,1.05,1.125,1.862h-0.125v-0.125h8.5v0.125h-0.13c-0.12-3.012-1.745-4.85-4.008-5.962-2.262-1.113-5.162-1.463-7.8-1.463-2.45,0-5.337,0.388-7.6,1.525-2.25,1.125-3.887,2.975-3.887,5.95,0,2.013,0.7,3.55,2.3,4.738,1.587,1.2,4.075,2.05,7.637,2.637,2.175,0.375,3.463,0.663,4.238,1.038,0.762,0.362,1,0.875,0.987,1.587,0,0.738-0.525,1.225-1.175,1.513-0.65,0.3-1.45,0.412-2.075,0.412-1.15,0-2.075-0.275-2.575-0.712-0.712-0.6-1.112-1.325-1.162-2.175h0.125v0.125h-8.888-8.187v-0.125h0.125c-1.25,2.062-2.863,2.625-4.325,2.625-2.838,0-4.413-1.938-4.638-4.738v-0.125h17.175v0.125h-0.125c0-4.462-1-7.975-3.137-10.362-2.138-2.388-5.413-3.675-10.038-3.675-4.987,0-8.85,2.55-10.8,6.312h-0.175v-5.575h0.125v0.125c-0.512-0.125-1.05-0.125-1.575-0.125-0.562,0-1.112,0-1.612,0.125-1.638,0.138-3.138,0.775-4.238,1.375-0.55,0.3-0.987,0.588-1.3,0.8-0.312,0.213-0.475,0.35-0.475,0.35l-0.15,0.125v-2.387h-8.287v22.662l-13.037-17.675,12.512-16.85h-11.2l-12.938,16.788v-16.788h-10.374v34.613h10.338l0.125-17.525,12.512,17.487h20.388v-8.887c0.125-5.388,2.575-6.888,5.875-7.413,0.325,0,0.637-0.125,0.937-0.125,0.726,0,1.363,0.163,1.938,0.45h0.125v0.125c-0.463,1.338-0.713,2.775-0.713,4.288,0,7.725,5.55,12.075,12.988,12.087,5.187,0,9.962-2.25,12.25-7.837v-0.125h0.175-0.125,0.125c1.2,6.1,6.487,7.937,12.112,7.95,2.713,0,5.525-0.375,7.788-1.413,2.25-1.025,3.95-2.687,4.44-5.3h0.17c1.1,4.85,6.73,6.713,11.94,6.713,2.97,0,6.07-0.45,8.42-1.713,2.35-1.262,3.97-3.325,3.97-6.587,0-3.85-2.69-5.6-5.8-6.563v-0.125-0.125c3.12,0.963,5.92,2.788,5.92,6.75,0,3.325-1.66,5.475-4.06,6.75-2.39,1.288-5.53,1.738-8.51,1.738-5.24,0-10.97-1.863-12.12-6.863h0.13,0.12c-0.5,2.675-2.245,4.4-4.545,5.438-2.288,1.037-5.138,1.425-7.863,1.425-5.65,0-11.075-1.888-12.3-8.1v-0.125h0.125,0.125v0.125c-2.312,5.662-7.187,7.95-12.425,7.95-3.75,0-7.05-1.113-9.4-3.2-2.362-2.088-3.775-5.163-3.775-9.075,0-1.538,0.263-2.988,0.725-4.35h0.125v0.125c-0.537-0.275-1.15-0.425-1.85-0.425-0.287,0-0.587,0-0.912,0.125-3.25,0.537-5.563,1.9-5.713,7.237v9.063h-20.675l-12.225-17.088-0.125,17.125h-10.712v-34.988h10.75v16.426l12.662-16.426h11.663l-12.663,17.038,12.625,17.113v-22.288h8.663v2.375h-0.125-0.125s2.775-2.287,6.125-2.575c0.5,0,1.062-0.125,1.625-0.125,0.537,0,1.075,0,1.612,0.138h0.125v5.65h-0.125-0.125c1.975-3.825,5.913-6.413,10.963-6.413,4.65,0,8,1.3,10.175,3.738,2.187,2.437,3.187,6,3.187,10.487v0.125h-17.175v-0.125h0.125c0.238,2.75,1.713,4.575,4.45,4.575,1.413,0,2.938-0.525,4.163-2.537h8.237,8.975v0.125c0,0.8,0.413,1.462,1.1,2.05,0.45,0.387,1.325,0.662,2.45,0.662,0.6,0,1.375-0.125,2-0.387,0.625-0.288,1.063-0.713,1.063-1.35,0-0.675-0.175-1.063-0.888-1.425-0.725-0.35-2.012-0.638-4.175-1.013-3.575-0.6-6.1-1.45-7.725-2.675-1.637-1.212-2.375-2.825-2.375-4.887,0-3.05,1.7-4.975,4-6.125s5.2-1.538,7.675-1.538c2.65,0,5.575,0.35,7.888,1.475,2.3,1.125,3.99,3.05,4.11,6.138v0.125h-8.685v-0.125c0-0.75-0.45-1.325-1.038-1.725-0.55-0.45-1.287-0.675-2.025-0.675-0.65,0-1.35,0.125-1.862,0.325-0.525,0.262-0.875,0.675-0.875,1.425,0,0.625,0.512,0.912,1.037,1.15v0.125-0.125c1.538,0.625,5.088,0.812,8.225,1.825,3.125,0.962,5.923,2.787,5.923,6.75h-0.12v-0.125h8.65v0.125c0,0.8,0.41,1.462,1.1,2.05,0.45,0.387,1.32,0.662,2.45,0.662,0.6,0,1.38-0.125,2-0.387,0.62-0.288,1.06-0.713,1.06-1.35,0-0.675-0.16-1.063-0.89-1.425-0.72-0.35-2.01-0.638-4.17-1.013-3.58-0.6-6.1-1.45-7.73-2.675-1.64-1.212-2.37-2.825-2.37-4.887,0-3.05,1.7-4.975,4-6.125s5.2-1.538,7.67-1.538c2.65,0,5.58,0.35,7.89,1.475s3.99,3.05,4.11,6.138v0.125h-8.69v-0.125c0-0.75-0.45-1.325-1.03-1.725-0.55-0.45-1.28-0.675-2.02-0.675-0.66,0-1.36,0.125-1.87,0.325-0.53,0.262-0.86,0.675-0.88,1.425,0,0.625,0.52,0.912,1.04,1.15v0.125-0.125c1.54,0.625,5.09,0.812,8.23,1.825v0.125z"/></svg>
