<svg xmlns="http://www.w3.org/2000/svg" viewBox="0 0 571.29 92.38"><defs><style>.cls-1{fill:#f9af2a;}.cls-2{fill:#1d1d1b;}</style></defs><g id="Camada_2" data-name="Camada 2"><g id="Camada_1-2" data-name="Camada 1"><polygon class="cls-1" points="510.64 2.68 571.29 2.68 571.29 92.38 510.64 92.38 510.64 63.76 540.97 63.76 540.97 33.43 510.64 33.43 510.64 2.68"/><polygon class="cls-1" points="60.66 0 0 0 0 89.7 60.66 89.7 60.66 61.08 30.33 61.08 30.33 30.75 60.66 30.75 60.66 0"/><path class="cls-2" d="M79.43,0h46.08q15,0,22.54,7.16t7.5,20.38q0,13.58-8.17,21.23t-24.93,7.65H107.27V89.7H79.43Zm27.84,38.24h6.79q8,0,11.26-2.78a9,9,0,0,0,3.25-7.13,10,10,0,0,0-2.82-7.16q-2.82-2.94-10.58-2.94h-7.9Z"/><path class="cls-2" d="M221.24,52.07a147.13,147.13,0,0,1-.75,18,18.06,18.06,0,0,1-4.7,9.66,25.15,25.15,0,0,1-10.67,6.72,47.34,47.34,0,0,1-15.66,2.35,48.66,48.66,0,0,1-15.24-2.22,25.11,25.11,0,0,1-10.87-6.64,17.94,17.94,0,0,1-4.89-9.64q-.79-5.2-.79-18.23V37.64a146.91,146.91,0,0,1,.75-18,18.05,18.05,0,0,1,4.7-9.67,25.15,25.15,0,0,1,10.67-6.72A47.63,47.63,0,0,1,189.46.91,49.05,49.05,0,0,1,204.7,3.12a25.23,25.23,0,0,1,10.86,6.64,18.1,18.1,0,0,1,4.9,9.64q.78,5.22.78,18.24ZM193.76,24.35q0-5.88-.81-7.53c-.55-1.09-1.67-1.64-3.36-1.64a4.1,4.1,0,0,0-3.3,1.33q-1.14,1.33-1.14,7.84V63.74c0,4.89.25,7.92.75,9.06s1.66,1.72,3.49,1.72,3.07-.66,3.59-2,.78-4.46.78-9.43Z"/><path class="cls-2" d="M283.23,28.21H257.78V22q0-4.36-1-5.57a4,4,0,0,0-3.26-1.2,4.48,4.48,0,0,0-3.74,1.62,7.91,7.91,0,0,0-1.27,4.9A11.56,11.56,0,0,0,250,28.06q1.36,2.13,7.74,5.16,18.3,8.69,23.05,14.26t4.75,18q0,9-2.64,13.28T272.69,85.9a49,49,0,0,1-17.57,2.9q-11,0-18.78-3.34T226.16,77q-2.41-5.16-2.41-14.64V56.81h25.44V67.07q0,4.74,1.08,6.1t3.81,1.35a4.81,4.81,0,0,0,4.06-1.72,8.21,8.21,0,0,0,1.34-5.1q0-7.46-2.54-9.75T244.12,50.3a131.72,131.72,0,0,1-13.54-7.87,18.61,18.61,0,0,1-5.49-6.77,24.45,24.45,0,0,1-2.18-11q0-9.69,3.09-14.17t10-7A48.76,48.76,0,0,1,252.64.91a53,53,0,0,1,18.19,2.76q7.51,2.76,10,7t2.44,14.25Z"/><path class="cls-2" d="M314.57,2.68V87h-27.4V2.68Z"/><path class="cls-2" d="M376.1,2.68V19.56H359.83V87H332.44V19.56H316.23V2.68Z"/><path class="cls-2" d="M377.77,2.68h45.68V19.56H405.16v16h17.12V51.6H405.16V70.15h20.11V87h-47.5Z"/><path class="cls-2" d="M491.68,39.41H464.29V24.75c0-4.26-.3-6.93-.88-8s-1.88-1.59-3.87-1.59q-3.39,0-4.3,1.93t-.91,8.34V64.62q0,6.15.91,8c.61,1.25,2,1.87,4.1,1.87s3.37-.62,4-1.88,1-4.19,1-8.82V53.21h27.39V56.5q0,13.1-2.31,18.57t-10.21,9.61q-7.91,4.11-19.49,4.12-12,0-19.85-3.49t-10.35-9.67q-2.54-6.17-2.54-18.57V32.43a87.83,87.83,0,0,1,.79-13.68A17.41,17.41,0,0,1,432.37,10a25.93,25.93,0,0,1,10.74-6.64A47.14,47.14,0,0,1,458.89.91q12.11,0,20,3.74T489.21,14q2.48,5.59,2.47,17.4Z"/></g></g></svg>