<?xml version="1.0" encoding="UTF-8" standalone="no"?>
<!DOCTYPE svg PUBLIC "-//W3C//DTD SVG 1.1//EN" "http://www.w3.org/Graphics/SVG/1.1/DTD/svg11.dtd">
<svg width="100%" height="100%" viewBox="0 0 299 124" version="1.1" xmlns="http://www.w3.org/2000/svg" xmlns:xlink="http://www.w3.org/1999/xlink" xml:space="preserve" xmlns:serif="http://www.serif.com/" style="fill-rule:evenodd;clip-rule:evenodd;stroke-linejoin:round;stroke-miterlimit:2;">
    <path d="M0,121.766L0,9.758C1.68,3.755 6.348,1.054 12.506,0L67.112,0C82.669,1.774 92.705,8.927 96.775,21.893C98.559,28.747 98.905,35.601 97.449,42.455C94.938,53.882 89.332,61.183 79.753,63.185C87.747,65.494 91.593,70.659 93.991,78.859C96.389,87.059 95.427,113.5 95.427,113.5C95.283,116.943 96.654,119.737 99.809,121.766L73.058,121.766C68.756,118.447 70.234,100.806 69.351,85.761C68.221,78.795 62.305,74.887 55.652,73.443L24.641,73.443L24.641,121.766L0,121.766ZM24.902,52.872L61.765,52.872C66.456,52.665 69.768,49.111 72.397,43.897C73.75,39.596 73.694,34.981 72.397,30.091C70.148,25.077 66.628,22.062 62.318,20.288L24.819,20.785L24.902,52.872Z"/>
    <path d="M106.118,51.152L129.417,51.842C130.972,48.405 133.397,46.098 136.838,45.111C141.312,44.247 145.715,44.091 150,45.111C153.5,45.731 156.716,46.921 159.273,49.426C160.28,51.289 160.481,53.242 159.791,55.294C157.221,59.197 153.889,61.467 150,62.542C138.099,62.541 126.741,65.252 115.783,69.963C109.946,72.286 106.286,77.112 104.219,83.77C102.523,90.811 102.696,97.644 104.392,104.307C108.307,113.863 115.146,120.495 127.346,121.766C136.723,124.303 146.1,123.831 155.477,121.766C166.547,120.284 174.091,112.923 179.638,102.236C181.2,100.031 181.874,95.755 182.054,90.328C182.054,90.328 185.453,52.681 182.054,44.594C178.656,36.506 172.567,30.533 162.725,27.508C150.817,25.142 138.909,25.099 127,27.335C113.042,32.525 107.189,40.899 106.118,51.152Z"/>
    <path d="M159.63,74.596C151.365,78.375 143.002,80.887 134.502,81.603C130.523,82.736 127.921,85.017 126.77,88.506C125.69,91.59 125.494,94.673 126.77,97.757C128.616,102.273 131.283,104.442 134.778,104.246C138.276,104.97 141.773,104.757 145.271,103.832C151.98,102.276 156.513,97.65 159.216,90.439L159.63,74.596Z" style="fill:rgb(255,183,27);"/>
    <path d="M189.394,25.695L266.675,25.695L266.675,46.868L216.393,99.789L266.675,99.789L266.675,121.766L187.067,121.766L187.067,101.475L236.617,46.531L199.202,46.531C194.232,46.787 191.174,43.494 189.427,37.767C187.679,32.04 189.394,25.695 189.394,25.695Z"/>
    <path d="M273.897,18.324L273.897,0L287.98,0C292.579,1.292 296.175,3.731 298.197,7.969L298.197,18.324L273.897,18.324Z"/>
    <path d="M273.897,25.695L273.897,121.766L298.197,121.766L298.197,36.243C296.482,30.783 293.22,27.385 288.678,25.695L273.897,25.695Z"/>
</svg>
