<?xml version="1.0" encoding="UTF-8" standalone="no"?><!DOCTYPE svg PUBLIC "-//W3C//DTD SVG 1.1//EN" "http://www.w3.org/Graphics/SVG/1.1/DTD/svg11.dtd"><svg width="100%" height="100%" viewBox="0 0 6024 1398" version="1.1" xmlns="http://www.w3.org/2000/svg" xmlns:xlink="http://www.w3.org/1999/xlink" xml:space="preserve" xmlns:serif="http://www.serif.com/" style="fill-rule:evenodd;clip-rule:evenodd;stroke-linejoin:round;stroke-miterlimit:2;"><rect id="Prancheta1" x="0" y="0" width="6023.026" height="1397.608" style="fill:none;"/><g id="Camada_2"><g id="Camada_2-2"><path id="T" d="M1651.117,302.269l0,161.083l-233.875,0l0,632.292l-217.292,0l0,-632.292l-234.042,0l0,-161.083l685.208,0" style="fill-rule:nonzero;"/><path id="A" d="M2165.159,302.311l-252.417,0l-299.083,793.375l212.167,0l55.333,-158.625l305.375,0l53.292,158.625l228.875,0l-303.542,-793.375Zm-234.167,484.792l105.792,-318.417l101.708,318.417l-207.5,0Z" style="fill-rule:nonzero;"/><g id="N"><path d="M2588.242,1095.644l0,-793.375l178.833,0l563.042,673.958l0,119.417l-177.792,0l-354.833,-427.583l0,427.583l-209.25,0" style="fill-rule:nonzero;"/><path d="M2997.2,302.269l332.958,0l0,401.75l-332.958,-401.75" style="fill-rule:nonzero;"/></g><path id="L" d="M3528.575,302.269l0,793.375l579.542,0l0,-163.417l-356.625,0l0,-629.958l-222.917,0" style="fill-rule:nonzero;"/><path id="E" d="M4239.492,1095.644l0,-793.375l599.708,0l0,155.958l-376.792,0l0,158.125l342.875,0l0,158.25l-342.875,0l0,162.792l389.625,0l0,158.25l-612.542,0" style="fill-rule:nonzero;"/><path id="Y" d="M4933.659,302.269l250,0l160.083,318.125l157.792,-318.125l250.083,0l-299.208,494.375l0,299l-217.292,0l0,-299l-301.458,-494.375" style="fill-rule:nonzero;"/><path id="s" d="M296.284,892.311c74.18,38.218 156.47,58.054 239.917,57.833c69,0 148.458,-13.25 148.458,-74.083c0,-141.667 -411.375,-60.583 -411.375,-349.25c0,-190.958 181.083,-239.958 344.833,-239.958c84.492,-0.476 168.572,11.844 249.375,36.542l-20.333,170.333c-57.25,-23.083 -129.917,-46.333 -211.833,-46.333c-54.958,0 -139.958,3.583 -139.958,72.833c0,125 413.625,60.417 413.625,337.75c0,205.792 -191.667,252.792 -372.792,252.792c-109.292,0 -210.583,-21.458 -264.792,-38.542l24.875,-179.917Z" style="fill:#010101;fill-rule:nonzero;"/></g></g></svg>