<svg version="1.1" id="Marca_Tramontina" xmlns="http://www.w3.org/2000/svg" xmlns:xlink="http://www.w3.org/1999/xlink" x="0px"
	 y="0px" width="297.638px" height="60.568px" viewBox="0 0 297.638 60.568" enable-background="new 0 0 297.638 60.568"
	 xml:space="preserve">
<path fill="#00529A" d="M284.608,0c7.874,0,13.03,5.154,13.03,13.032v34.506c0,7.884-5.155,13.03-13.03,13.03H13.031
	C5.155,60.568,0,55.422,0,47.538V13.032C0,5.154,5.155,0,13.031,0H284.608L284.608,0z M130.127,31.892
	c0,7.768,6.245,14.098,14.012,14.098c7.807,0,14.21-6.292,14.21-14.169c0-7.768-6.293-14.13-14.053-14.13
	C136.489,17.692,130.127,24.015,130.127,31.892L130.127,31.892L130.127,31.892z M114.631,43.223l6.136-16.178l2.197,16.445
	c0.189,1.434,1.216,2.006,2.464,2.006h3.147l-4.245-27.311h-4.77l-7.085,18.557l-7.083-18.557h-4.809l-4.244,27.311h5.153
	l2.459-18.75l5.569,14.505c0.534,1.327,1.327,1.971,2.652,1.971H114.631L114.631,43.223z M66.066,26.895
	c0-5.381-3.749-8.71-8.936-8.71H48v25.224c0,1.445,0.642,2.086,2.085,2.086h3.029v-10.08h3.524l4.353,8.527
	c0.566,1.137,1.326,1.553,2.611,1.553h4.096l-6.252-11.061C64.175,33.108,66.066,30.419,66.066,26.895L66.066,26.895L66.066,26.895z
	 M222.596,18.185v25.224c0,1.445,0.644,2.086,2.078,2.086h2.879V26.518L239.415,43.6c0.945,1.364,1.852,1.896,3.255,1.896h2.92
	V18.185h-4.967v19.318l-13.18-19.318H222.596L222.596,18.185z M161.83,18.185v25.224c0,1.445,0.644,2.086,2.087,2.086h2.88V26.518
	L178.653,43.6c0.945,1.364,1.857,1.896,3.256,1.896h2.917V18.185h-4.965v19.318l-13.18-19.318H161.83L161.83,18.185z M88.719,43.637
	c0.455,1.248,1.214,1.858,2.461,1.858h3.68L84.326,18.185h-5.189L68.678,45.496h5.343l2.12-6.023h11.061L88.719,43.637
	L88.719,43.637z M268.547,43.637c0.456,1.248,1.21,1.858,2.456,1.858h3.679l-10.528-27.311h-5.193l-10.458,27.311h5.343l2.125-6.023
	h11.055L268.547,43.637L268.547,43.637z M135.656,31.861c0-4.927,3.821-8.982,8.561-8.982c4.738,0,8.597,4.055,8.597,8.982
	c0,4.92-3.859,8.936-8.597,8.936C139.477,40.797,135.656,36.78,135.656,31.861L135.656,31.861L135.656,31.861z M195.62,23.067
	v20.342c0,1.445,0.644,2.086,2.087,2.086h3.296V23.067h7.538v-4.882h-20.458v2.803c0,1.435,0.642,2.079,2.083,2.079H195.62
	L195.62,23.067z M31.822,23.067v20.342c0,1.445,0.644,2.086,2.086,2.086h3.296V23.067h7.54v-4.882H24.282v2.803
	c0,1.435,0.644,2.079,2.086,2.079H31.822L31.822,23.067z M217.401,18.185h-5.373v25.224c0,1.445,0.644,2.086,2.078,2.086h3.296
	V18.185L217.401,18.185z M53.114,22.879h3.563c1.93,0,4.126,0.908,4.126,3.977c0,2.996-2.197,3.907-4.126,3.907h-3.563V22.879
	L53.114,22.879z M261.499,24.054l3.822,10.648h-7.649L261.499,24.054L261.499,24.054z M81.672,24.054l3.829,10.648h-7.65
	L81.672,24.054L81.672,24.054z"/>
<path fill="#FFFFFF" d="M130.127,31.892c0,7.768,6.245,14.098,14.012,14.098c7.807,0,14.21-6.292,14.21-14.169
	c0-7.768-6.293-14.13-14.053-14.13C136.489,17.692,130.127,24.015,130.127,31.892L130.127,31.892L130.127,31.892z M114.631,43.223
	l6.136-16.178l2.197,16.445c0.189,1.434,1.216,2.006,2.464,2.006h3.147l-4.245-27.311h-4.77l-7.085,18.557l-7.083-18.557h-4.809
	l-4.244,27.311h5.153l2.459-18.75l5.569,14.505c0.534,1.327,1.327,1.971,2.652,1.971H114.631L114.631,43.223z M66.066,26.895
	c0-5.381-3.749-8.71-8.936-8.71H48v25.224c0,1.445,0.642,2.086,2.085,2.086h3.029v-10.08h3.524l4.353,8.527
	c0.566,1.137,1.326,1.553,2.611,1.553h4.096l-6.252-11.061C64.175,33.108,66.066,30.419,66.066,26.895L66.066,26.895L66.066,26.895z
	 M222.596,18.185v25.224c0,1.445,0.644,2.086,2.078,2.086h2.879V26.518L239.415,43.6c0.945,1.364,1.852,1.896,3.255,1.896h2.92
	V18.185h-4.967v19.318l-13.18-19.318H222.596L222.596,18.185z M161.83,18.185v25.224c0,1.445,0.644,2.086,2.087,2.086h2.88V26.518
	L178.653,43.6c0.945,1.364,1.857,1.896,3.256,1.896h2.917V18.185h-4.965v19.318l-13.18-19.318H161.83L161.83,18.185z M88.719,43.637
	c0.455,1.248,1.214,1.858,2.461,1.858h3.68L84.326,18.185h-5.189L68.678,45.496h5.343l2.12-6.023h11.061L88.719,43.637
	L88.719,43.637z M268.547,43.637c0.456,1.248,1.21,1.858,2.456,1.858h3.679l-10.528-27.311h-5.193l-10.458,27.311h5.343l2.125-6.023
	h11.055L268.547,43.637L268.547,43.637z M135.656,31.861c0-4.927,3.821-8.982,8.561-8.982c4.738,0,8.597,4.055,8.597,8.982
	c0,4.92-3.859,8.936-8.597,8.936C139.477,40.797,135.656,36.78,135.656,31.861L135.656,31.861L135.656,31.861z M195.62,23.067
	v20.342c0,1.445,0.644,2.086,2.087,2.086h3.296V23.067h7.538v-4.882h-20.458v2.803c0,1.435,0.642,2.079,2.083,2.079H195.62
	L195.62,23.067z M31.822,23.067v20.342c0,1.445,0.644,2.086,2.086,2.086h3.296V23.067h7.54v-4.882H24.282v2.803
	c0,1.435,0.644,2.079,2.086,2.079H31.822L31.822,23.067z M217.401,18.185h-5.373v25.224c0,1.445,0.644,2.086,2.078,2.086h3.296
	V18.185L217.401,18.185z M53.114,22.879h3.563c1.93,0,4.126,0.908,4.126,3.977c0,2.996-2.197,3.907-4.126,3.907h-3.563V22.879
	L53.114,22.879z M261.499,24.054l3.822,10.648h-7.649L261.499,24.054L261.499,24.054z M81.672,24.054l3.829,10.648h-7.65
	L81.672,24.054L81.672,24.054z"/>
</svg>
