<svg xmlns="http://www.w3.org/2000/svg" viewBox="0 0 600.3 183.7"><defs><style>.cls-1{fill:#fff;}.cls-2{fill:#ffed00;}</style></defs><g id="Camada_2" data-name="Camada 2"><g id="Camada_1-2" data-name="Camada 1"><path class="cls-1" d="M352.53,180.46H264.45V0h81.74q31.37,0,46.26,14.07,13,12.18,13,33.82a43.15,43.15,0,0,1-6,22.18,34,34,0,0,1-17.11,14.07Q400.05,85.78,411.14,95q14.26,11.63,14.26,33,0,22.18-15.53,35.45Q390.55,180.46,352.53,180.46ZM319.26,36V71.16H329.4q14.57,0,20.91-5.69c3.37-2.88,5.07-6.85,5.07-11.9a16.2,16.2,0,0,0-5.07-12.17Q344,36,329.4,36Zm0,70.08v37.88h12.36q26.61,0,33.9-7.31,4.43-4.32,4.43-11.63,0-8.39-5.38-13-7-6-33.9-6Z"/><path class="cls-1" d="M598.66,180.14v-7.61l-36.88-52.86C585.05,110,600.3,91.32,600.3,63.24v-.52c0-18.11-5.62-32.28-16.59-42.78C571.14,7.35,551.34,0,522.72,0H434.18V183.7h51.89V128.06h22.74l37.72,55.64h52.13ZM548.13,66.39c0,13.39-10.16,21.79-27.82,21.79H486.07V44.09h34c17.38,0,28.08,7.35,28.08,21.78Z"/><polygon class="cls-1" points="108.82 55.52 104.28 47.75 85.1 105.61 53.35 0.18 0 0.18 60.9 183.7 104.88 183.7 134.26 99.09 108.82 55.52"/><polygon class="cls-1" points="230.57 0.18 198.82 105.61 179.26 46.62 174.06 55.52 148.49 99.32 178 183.7 221.99 183.7 282.88 0.18 230.57 0.18"/><polygon class="cls-2" points="141.44 1.08 192.3 1.08 166.87 44.63 141.44 88.18 116.01 44.63 90.58 1.08 141.44 1.08"/></g></g></svg>