<?xml version="1.0" encoding="UTF-8" standalone="no"?>
<!DOCTYPE svg PUBLIC "-//W3C//DTD SVG 1.1//EN" "http://www.w3.org/Graphics/SVG/1.1/DTD/svg11.dtd">
<svg width="100%" height="100%" viewBox="0 0 601 184" version="1.1" xmlns="http://www.w3.org/2000/svg" xmlns:xlink="http://www.w3.org/1999/xlink" xml:space="preserve" xmlns:serif="http://www.serif.com/" style="fill-rule:evenodd;clip-rule:evenodd;stroke-linejoin:round;stroke-miterlimit:2;">
    <g id="Camada_2">
        <g id="Camada_1-2">
            <path d="M352.53,180.46L264.45,180.46L264.45,0L346.19,0C367.103,0 382.523,4.69 392.45,14.07C401.117,22.19 405.45,33.463 405.45,47.89C405.491,55.689 403.418,63.355 399.45,70.07C395.478,76.537 389.453,81.492 382.34,84.14C394.147,85.233 403.747,88.853 411.14,95C420.647,102.753 425.4,113.753 425.4,128C425.4,142.787 420.223,154.603 409.87,163.45C396.99,174.79 377.877,180.46 352.53,180.46ZM319.26,36L319.26,71.16L329.4,71.16C339.113,71.16 346.083,69.263 350.31,65.47C353.68,62.59 355.38,58.62 355.38,53.57C355.492,48.98 353.647,44.553 350.31,41.4C346.103,37.8 339.133,36 329.4,36L319.26,36ZM319.26,106.08L319.26,143.96L331.62,143.96C349.36,143.96 360.66,141.523 365.52,136.65C368.473,133.77 369.95,129.893 369.95,125.02C369.95,119.427 368.157,115.093 364.57,112.02C359.903,108.02 348.603,106.02 330.67,106.02L319.26,106.08Z" style="fill-rule:nonzero;stroke:white;stroke-width:1px;"/>
            <path d="M598.66,183.7L598.66,172.53L561.78,119.67C585.05,110 600.3,91.32 600.3,63.24L600.3,62.72C600.3,44.61 594.68,30.44 583.71,19.94C571.14,7.35 551.34,0 522.72,0L434.18,0L434.18,183.7L486.07,183.7L486.07,128.06L508.81,128.06L546.53,183.7L598.66,183.7ZM548.13,66.39C548.13,79.78 537.97,88.18 520.31,88.18L486.07,88.18L486.07,44.09L520.07,44.09C537.45,44.09 548.15,51.44 548.15,65.87L548.13,66.39Z" style="fill-rule:nonzero;stroke:white;stroke-width:1px;"/>
            <path d="M108.82,55.52L104.28,47.75L85.1,105.61L53.35,0.18L0,0.18L60.9,183.7L104.88,183.7L134.26,99.09L108.82,55.52Z" style="fill-rule:nonzero;stroke:white;stroke-width:1px;"/>
            <path d="M230.57,0.18L198.82,105.61L179.26,46.62L174.06,55.52L148.49,99.32L178,183.7L221.99,183.7L282.88,0.18L230.57,0.18Z" style="fill-rule:nonzero;stroke:white;stroke-width:1px;"/>
            <path d="M90.58,1.08L192.3,1.08L141.44,88.18L90.58,1.08Z" style="fill:rgb(255,237,0);fill-rule:nonzero;"/>
        </g>
    </g>
</svg>
