<svg xmlns="http://www.w3.org/2000/svg" viewBox="0 0 685.12 309.7"><defs><style>.cls-1,.cls-3{fill:#e30613;}.cls-1,.cls-2{fill-rule:evenodd;}.cls-2{fill:#fff;}</style></defs><g id="Camada_2" data-name="Camada 2"><g id="Camada_1-2" data-name="Camada 1"><path class="cls-1" d="M484.85,153.9H202.45a4.91,4.91,0,0,1-4.9-4.9h0a4.91,4.91,0,0,1,4.9-4.9h282.4a4.91,4.91,0,0,1,4.9,4.9h0A4.91,4.91,0,0,1,484.85,153.9Zm-17.4-14.7a138.81,138.81,0,0,0-2.2-29.4c3.7,0,5.2,1.3,6,3.8,1.8,5.5,3.2,18.7,4.6,25.7h-8.4Zm-247,0a138.81,138.81,0,0,1,2.2-29.4c-3.7,0-5.2,1.3-6,3.8-1.8,5.5-3.2,18.7-4.6,25.7h8.4Zm79.1-63.9q3.45-32.85,6.9-65.6c-46.7,21.9-78.1,59.9-79.8,129h234.9c-1.7-69.2-33.1-107.2-79.8-129q3.45,32.85,6.9,65.6L373.35,9.2c-1.3-5.6-4.7-9.1-14.3-9.2h-30c-9.6,0-13,3.5-14.3,9.2l-15.3,66.1Z"/><path class="cls-2" d="M333.55,59.7l-8.3-30.4h5.8l5.3,19.6,5-19.5H347l5.2,19.3,5-19.2h5.6l-7.6,30.3h-5.9l-4.9-19.4-5.1,19.3Z"/><polygon class="cls-1" points="0 177.5 35.8 309.2 60.6 309.2 82.8 225.4 104.2 309.6 129.6 309.6 162.6 178.5 138.2 178.5 116.6 261.6 94 177.8 69.9 177.8 48.3 262.4 25.2 177.5 0 177.5"/><path class="cls-1" d="M221.8,178.7c-33.19,0-60.1,29.33-60.1,65.5s26.91,65.5,60.1,65.5,60.1-29.33,60.1-65.5S255,178.7,221.8,178.7Zm0,102.8c-18.89,0-34.2-16.7-34.2-37.3s15.31-37.3,34.2-37.3S256,223.6,256,244.2,240.69,281.5,221.8,281.5Z"/><polygon class="cls-1" points="394.5 309.3 394.5 178.2 420.4 178.2 420.4 224.8 455.5 178.3 488.1 178.3 437.4 243.7 487.7 309.1 455.1 309.1 420.4 261 420.4 309.3 394.5 309.3"/><polygon class="cls-1" points="497.6 178.3 583.7 178.3 583.7 206.7 523 206.7 523 229.1 583.7 229.1 583.7 257.5 523 257.5 523 280.7 583.7 280.7 583.7 309.1 497.6 309.1 497.6 178.3"/><path class="cls-3" d="M348.18,178.75h-55.8v130.9h24.3v-51.2h14.8l24.4,51.2h29.3l-26.4-52.6C397.78,246.75,394.28,178.75,348.18,178.75Zm-.1,52.2h-31.5V206h31.5a12.5,12.5,0,0,1,0,25Z"/><path class="cls-3" d="M647.68,178.1h-55.8V309h24.3V257.8H631l24.4,51.2h29.3l-26.4-52.6C697.28,246.1,693.78,178.1,647.68,178.1Zm-.1,52.2h-31.5v-25h31.5a12.5,12.5,0,0,1,0,25Z"/></g></g></svg>