<svg xmlns="http://www.w3.org/2000/svg" viewBox="0 0 556.23 110.5"><defs><style>.cls-1{fill:#ef7a28;}.cls-2{fill:#1d1d1b;}.cls-3{fill:#fff;}.cls-4{fill:none;stroke:#fff;stroke-miterlimit:10;stroke-width:3px;}</style></defs><g id="Camada_2" data-name="Camada 2"><g id="Camada_1-2" data-name="Camada 1"><rect class="cls-1" x="443.2" y="2.23" width="113.03" height="106.05"/><rect class="cls-1" y="2.23" width="60.72" height="106.05"/><path class="cls-2" d="M196.45,2.23l-19.12,106H123.71a504.21,504.21,0,0,1-13-55.61q-2.58,13.37-12,55.61H45.41L26.19,2.23H67.91l4.54,37L76.84,75Q79.21,47.24,88.71,2.23h44.6q.88,4.65,4.69,35l4.74,40.35a597.38,597.38,0,0,1,12-75.32Z"/><path class="cls-2" d="M286.76,64.32q0,16-1.18,22.63T278.24,99.1q-6.18,5.5-16.68,8.45a90.91,90.91,0,0,1-24.48,3,93.79,93.79,0,0,1-23.82-2.78q-10.56-2.79-17-8.36t-7.65-12.11q-1.23-6.56-1.22-22.93V46.18q0-16,1.17-22.63t7.34-12.15Q202.09,5.9,212.59,3A90.93,90.93,0,0,1,237.08,0,93.85,93.85,0,0,1,260.9,2.78q10.56,2.79,17,8.36t7.65,12.11q1.23,6.56,1.23,22.93ZM243.81,29.48c0-4.94-.43-8.09-1.28-9.47S239.93,18,237.28,18a7.24,7.24,0,0,0-5.15,1.67q-1.78,1.66-1.79,9.86V79q0,9.24,1.18,11.4T237,92.55q4.4,0,5.62-2.49t1.22-11.85Z"/><path class="cls-2" d="M286.48,2.23h30.4q30.39,0,41.16,1.5t17.54,7.7q6.8,6.2,6.79,19.75,0,12.38-4.8,16.64t-18.87,5.1q12.75,2,17.14,5.44t5.46,6.26q1.06,2.85,1.07,15.68v28H342.48V73q0-8.5-2.09-10.54t-11-2v47.81H286.48Zm42.94,18.14V44c4.83,0,8.22-.42,10.15-1.28s2.91-3.61,2.91-8.28V28.56q0-5-2.8-6.62T329.42,20.37Z"/><path class="cls-2" d="M469.77,2.23l-15.1,46.9,22.75,59.14H437.64q-7.14-15.85-13.06-38.64Q423,79.72,420.05,91l-4,17.29H374.18l15.61-59.14L374.18,2.23H415.7q1.14,4.38,4.48,14.6,2.7,7.79,4.4,14.35l9.18-28.95Z"/><path class="cls-3" d="M20.33,91.88a9.68,9.68,0,0,1,2.5.27,2.88,2.88,0,0,1,1.46.8,2,2,0,0,1,.49,1.37,1.74,1.74,0,0,1-.32,1.05,2.48,2.48,0,0,1-.84.73,5.38,5.38,0,0,1-1.11.45l3.31,3.71H23.66l-2.82-3.35H19v3.35H17.06V91.88ZM20.21,93H19v2.74h1.32a3.9,3.9,0,0,0,1.93-.36,1.15,1.15,0,0,0,.6-1,1,1,0,0,0-.64-1A4.72,4.72,0,0,0,20.21,93Z"/><circle class="cls-4" cx="20.33" cy="95.94" r="8.03"/></g></g></svg>